0, 0, Header, 1, 2, 256,
1, 0, Start_track,,,,
1, 0, Time_signature, 2, 1, 48, 8
1, 0, Key_signature, -3," ""major""",,
1, 0, Tempo, 545454,,,
1, 68352, Tempo, 576922,,,
1, 69120, Tempo, 600000,,,
1, 69631, Tempo, 612243,,,
1, 70016, Tempo, 638296,,,
1, 70400, Tempo, 750000,,,
1, 70656, Time_signature, 6, 2, 72, 8
1, 70657, End_track,,,,
2, 0, Start_track,,,,
2, 0, Control_c, 0, 121, 0,
2, 0, Control_c, 0, 64, 0,
2, 0, Control_c, 0, 91, 48,
2, 0, Control_c, 0, 10, 51,
2, 0, Control_c, 0, 7, 100,
2, 0, Control_c, 0, 121, 0,
2, 0, Control_c, 0, 64, 0,
2, 0, Control_c, 0, 91, 48,
2, 0, Control_c, 0, 10, 51,
2, 0, Control_c, 0, 7, 100,
2, 0, Title_t," ""Piano""",,,
2,0, Note_on_c, 0,58,75,
2,1024, Note_on_c, 0,51,88,
2,1024, Note_on_c, 0,55,74,
2,1536, Note_on_c, 0,67,80,
2,1792, Note_on_c, 0,56,94,
2,2048, Note_on_c, 0,53,82,
2,2048, Note_off_c, 0,55,0,
2,2304, Note_off_c, 0,51,0,
2,2304, Note_on_c, 0,46,82,
2,2816, Note_off_c, 0,56,0,
2,2816, Note_on_c, 0,51,84,
2,3072, Note_off_c, 0,58,0,
2,3072, Note_on_c, 0,56,85,
2,3328, Note_off_c, 0,56,0,
2,3328, Note_on_c, 0,56,89,
2,3456, Note_off_c, 0,56,0,
2,3456, Note_on_c, 0,70,94,
2,3584, Note_on_c, 0,58,79,
2,3584, Note_on_c, 0,60,87,
2,3840, Note_on_c, 0,55,87,
2,3840, Note_on_c, 0,39,78,
2,4096, Note_off_c, 0,58,0,
2,4096, Note_on_c, 0,58,83,
2,4352, Note_on_c, 0,50,80,
2,4352, Note_off_c, 0,55,0,
2,4864, Note_off_c, 0,67,0,
2,4864, Note_off_c, 0,58,0,
2,5120, Note_on_c, 0,56,86,
2,5120, Note_on_c, 0,55,86,
2,5376, Note_off_c, 0,60,0,
2,5376, Note_off_c, 0,56,0,
2,5504, Note_off_c, 0,51,0,
2,5504, Note_on_c, 0,58,76,
2,5632, Note_on_c, 0,63,72,
2,5632, Note_off_c, 0,58,0,
2,5888, Note_on_c, 0,67,79,
2,5888, Note_on_c, 0,51,81,
2,6144, Note_on_c, 0,56,86,
2,6144, Note_on_c, 0,60,89,
2,6144, Note_off_c, 0,51,0,
2,6400, Note_off_c, 0,50,0,
2,6400, Note_on_c, 0,58,70,
2,6528, Note_on_c, 0,65,74,
2,6528, Note_off_c, 0,53,0,
2,6656, Note_off_c, 0,63,0,
2,6656, Note_off_c, 0,60,0,
2,6912, Note_on_c, 0,63,86,
2,6912, Note_off_c, 0,58,0,
2,7168, Note_off_c, 0,67,0,
2,7168, Note_off_c, 0,56,0,
2,7168, Note_on_c, 0,58,88,
2,7168, Note_off_c, 0,63,0,
2,7424, Note_on_c, 0,53,90,
2,7424, Note_on_c, 0,60,77,
2,7552, Note_on_c, 0,56,69,
2,7552, Note_on_c, 0,63,74,
2,7680, Note_off_c, 0,65,0,
2,7680, Note_off_c, 0,56,0,
2,7680, Note_on_c, 0,62,84,
2,7936, Note_off_c, 0,70,0,
2,8192, Note_off_c, 0,63,0,
2,8192, Note_off_c, 0,46,0,
2,8192, Note_on_c, 0,65,97,
2,8192, Note_on_c, 0,48,89,
2,8448, Note_off_c, 0,48,0,
2,8448, Note_off_c, 0,55,0,
2,8704, Note_on_c, 0,46,74,
2,8704, Note_off_c, 0,62,0,
2,8960, Note_off_c, 0,58,0,
2,8960, Note_on_c, 0,50,75,
2,9216, Note_off_c, 0,50,0,
2,9216, Note_on_c, 0,62,74,
2,9472, Note_off_c, 0,62,0,
2,9472, Note_on_c, 0,63,73,
2,9600, Note_on_c, 0,67,76,
2,9600, Note_on_c, 0,62,82,
2,9728, Note_on_c, 0,55,86,
2,9728, Note_on_c, 0,48,72,
2,9728, Note_off_c, 0,53,0,
2,9728, Note_off_c, 0,62,0,
2,9984, Note_on_c, 0,58,71,
2,9984, Note_on_c, 0,72,87,
2,9984, Note_off_c, 0,58,0,
2,9984, Note_off_c, 0,46,0,
2,10240, Note_on_c, 0,62,84,
2,10240, Note_off_c, 0,62,0,
2,10240, Note_off_c, 0,63,0,
2,10240, Note_off_c, 0,60,0,
2,10496, Note_off_c, 0,55,0,
2,10496, Note_on_c, 0,53,86,
2,10624, Note_on_c, 0,66,82,
2,10624, Note_on_c, 0,70,77,
2,10688, Note_on_c, 0,75,76,
2,10688, Note_on_c, 0,68,80,
2,10752, Note_off_c, 0,65,0,
2,10752, Note_on_c, 0,62,74,
2,11008, Note_on_c, 0,63,81,
2,11008, Note_off_c, 0,63,0,
2,11008, Note_off_c, 0,53,0,
2,11008, Note_on_c, 0,58,72,
2,11264, Note_on_c, 0,65,73,
2,11264, Note_off_c, 0,68,0,
2,11264, Note_off_c, 0,62,0,
2,11264, Note_on_c, 0,46,69,
2,11520, Note_on_c, 0,51,84,
2,11520, Note_on_c, 0,49,97,
2,11520, Note_on_c, 0,79,82,
2,11520, Note_off_c, 0,70,0,
2,11648, Note_on_c, 0,60,77,
2,11648, Note_off_c, 0,48,0,
2,11776, Note_on_c, 0,50,73,
2,11776, Note_off_c, 0,72,0,
2,11776, Note_on_c, 0,68,81,
2,11776, Note_off_c, 0,68,0,
2,12032, Note_off_c, 0,51,0,
2,12032, Note_on_c, 0,63,72,
2,12032, Note_on_c, 0,53,69,
2,12032, Note_on_c, 0,51,71,
2,12288, Note_off_c, 0,53,0,
2,12288, Note_off_c, 0,58,0,
2,12288, Note_off_c, 0,51,0,
2,12288, Note_off_c, 0,63,0,
2,12544, Note_off_c, 0,60,0,
2,12544, Note_on_c, 0,51,78,
2,12544, Note_on_c, 0,56,92,
2,12544, Note_on_c, 0,55,87,
2,12672, Note_off_c, 0,67,0,
2,12672, Note_off_c, 0,51,0,
2,12800, Note_on_c, 0,67,77,
2,12800, Note_off_c, 0,56,0,
2,12800, Note_on_c, 0,56,75,
2,12800, Note_off_c, 0,56,0,
2,13056, Note_on_c, 0,51,74,
2,13056, Note_on_c, 0,58,82,
2,13056, Note_off_c, 0,65,0,
2,13056, Note_off_c, 0,55,0,
2,13312, Note_on_c, 0,60,76,
2,13312, Note_off_c, 0,51,0,
2,13312, Note_on_c, 0,56,84,
2,13312, Note_on_c, 0,70,78,
2,13312, Note_on_c, 0,51,88,
2,13568, Note_off_c, 0,56,0,
2,13568, Note_on_c, 0,55,82,
2,13568, Note_off_c, 0,67,0,
2,13568, Note_off_c, 0,55,0,
2,13696, Note_on_c, 0,55,89,
2,13696, Note_off_c, 0,55,0,
2,13696, Note_off_c, 0,58,0,
2,13696, Note_on_c, 0,53,74,
2,13824, Note_off_c, 0,51,0,
2,13824, Note_on_c, 0,63,79,
2,13824, Note_on_c, 0,55,96,
2,13824, Note_off_c, 0,55,0,
2,14080, Note_off_c, 0,63,0,
2,14080, Note_on_c, 0,58,81,
2,14208, Note_on_c, 0,55,84,
2,14208, Note_on_c, 0,62,85,
2,14336, Note_on_c, 0,51,82,
2,14336, Note_off_c, 0,51,0,
2,14336, Note_off_c, 0,55,0,
2,14336, Note_off_c, 0,60,0,
2,14592, Note_on_c, 0,56,72,
2,14592, Note_off_c, 0,53,0,
2,14592, Note_off_c, 0,58,0,
2,14592, Note_on_c, 0,53,86,
2,14720, Note_off_c, 0,75,0,
2,14720, Note_off_c, 0,62,0,
2,14848, Note_on_c, 0,62,76,
2,14848, Note_off_c, 0,62,0,
2,14848, Note_on_c, 0,65,85,
2,14848, Note_on_c, 0,68,91,
2,14848, Note_on_c, 0,60,81,
2,15104, Note_off_c, 0,70,0,
2,15104, Note_off_c, 0,53,0,
2,15104, Note_off_c, 0,60,0,
2,15104, Note_on_c, 0,58,80,
2,15104, Note_on_c, 0,70,72,
2,15360, Note_on_c, 0,74,87,
2,15360, Note_on_c, 0,72,89,
2,15360, Note_off_c, 0,56,0,
2,15360, Note_off_c, 0,58,0,
2,15360, Note_on_c, 0,55,83,
2,15360, Note_off_c, 0,55,0,
2,15616, Note_on_c, 0,75,86,
2,15616, Note_on_c, 0,58,80,
2,15616, Note_on_c, 0,62,87,
2,15616, Note_off_c, 0,75,0,
2,15744, Note_off_c, 0,68,0,
2,15744, Note_off_c, 0,74,0,
2,15872, Note_on_c, 0,53,87,
2,15872, Note_on_c, 0,55,75,
2,16128, Note_off_c, 0,58,0,
2,16128, Note_off_c, 0,53,0,
2,16128, Note_on_c, 0,63,86,
2,16128, Note_off_c, 0,63,0,
2,16384, Note_on_c, 0,71,84,
2,16384, Note_on_c, 0,56,86,
2,16384, Note_off_c, 0,55,0,
2,16384, Note_on_c, 0,63,79,
2,16640, Note_off_c, 0,63,0,
2,16640, Note_on_c, 0,74,84,
2,16768, Note_on_c, 0,68,81,
2,16768, Note_on_c, 0,63,73,
2,16896, Note_off_c, 0,68,0,
2,16896, Note_off_c, 0,62,0,
2,16896, Note_off_c, 0,71,0,
2,16896, Note_on_c, 0,68,90,
2,17152, Note_off_c, 0,63,0,
2,17152, Note_on_c, 0,55,79,
2,17152, Note_on_c, 0,60,72,
2,17152, Note_off_c, 0,56,0,
2,17152, Note_off_c, 0,72,0,
2,17152, Note_off_c, 0,70,0,
2,17280, Note_on_c, 0,72,80,
2,17280, Note_off_c, 0,49,0,
2,17408, Note_on_c, 0,53,90,
2,17408, Note_on_c, 0,56,89,
2,17408, Note_off_c, 0,65,0,
2,17408, Note_off_c, 0,56,0,
2,17408, Note_off_c, 0,68,0,
2,17408, Note_on_c, 0,49,78,
2,17664, Note_on_c, 0,65,70,
2,17664, Note_off_c, 0,65,0,
2,17792, Note_off_c, 0,46,0,
2,17792, Note_on_c, 0,68,75,
2,17856, Note_on_c, 0,67,82,
2,17856, Note_on_c, 0,62,79,
2,17920, Note_off_c, 0,55,0,
2,17920, Note_off_c, 0,74,0,
2,18176, Note_on_c, 0,75,88,
2,18176, Note_on_c, 0,58,88,
2,18176, Note_on_c, 0,65,68,
2,18176, Note_off_c, 0,72,0,
2,18432, Note_on_c, 0,56,81,
2,18432, Note_off_c, 0,67,0,
2,18432, Note_off_c, 0,58,0,
2,18432, Note_on_c, 0,55,80,
2,18432, Note_off_c, 0,65,0,
2,18432, Note_off_c, 0,53,0,
2,18688, Note_off_c, 0,55,0,
2,18688, Note_on_c, 0,51,79,
2,18688, Note_on_c, 0,55,88,
2,18688, Note_on_c, 0,53,89,
2,18816, Note_on_c, 0,65,87,
2,18816, Note_off_c, 0,60,0,
2,18816, Note_off_c, 0,56,0,
2,18816, Note_off_c, 0,51,0,
2,18944, Note_on_c, 0,51,89,
2,18944, Note_on_c, 0,56,75,
2,18944, Note_off_c, 0,65,0,
2,18944, Note_off_c, 0,55,0,
2,19200, Note_on_c, 0,55,81,
2,19200, Note_off_c, 0,51,0,
2,19200, Note_off_c, 0,55,0,
2,19200, Note_on_c, 0,71,70,
2,19456, Note_on_c, 0,51,81,
2,19456, Note_off_c, 0,68,0,
2,19456, Note_on_c, 0,58,78,
2,19456, Note_off_c, 0,62,0,
2,19712, Note_off_c, 0,56,0,
2,19712, Note_off_c, 0,53,0,
2,19712, Note_on_c, 0,63,80,
2,19712, Note_on_c, 0,48,82,
2,19840, Note_on_c, 0,70,82,
2,19840, Note_on_c, 0,60,87,
2,19840, Note_on_c, 0,53,81,
2,19840, Note_on_c, 0,55,65,
2,19968, Note_off_c, 0,60,0,
2,19968, Note_off_c, 0,55,0,
2,19968, Note_off_c, 0,48,0,
2,19968, Note_on_c, 0,57,86,
2,19968, Note_on_c, 0,56,69,
2,20224, Note_on_c, 0,62,72,
2,20224, Note_off_c, 0,62,0,
2,20224, Note_on_c, 0,46,74,
2,20480, Note_on_c, 0,68,82,
2,20480, Note_off_c, 0,50,0,
2,20480, Note_off_c, 0,68,0,
2,20480, Note_on_c, 0,55,75,
2,20480, Note_off_c, 0,71,0,
2,20736, Note_on_c, 0,62,72,
2,20736, Note_on_c, 0,60,91,
2,20736, Note_on_c, 0,74,99,
2,20736, Note_off_c, 0,56,0,
2,20992, Note_off_c, 0,62,0,
2,20992, Note_off_c, 0,74,0,
2,21248, Note_on_c, 0,77,74,
2,21248, Note_off_c, 0,77,0,
2,21248, Note_on_c, 0,62,76,
2,21248, Note_off_c, 0,58,0,
2,21504, Note_off_c, 0,63,0,
2,21504, Note_off_c, 0,53,0,
2,21504, Note_off_c, 0,55,0,
2,21504, Note_off_c, 0,62,0,
2,21504, Note_on_c, 0,67,87,
2,21504, Note_off_c, 0,75,0,
2,21760, Note_off_c, 0,51,0,
2,21760, Note_off_c, 0,67,0,
2,22016, Note_on_c, 0,50,89,
2,22016, Note_on_c, 0,65,81,
2,22016, Note_off_c, 0,60,0,
2,22016, Note_on_c, 0,67,72,
2,22016, Note_on_c, 0,63,82,
2,22016, Note_on_c, 0,58,81,
2,22272, Note_off_c, 0,63,0,
2,22272, Note_off_c, 0,67,0,
2,22528, Note_on_c, 0,60,76,
2,22528, Note_on_c, 0,67,91,
2,22528, Note_off_c, 0,58,0,
2,22528, Note_on_c, 0,43,78,
2,22784, Note_on_c, 0,69,79,
2,22784, Note_on_c, 0,58,74,
2,22784, Note_off_c, 0,60,0,
2,22784, Note_on_c, 0,61,74,
2,22784, Note_on_c, 0,74,85,
2,22784, Note_off_c, 0,70,0,
2,22912, Note_on_c, 0,63,81,
2,22912, Note_on_c, 0,75,70,
2,23040, Note_on_c, 0,51,74,
2,23040, Note_on_c, 0,68,77,
2,23040, Note_off_c, 0,65,0,
2,23040, Note_off_c, 0,67,0,
2,23040, Note_on_c, 0,72,79,
2,23296, Note_off_c, 0,58,0,
2,23296, Note_on_c, 0,65,92,
2,23296, Note_on_c, 0,48,84,
2,23552, Note_on_c, 0,53,77,
2,23552, Note_off_c, 0,69,0,
2,23552, Note_off_c, 0,68,0,
2,23552, Note_on_c, 0,70,84,
2,23808, Note_on_c, 0,67,76,
2,23808, Note_on_c, 0,52,81,
2,23808, Note_off_c, 0,65,0,
2,23808, Note_off_c, 0,75,0,
2,23936, Note_off_c, 0,72,0,
2,23936, Note_off_c, 0,53,0,
2,23936, Note_on_c, 0,58,93,
2,23936, Note_on_c, 0,53,81,
2,24064, Note_off_c, 0,79,0,
2,24064, Note_off_c, 0,67,0,
2,24064, Note_on_c, 0,69,69,
2,24064, Note_on_c, 0,75,72,
2,24064, Note_off_c, 0,46,0,
2,24064, Note_on_c, 0,60,77,
2,24064, Note_on_c, 0,67,75,
2,24320, Note_off_c, 0,74,0,
2,24320, Note_off_c, 0,70,0,
2,24320, Note_on_c, 0,68,85,
2,24320, Note_on_c, 0,77,91,
2,24320, Note_on_c, 0,70,85,
2,24576, Note_off_c, 0,67,0,
2,24576, Note_off_c, 0,48,0,
2,24576, Note_off_c, 0,68,0,
2,24576, Note_on_c, 0,48,81,
2,24576, Note_off_c, 0,60,0,
2,24576, Note_on_c, 0,74,75,
2,24832, Note_on_c, 0,68,76,
2,24832, Note_on_c, 0,67,72,
2,24960, Note_off_c, 0,58,0,
2,24960, Note_on_c, 0,72,78,
2,24960, Note_off_c, 0,43,0,
2,24960, Note_off_c, 0,72,0,
2,25024, Note_off_c, 0,74,0,
2,25024, Note_off_c, 0,77,0,
2,25024, Note_on_c, 0,72,77,
2,25024, Note_on_c, 0,58,85,
2,25088, Note_on_c, 0,74,85,
2,25088, Note_on_c, 0,84,69,
2,25088, Note_on_c, 0,43,78,
2,25088, Note_off_c, 0,63,0,
2,25088, Note_on_c, 0,79,83,
2,25344, Note_off_c, 0,68,0,
2,25344, Note_off_c, 0,58,0,
2,25344, Note_on_c, 0,58,88,
2,25344, Note_off_c, 0,43,0,
2,25344, Note_on_c, 0,46,76,
2,25344, Note_off_c, 0,70,0,
2,25344, Note_off_c, 0,74,0,
2,25600, Note_on_c, 0,62,82,
2,25600, Note_off_c, 0,75,0,
2,25600, Note_on_c, 0,75,69,
2,25600, Note_off_c, 0,69,0,
2,25600, Note_off_c, 0,75,0,
2,25600, Note_off_c, 0,67,0,
2,25600, Note_on_c, 0,74,80,
2,25600, Note_on_c, 0,65,82,
2,25856, Note_off_c, 0,46,0,
2,25856, Note_off_c, 0,51,0,
2,25856, Note_on_c, 0,75,83,
2,25856, Note_on_c, 0,46,89,
2,25984, Note_off_c, 0,72,0,
2,25984, Note_off_c, 0,79,0,
2,26112, Note_on_c, 0,77,71,
2,26112, Note_on_c, 0,68,76,
2,26112, Note_off_c, 0,84,0,
2,26112, Note_off_c, 0,65,0,
2,26112, Note_off_c, 0,62,0,
2,26112, Note_off_c, 0,74,0,
2,26368, Note_on_c, 0,79,78,
2,26368, Note_on_c, 0,74,67,
2,26368, Note_off_c, 0,58,0,
2,26368, Note_on_c, 0,72,83,
2,26368, Note_on_c, 0,70,92,
2,26368, Note_on_c, 0,62,75,
2,26624, Note_off_c, 0,74,0,
2,26624, Note_off_c, 0,53,0,
2,26624, Note_on_c, 0,60,78,
2,26624, Note_on_c, 0,53,74,
2,26624, Note_on_c, 0,55,80,
2,26624, Note_on_c, 0,58,94,
2,26624, Note_off_c, 0,70,0,
2,26624, Note_off_c, 0,75,0,
2,26880, Note_off_c, 0,53,0,
2,26880, Note_on_c, 0,63,84,
2,26880, Note_off_c, 0,62,0,
2,26880, Note_on_c, 0,71,94,
2,27008, Note_off_c, 0,58,0,
2,27008, Note_off_c, 0,68,0,
2,27136, Note_on_c, 0,62,65,
2,27136, Note_off_c, 0,72,0,
2,27136, Note_off_c, 0,60,0,
2,27136, Note_off_c, 0,46,0,
2,27136, Note_on_c, 0,84,72,
2,27136, Note_off_c, 0,63,0,
2,27392, Note_on_c, 0,58,76,
2,27392, Note_off_c, 0,55,0,
2,27392, Note_on_c, 0,70,71,
2,27392, Note_off_c, 0,62,0,
2,27392, Note_on_c, 0,55,74,
2,27392, Note_on_c, 0,62,80,
2,27648, Note_on_c, 0,63,73,
2,27648, Note_on_c, 0,68,85,
2,27648, Note_on_c, 0,56,82,
2,27648, Note_off_c, 0,62,0,
2,27648, Note_off_c, 0,70,0,
2,27648, Note_on_c, 0,62,87,
2,27648, Note_on_c, 0,65,85,
2,27648, Note_on_c, 0,75,81,
2,27904, Note_off_c, 0,65,0,
2,27904, Note_on_c, 0,60,89,
2,27904, Note_on_c, 0,72,85,
2,27904, Note_off_c, 0,79,0,
2,27904, Note_on_c, 0,65,74,
2,27904, Note_off_c, 0,68,0,
2,28160, Note_off_c, 0,58,0,
2,28160, Note_on_c, 0,46,79,
2,28160, Note_off_c, 0,75,0,
2,28160, Note_on_c, 0,53,79,
2,28160, Note_on_c, 0,79,83,
2,28160, Note_on_c, 0,75,78,
2,28416, Note_on_c, 0,67,89,
2,28416, Note_off_c, 0,72,0,
2,28672, Note_on_c, 0,72,71,
2,28672, Note_on_c, 0,70,83,
2,28672, Note_off_c, 0,60,0,
2,28672, Note_off_c, 0,75,0,
2,28672, Note_on_c, 0,74,79,
2,28672, Note_off_c, 0,77,0,
2,28928, Note_off_c, 0,50,0,
2,28928, Note_on_c, 0,68,78,
2,29184, Note_off_c, 0,71,0,
2,29184, Note_off_c, 0,67,0,
2,29184, Note_on_c, 0,77,72,
2,29184, Note_off_c, 0,62,0,
2,29440, Note_off_c, 0,77,0,
2,29440, Note_on_c, 0,67,87,
2,29696, Note_on_c, 0,43,90,
2,29696, Note_off_c, 0,67,0,
2,29696, Note_on_c, 0,67,85,
2,29696, Note_off_c, 0,65,0,
2,29696, Note_on_c, 0,75,82,
2,29696, Note_off_c, 0,67,0,
2,29696, Note_on_c, 0,65,83,
2,29696, Note_on_c, 0,58,84,
2,29952, Note_off_c, 0,63,0,
2,29952, Note_off_c, 0,57,0,
2,29952, Note_off_c, 0,79,0,
2,29952, Note_on_c, 0,60,83,
2,30080, Note_on_c, 0,79,83,
2,30080, Note_off_c, 0,74,0,
2,30080, Note_off_c, 0,58,0,
2,30080, Note_on_c, 0,57,76,
2,30208, Note_on_c, 0,77,87,
2,30208, Note_off_c, 0,75,0,
2,30208, Note_on_c, 0,69,100,
2,30208, Note_on_c, 0,63,78,
2,30208, Note_off_c, 0,65,0,
2,30208, Note_on_c, 0,65,77,
2,30208, Note_off_c, 0,70,0,
2,30464, Note_off_c, 0,68,0,
2,30464, Note_on_c, 0,75,88,
2,30720, Note_off_c, 0,79,0,
2,30720, Note_off_c, 0,72,0,
2,30720, Note_on_c, 0,68,81,
2,30720, Note_on_c, 0,74,86,
2,30976, Note_off_c, 0,75,0,
2,30976, Note_on_c, 0,70,71,
2,30976, Note_off_c, 0,68,0,
2,30976, Note_on_c, 0,62,70,
2,31104, Note_off_c, 0,74,0,
2,31104, Note_on_c, 0,67,74,
2,31104, Note_on_c, 0,75,68,
2,31104, Note_off_c, 0,48,0,
2,31232, Note_off_c, 0,77,0,
2,31232, Note_off_c, 0,75,0,
2,31232, Note_off_c, 0,67,0,
2,31232, Note_off_c, 0,57,0,
2,31232, Note_on_c, 0,67,79,
2,31232, Note_on_c, 0,68,85,
2,31488, Note_on_c, 0,75,71,
2,31488, Note_on_c, 0,57,82,
2,31488, Note_off_c, 0,68,0,
2,31488, Note_off_c, 0,75,0,
2,31488, Note_off_c, 0,69,0,
2,31744, Note_off_c, 0,57,0,
2,31744, Note_on_c, 0,48,80,
2,31744, Note_on_c, 0,72,78,
2,31744, Note_off_c, 0,72,0,
2,31744, Note_on_c, 0,79,93,
2,31744, Note_on_c, 0,69,92,
2,31744, Note_on_c, 0,57,76,
2,31744, Note_on_c, 0,74,78,
2,32000, Note_on_c, 0,58,76,
2,32000, Note_off_c, 0,63,0,
2,32000, Note_on_c, 0,50,90,
2,32000, Note_on_c, 0,75,81,
2,32000, Note_off_c, 0,67,0,
2,32000, Note_on_c, 0,67,76,
2,32128, Note_off_c, 0,46,0,
2,32128, Note_off_c, 0,58,0,
2,32256, Note_off_c, 0,74,0,
2,32256, Note_off_c, 0,70,0,
2,32256, Note_on_c, 0,74,70,
2,32256, Note_off_c, 0,67,0,
2,32256, Note_off_c, 0,75,0,
2,32512, Note_on_c, 0,67,84,
2,32512, Note_off_c, 0,65,0,
2,32512, Note_on_c, 0,63,68,
2,32512, Note_off_c, 0,63,0,
2,32512, Note_off_c, 0,57,0,
2,32512, Note_on_c, 0,75,79,
2,32512, Note_on_c, 0,72,77,
2,32768, Note_on_c, 0,58,85,
2,32768, Note_on_c, 0,68,87,
2,32768, Note_on_c, 0,51,78,
2,32768, Note_off_c, 0,67,0,
2,32768, Note_off_c, 0,69,0,
2,32768, Note_on_c, 0,46,84,
2,32768, Note_off_c, 0,58,0,
2,32768, Note_on_c, 0,65,93,
2,33024, Note_on_c, 0,58,72,
2,33024, Note_on_c, 0,63,64,
2,33024, Note_off_c, 0,68,0,
2,33024, Note_off_c, 0,60,0,
2,33024, Note_off_c, 0,55,0,
2,33024, Note_on_c, 0,70,75,
2,33152, Note_off_c, 0,70,0,
2,33152, Note_on_c, 0,55,82,
2,33280, Note_off_c, 0,66,0,
2,33280, Note_off_c, 0,51,0,
2,33536, Note_off_c, 0,65,0,
2,33536, Note_off_c, 0,72,0,
2,33536, Note_off_c, 0,50,0,
2,33536, Note_off_c, 0,56,0,
2,33792, Note_off_c, 0,58,0,
2,33792, Note_off_c, 0,63,0,
2,33792, Note_on_c, 0,51,82,
2,33792, Note_off_c, 0,55,0,
2,34048, Note_on_c, 0,58,83,
2,34048, Note_off_c, 0,58,0,
2,34048, Note_on_c, 0,65,89,
2,34048, Note_on_c, 0,55,72,
2,34176, Note_on_c, 0,63,88,
2,34176, Note_on_c, 0,67,74,
2,34304, Note_on_c, 0,56,75,
2,34304, Note_off_c, 0,63,0,
2,34560, Note_on_c, 0,60,75,
2,34560, Note_on_c, 0,70,87,
2,34560, Note_off_c, 0,56,0,
2,34560, Note_off_c, 0,55,0,
2,34816, Note_off_c, 0,51,0,
2,34816, Note_off_c, 0,60,0,
2,34816, Note_on_c, 0,68,71,
2,34816, Note_off_c, 0,46,0,
2,35072, Note_on_c, 0,56,79,
2,35072, Note_on_c, 0,58,78,
2,35072, Note_off_c, 0,53,0,
2,35072, Note_off_c, 0,62,0,
2,35200, Note_off_c, 0,70,0,
2,35200, Note_on_c, 0,53,82,
2,35328, Note_off_c, 0,48,0,
2,35328, Note_off_c, 0,53,0,
2,35584, Note_off_c, 0,56,0,
2,35584, Note_on_c, 0,63,88,
2,35584, Note_off_c, 0,58,0,
2,35584, Note_off_c, 0,65,0,
2,35840, Note_on_c, 0,55,71,
2,35840, Note_on_c, 0,58,84,
2,35840, Note_off_c, 0,58,0,
2,35840, Note_off_c, 0,39,0,
2,36096, Note_off_c, 0,67,0,
2,36096, Note_off_c, 0,55,0,
2,36096, Note_on_c, 0,55,79,
2,36096, Note_on_c, 0,56,80,
2,36224, Note_on_c, 0,51,77,
2,36224, Note_on_c, 0,67,83,
2,36224, Note_off_c, 0,63,0,
2,36224, Note_off_c, 0,51,0,
2,36352, Note_off_c, 0,55,0,
2,36352, Note_on_c, 0,53,76,
2,36352, Note_on_c, 0,70,83,
2,36352, Note_off_c, 0,56,0,
2,36608, Note_on_c, 0,63,81,
2,36608, Note_on_c, 0,58,83,
2,36608, Note_off_c, 0,58,0,
2,36608, Note_on_c, 0,56,89,
2,36864, Note_off_c, 0,53,0,
2,36864, Note_on_c, 0,55,70,
2,36864, Note_on_c, 0,58,72,
2,36864, Note_on_c, 0,62,74,
2,36864, Note_off_c, 0,56,0,
2,37120, Note_on_c, 0,51,91,
2,37120, Note_off_c, 0,55,0,
2,37248, Note_off_c, 0,67,0,
2,37248, Note_off_c, 0,63,0,
2,37376, Note_off_c, 0,51,0,
2,37376, Note_on_c, 0,65,93,
2,37376, Note_on_c, 0,63,79,
2,37376, Note_on_c, 0,56,80,
2,37632, Note_on_c, 0,67,74,
2,37632, Note_off_c, 0,58,0,
2,37888, Note_off_c, 0,79,0,
2,37888, Note_off_c, 0,52,0,
2,37888, Note_on_c, 0,69,73,
2,37888, Note_on_c, 0,52,74,
2,37888, Note_on_c, 0,58,80,
2,38144, Note_on_c, 0,53,97,
2,38272, Note_off_c, 0,58,0,
2,38272, Note_on_c, 0,82,84,
2,38400, Note_off_c, 0,65,0,
2,38400, Note_off_c, 0,75,0,
2,38400, Note_off_c, 0,67,0,
2,38400, Note_off_c, 0,61,0,
2,38656, Note_off_c, 0,68,0,
2,38656, Note_on_c, 0,65,71,
2,38656, Note_on_c, 0,79,98,
2,38912, Note_off_c, 0,65,0,
2,38912, Note_off_c, 0,82,0,
2,38912, Note_off_c, 0,53,0,
2,38912, Note_off_c, 0,70,0,
2,38912, Note_on_c, 0,60,85,
2,38912, Note_on_c, 0,72,76,
2,38912, Note_on_c, 0,46,82,
2,38912, Note_on_c, 0,75,77,
2,39168, Note_off_c, 0,74,0,
2,39168, Note_on_c, 0,77,82,
2,39168, Note_on_c, 0,68,68,
2,39168, Note_off_c, 0,69,0,
2,39168, Note_on_c, 0,65,76,
2,39168, Note_off_c, 0,62,0,
2,39296, Note_off_c, 0,49,0,
2,39296, Note_off_c, 0,60,0,
2,39296, Note_on_c, 0,74,73,
2,39296, Note_on_c, 0,62,78,
2,39424, Note_off_c, 0,63,0,
2,39424, Note_on_c, 0,63,87,
2,39424, Note_on_c, 0,58,72,
2,39424, Note_off_c, 0,46,0,
2,39424, Note_off_c, 0,56,0,
2,39680, Note_off_c, 0,62,0,
2,39680, Note_on_c, 0,60,71,
2,39680, Note_off_c, 0,74,0,
2,39680, Note_off_c, 0,65,0,
2,39680, Note_on_c, 0,74,78,
2,39680, Note_off_c, 0,52,0,
2,39680, Note_on_c, 0,55,93,
2,39936, Note_on_c, 0,48,84,
2,39936, Note_off_c, 0,48,0,
2,39936, Note_on_c, 0,65,74,
2,39936, Note_on_c, 0,69,78,
2,39936, Note_off_c, 0,79,0,
2,39936, Note_off_c, 0,74,0,
2,39936, Note_off_c, 0,58,0,
2,39936, Note_on_c, 0,67,86,
2,40192, Note_off_c, 0,77,0,
2,40192, Note_off_c, 0,60,0,
2,40192, Note_on_c, 0,58,81,
2,40192, Note_on_c, 0,70,95,
2,40192, Note_on_c, 0,77,75,
2,40192, Note_off_c, 0,65,0,
2,40320, Note_on_c, 0,65,84,
2,40320, Note_on_c, 0,74,73,
2,40320, Note_off_c, 0,65,0,
2,40320, Note_off_c, 0,58,0,
2,40448, Note_off_c, 0,74,0,
2,40448, Note_on_c, 0,79,79,
2,40448, Note_on_c, 0,62,78,
2,40448, Note_on_c, 0,41,94,
2,40448, Note_off_c, 0,67,0,
2,40704, Note_on_c, 0,50,80,
2,40704, Note_on_c, 0,61,79,
2,40704, Note_on_c, 0,53,72,
2,40704, Note_on_c, 0,58,77,
2,40704, Note_on_c, 0,57,64,
2,40960, Note_off_c, 0,63,0,
2,40960, Note_off_c, 0,61,0,
2,40960, Note_off_c, 0,68,0,
2,40960, Note_on_c, 0,67,78,
2,40960, Note_on_c, 0,74,80,
2,40960, Note_off_c, 0,62,0,
2,41216, Note_on_c, 0,65,81,
2,41216, Note_on_c, 0,82,68,
2,41216, Note_off_c, 0,70,0,
2,41216, Note_off_c, 0,67,0,
2,41216, Note_on_c, 0,67,62,
2,41216, Note_on_c, 0,70,80,
2,41216, Note_off_c, 0,58,0,
2,41216, Note_off_c, 0,75,0,
2,41344, Note_off_c, 0,70,0,
2,41344, Note_on_c, 0,51,71,
2,41344, Note_off_c, 0,74,0,
2,41344, Note_off_c, 0,65,0,
2,41472, Note_on_c, 0,74,87,
2,41472, Note_off_c, 0,57,0,
2,41472, Note_on_c, 0,70,93,
2,41472, Note_on_c, 0,58,78,
2,41472, Note_on_c, 0,80,91,
2,41472, Note_on_c, 0,62,80,
2,41728, Note_off_c, 0,58,0,
2,41728, Note_on_c, 0,58,79,
2,41728, Note_on_c, 0,61,69,
2,41728, Note_off_c, 0,58,0,
2,41728, Note_off_c, 0,67,0,
2,41728, Note_on_c, 0,46,68,
2,41984, Note_off_c, 0,74,0,
2,41984, Note_on_c, 0,75,82,
2,41984, Note_off_c, 0,41,0,
2,41984, Note_off_c, 0,77,0,
2,41984, Note_on_c, 0,52,83,
2,41984, Note_on_c, 0,60,91,
2,41984, Note_off_c, 0,79,0,
2,41984, Note_off_c, 0,80,0,
2,42240, Note_on_c, 0,65,79,
2,42240, Note_on_c, 0,77,82,
2,42240, Note_off_c, 0,77,0,
2,42240, Note_off_c, 0,69,0,
2,42240, Note_off_c, 0,84,0,
2,42240, Note_on_c, 0,79,74,
2,42368, Note_on_c, 0,69,80,
2,42368, Note_off_c, 0,65,0,
2,42368, Note_off_c, 0,75,0,
2,42368, Note_on_c, 0,65,85,
2,42496, Note_on_c, 0,58,87,
2,42496, Note_off_c, 0,58,0,
2,42496, Note_off_c, 0,60,0,
2,42496, Note_off_c, 0,70,0,
2,42496, Note_off_c, 0,72,0,
2,42752, Note_on_c, 0,72,80,
2,42752, Note_off_c, 0,53,0,
2,42752, Note_off_c, 0,79,0,
2,42752, Note_on_c, 0,63,79,
2,42752, Note_on_c, 0,75,75,
2,43008, Note_off_c, 0,65,0,
2,43008, Note_on_c, 0,48,74,
2,43008, Note_on_c, 0,70,72,
2,43008, Note_on_c, 0,79,70,
2,43008, Note_off_c, 0,62,0,
2,43008, Note_off_c, 0,82,0,
2,43264, Note_on_c, 0,67,85,
2,43264, Note_on_c, 0,65,78,
2,43264, Note_off_c, 0,75,0,
2,43264, Note_on_c, 0,77,77,
2,43264, Note_off_c, 0,70,0,
2,43264, Note_on_c, 0,58,74,
2,43264, Note_on_c, 0,74,72,
2,43264, Note_on_c, 0,75,77,
2,43392, Note_off_c, 0,69,0,
2,43392, Note_off_c, 0,63,0,
2,43392, Note_off_c, 0,51,0,
2,43392, Note_off_c, 0,65,0,
2,43520, Note_off_c, 0,72,0,
2,43520, Note_on_c, 0,68,78,
2,43520, Note_on_c, 0,53,87,
2,43520, Note_on_c, 0,80,86,
2,43520, Note_off_c, 0,68,0,
2,43520, Note_off_c, 0,79,0,
2,43520, Note_off_c, 0,77,0,
2,43648, Note_on_c, 0,77,83,
2,43776, Note_off_c, 0,75,0,
2,43776, Note_on_c, 0,65,80,
2,43776, Note_off_c, 0,67,0,
2,43776, Note_on_c, 0,75,94,
2,43776, Note_off_c, 0,58,0,
2,43776, Note_on_c, 0,63,79,
2,43776, Note_off_c, 0,65,0,
2,43904, Note_on_c, 0,65,71,
2,43904, Note_on_c, 0,84,74,
2,44032, Note_off_c, 0,65,0,
2,44032, Note_off_c, 0,63,0,
2,44032, Note_off_c, 0,50,0,
2,44032, Note_on_c, 0,69,64,
2,44032, Note_on_c, 0,70,67,
2,44032, Note_on_c, 0,58,80,
2,44288, Note_on_c, 0,67,78,
2,44288, Note_on_c, 0,65,72,
2,44288, Note_off_c, 0,55,0,
2,44288, Note_off_c, 0,77,0,
2,44288, Note_off_c, 0,75,0,
2,44288, Note_off_c, 0,61,0,
2,44416, Note_on_c, 0,75,69,
2,44416, Note_off_c, 0,67,0,
2,44416, Note_on_c, 0,82,85,
2,44416, Note_off_c, 0,74,0,
2,44544, Note_on_c, 0,60,79,
2,44544, Note_off_c, 0,58,0,
2,44544, Note_on_c, 0,57,82,
2,44544, Note_on_c, 0,68,85,
2,44544, Note_on_c, 0,74,97,
2,44544, Note_off_c, 0,68,0,
2,44672, Note_off_c, 0,60,0,
2,44672, Note_on_c, 0,77,80,
2,44800, Note_on_c, 0,50,88,
2,44800, Note_off_c, 0,48,0,
2,44800, Note_off_c, 0,70,0,
2,44800, Note_on_c, 0,58,72,
2,44800, Note_on_c, 0,60,75,
2,44800, Note_on_c, 0,79,73,
2,44928, Note_on_c, 0,44,73,
2,44928, Note_off_c, 0,46,0,
2,45056, Note_on_c, 0,70,80,
2,45056, Note_off_c, 0,57,0,
2,45056, Note_on_c, 0,55,69,
2,45056, Note_off_c, 0,74,0,
2,45056, Note_on_c, 0,68,69,
2,45312, Note_on_c, 0,56,74,
2,45312, Note_on_c, 0,51,77,
2,45312, Note_on_c, 0,63,86,
2,45440, Note_on_c, 0,62,78,
2,45440, Note_off_c, 0,58,0,
2,45568, Note_off_c, 0,56,0,
2,45568, Note_on_c, 0,56,77,
2,45568, Note_on_c, 0,49,79,
2,45568, Note_on_c, 0,74,80,
2,45696, Note_on_c, 0,72,76,
2,45696, Note_off_c, 0,63,0,
2,45824, Note_off_c, 0,56,0,
2,45824, Note_on_c, 0,48,67,
2,45824, Note_off_c, 0,68,0,
2,45824, Note_off_c, 0,72,0,
2,45952, Note_off_c, 0,53,0,
2,45952, Note_off_c, 0,62,0,
2,45952, Note_on_c, 0,53,80,
2,45952, Note_off_c, 0,77,0,
2,46080, Note_on_c, 0,62,69,
2,46080, Note_on_c, 0,68,78,
2,46080, Note_off_c, 0,65,0,
2,46080, Note_off_c, 0,68,0,
2,46336, Note_on_c, 0,68,85,
2,46336, Note_off_c, 0,53,0,
2,46592, Note_off_c, 0,74,0,
2,46592, Note_on_c, 0,72,84,
2,46592, Note_off_c, 0,72,0,
2,46592, Note_off_c, 0,70,0,
2,46720, Note_on_c, 0,67,85,
2,46720, Note_off_c, 0,75,0,
2,46848, Note_on_c, 0,65,89,
2,46848, Note_on_c, 0,75,81,
2,46976, Note_on_c, 0,63,72,
2,46976, Note_off_c, 0,51,0,
2,47104, Note_off_c, 0,75,0,
2,47104, Note_on_c, 0,58,93,
2,47232, Note_off_c, 0,60,0,
2,47232, Note_on_c, 0,75,78,
2,47360, Note_off_c, 0,55,0,
2,47360, Note_off_c, 0,68,0,
2,47360, Note_on_c, 0,51,77,
2,47360, Note_off_c, 0,62,0,
2,47488, Note_on_c, 0,60,72,
2,47488, Note_on_c, 0,55,69,
2,47616, Note_off_c, 0,63,0,
2,47616, Note_off_c, 0,50,0,
2,47616, Note_on_c, 0,70,72,
2,47616, Note_off_c, 0,60,0,
2,47744, Note_off_c, 0,55,0,
2,47744, Note_on_c, 0,53,79,
2,47872, Note_off_c, 0,75,0,
2,47872, Note_on_c, 0,46,77,
2,47872, Note_on_c, 0,60,73,
2,47872, Note_on_c, 0,74,77,
2,48000, Note_off_c, 0,67,0,
2,48000, Note_off_c, 0,58,0,
2,48128, Note_on_c, 0,58,75,
2,48128, Note_on_c, 0,57,75,
2,48128, Note_on_c, 0,62,89,
2,48128, Note_on_c, 0,75,87,
2,48384, Note_off_c, 0,48,0,
2,48384, Note_on_c, 0,45,77,
2,48640, Note_off_c, 0,62,0,
2,48640, Note_off_c, 0,45,0,
2,48640, Note_on_c, 0,62,77,
2,48640, Note_off_c, 0,60,0,
2,48768, Note_off_c, 0,69,0,
2,48768, Note_off_c, 0,53,0,
2,48896, Note_on_c, 0,68,79,
2,48896, Note_on_c, 0,67,75,
2,49024, Note_off_c, 0,58,0,
2,49024, Note_off_c, 0,43,0,
2,49152, Note_on_c, 0,77,70,
2,49152, Note_on_c, 0,50,85,
2,49280, Note_off_c, 0,80,0,
2,49280, Note_on_c, 0,63,88,
2,49408, Note_off_c, 0,75,0,
2,49408, Note_off_c, 0,46,0,
2,49408, Note_on_c, 0,58,78,
2,49408, Note_on_c, 0,48,81,
2,49536, Note_off_c, 0,70,0,
2,49536, Note_off_c, 0,74,0,
2,49664, Note_on_c, 0,46,78,
2,49664, Note_off_c, 0,79,0,
2,49664, Note_on_c, 0,79,72,
2,49664, Note_on_c, 0,80,73,
2,49792, Note_off_c, 0,46,0,
2,49792, Note_off_c, 0,67,0,
2,49920, Note_on_c, 0,53,74,
2,49920, Note_off_c, 0,65,0,
2,49920, Note_off_c, 0,63,0,
2,49920, Note_off_c, 0,48,0,
2,50048, Note_off_c, 0,62,0,
2,50048, Note_on_c, 0,72,69,
2,50176, Note_on_c, 0,55,72,
2,50176, Note_on_c, 0,75,77,
2,50176, Note_off_c, 0,77,0,
2,50176, Note_on_c, 0,70,71,
2,50432, Note_on_c, 0,60,68,
2,50432, Note_off_c, 0,58,0,
2,50688, Note_on_c, 0,77,83,
2,50688, Note_off_c, 0,77,0,
2,50688, Note_off_c, 0,60,0,
2,50688, Note_off_c, 0,53,0,
2,50816, Note_on_c, 0,65,84,
2,50816, Note_on_c, 0,77,81,
2,50944, Note_off_c, 0,65,0,
2,50944, Note_on_c, 0,63,93,
2,51072, Note_off_c, 0,70,0,
2,51072, Note_on_c, 0,69,81,
2,51200, Note_on_c, 0,61,77,
2,51200, Note_off_c, 0,63,0,
2,51328, Note_on_c, 0,60,86,
2,51328, Note_on_c, 0,74,94,
2,51456, Note_off_c, 0,77,0,
2,51456, Note_on_c, 0,70,83,
2,51456, Note_off_c, 0,50,0,
2,51456, Note_on_c, 0,67,77,
2,51584, Note_off_c, 0,55,0,
2,51584, Note_on_c, 0,63,72,
2,51712, Note_off_c, 0,75,0,
2,51712, Note_on_c, 0,62,79,
2,51712, Note_on_c, 0,71,77,
2,51712, Note_on_c, 0,53,87,
2,51840, Note_on_c, 0,50,73,
2,51840, Note_off_c, 0,74,0,
2,51968, Note_off_c, 0,70,0,
2,51968, Note_off_c, 0,80,0,
2,51968, Note_off_c, 0,51,0,
2,51968, Note_on_c, 0,65,73,
2,52096, Note_on_c, 0,70,81,
2,52096, Note_off_c, 0,57,0,
2,52224, Note_off_c, 0,71,0,
2,52224, Note_off_c, 0,72,0,
2,52224, Note_off_c, 0,79,0,
2,52224, Note_on_c, 0,58,71,
2,52480, Note_off_c, 0,67,0,
2,52480, Note_on_c, 0,75,73,
2,52736, Note_off_c, 0,75,0,
2,52736, Note_on_c, 0,77,96,
2,52736, Note_on_c, 0,46,70,
2,52736, Note_off_c, 0,46,0,
2,52864, Note_on_c, 0,76,73,
2,52864, Note_off_c, 0,53,0,
2,52992, Note_on_c, 0,75,77,
2,52992, Note_off_c, 0,62,0,
2,53120, Note_off_c, 0,75,0,
2,53120, Note_on_c, 0,62,80,
2,53248, Note_on_c, 0,53,67,
2,53248, Note_on_c, 0,48,86,
2,53376, Note_off_c, 0,63,0,
2,53376, Note_off_c, 0,77,0,
2,53504, Note_on_c, 0,56,81,
2,53504, Note_off_c, 0,58,0,
2,53504, Note_off_c, 0,62,0,
2,53504, Note_off_c, 0,56,0,
2,53632, Note_off_c, 0,60,0,
2,53632, Note_on_c, 0,55,77,
2,53760, Note_off_c, 0,55,0,
2,53760, Note_on_c, 0,66,81,
2,53760, Note_off_c, 0,65,0,
2,53760, Note_on_c, 0,58,75,
2,53888, Note_off_c, 0,58,0,
2,54016, Note_on_c, 0,60,72,
2,54016, Note_on_c, 0,63,74,
2,54016, Note_on_c, 0,72,73,
2,54016, Note_on_c, 0,55,73,
2,54144, Note_off_c, 0,55,0,
2,54144, Note_on_c, 0,67,73,
2,54272, Note_off_c, 0,63,0,
2,54272, Note_off_c, 0,70,0,
2,54272, Note_on_c, 0,62,77,
2,54272, Note_on_c, 0,55,92,
2,54272, Note_on_c, 0,75,81,
2,54272, Note_on_c, 0,58,80,
2,54528, Note_off_c, 0,58,0,
2,54528, Note_on_c, 0,70,77,
2,54528, Note_on_c, 0,56,76,
2,54528, Note_off_c, 0,55,0,
2,54528, Note_off_c, 0,70,0,
2,54528, Note_on_c, 0,70,77,
2,54784, Note_on_c, 0,57,74,
2,54784, Note_on_c, 0,58,69,
2,54784, Note_on_c, 0,55,78,
2,54784, Note_off_c, 0,56,0,
2,54784, Note_on_c, 0,63,79,
2,55040, Note_off_c, 0,58,0,
2,55040, Note_on_c, 0,74,80,
2,55040, Note_off_c, 0,55,0,
2,55040, Note_off_c, 0,75,0,
2,55040, Note_on_c, 0,58,77,
2,55296, Note_off_c, 0,74,0,
2,55296, Note_off_c, 0,52,0,
2,55296, Note_on_c, 0,75,79,
2,55296, Note_off_c, 0,72,0,
2,55296, Note_on_c, 0,77,69,
2,55296, Note_off_c, 0,53,0,
2,55552, Note_off_c, 0,67,0,
2,55552, Note_off_c, 0,75,0,
2,55552, Note_on_c, 0,53,85,
2,55552, Note_off_c, 0,77,0,
2,55680, Note_on_c, 0,65,87,
2,55680, Note_on_c, 0,51,81,
2,55808, Note_off_c, 0,61,0,
2,55808, Note_off_c, 0,84,0,
2,55808, Note_on_c, 0,56,79,
2,55936, Note_on_c, 0,71,77,
2,55936, Note_off_c, 0,62,0,
2,56064, Note_off_c, 0,51,0,
2,56064, Note_on_c, 0,75,77,
2,56064, Note_off_c, 0,53,0,
2,56064, Note_off_c, 0,68,0,
2,56192, Note_on_c, 0,53,74,
2,56192, Note_on_c, 0,67,79,
2,56320, Note_on_c, 0,68,77,
2,56320, Note_off_c, 0,63,0,
2,56320, Note_off_c, 0,48,0,
2,56320, Note_off_c, 0,67,0,
2,56576, Note_on_c, 0,48,72,
2,56576, Note_off_c, 0,75,0,
2,56576, Note_off_c, 0,58,0,
2,56576, Note_on_c, 0,51,79,
2,56704, Note_on_c, 0,77,80,
2,56704, Note_off_c, 0,51,0,
2,56832, Note_off_c, 0,70,0,
2,56832, Note_on_c, 0,51,85,
2,56832, Note_off_c, 0,69,0,
2,56832, Note_off_c, 0,65,0,
2,56960, Note_on_c, 0,43,93,
2,56960, Note_off_c, 0,77,0,
2,57088, Note_on_c, 0,77,87,
2,57088, Note_off_c, 0,60,0,
2,57088, Note_on_c, 0,60,76,
2,57088, Note_on_c, 0,63,84,
2,57088, Note_on_c, 0,79,91,
2,57088, Note_on_c, 0,62,79,
2,57216, Note_on_c, 0,58,75,
2,57216, Note_off_c, 0,56,0,
2,57344, Note_off_c, 0,51,0,
2,57344, Note_on_c, 0,74,74,
2,57344, Note_on_c, 0,51,80,
2,57344, Note_on_c, 0,65,74,
2,57344, Note_on_c, 0,55,86,
2,57344, Note_off_c, 0,63,0,
2,57600, Note_off_c, 0,51,0,
2,57600, Note_off_c, 0,58,0,
2,57600, Note_on_c, 0,56,91,
2,57600, Note_on_c, 0,58,67,
2,57728, Note_on_c, 0,51,77,
2,57728, Note_off_c, 0,55,0,
2,57856, Note_off_c, 0,50,0,
2,57856, Note_on_c, 0,63,70,
2,57984, Note_off_c, 0,58,0,
2,57984, Note_on_c, 0,67,87,
2,58112, Note_off_c, 0,65,0,
2,58112, Note_on_c, 0,50,74,
2,58112, Note_on_c, 0,55,81,
2,58112, Note_off_c, 0,51,0,
2,58112, Note_on_c, 0,70,77,
2,58112, Note_on_c, 0,58,68,
2,58240, Note_off_c, 0,74,0,
2,58240, Note_on_c, 0,69,80,
2,58368, Note_on_c, 0,65,76,
2,58368, Note_off_c, 0,60,0,
2,58368, Note_off_c, 0,69,0,
2,58368, Note_off_c, 0,67,0,
2,58368, Note_on_c, 0,60,82,
2,58368, Note_off_c, 0,50,0,
2,58496, Note_off_c, 0,63,0,
2,58496, Note_off_c, 0,70,0,
2,58624, Note_off_c, 0,60,0,
2,58624, Note_off_c, 0,77,0,
2,58624, Note_on_c, 0,70,84,
2,58624, Note_off_c, 0,65,0,
2,58624, Note_on_c, 0,65,82,
2,58624, Note_on_c, 0,72,77,
2,58752, Note_off_c, 0,68,0,
2,58752, Note_on_c, 0,75,73,
2,58752, Note_on_c, 0,67,81,
2,58752, Note_off_c, 0,72,0,
2,58880, Note_off_c, 0,62,0,
2,58880, Note_on_c, 0,62,93,
2,58880, Note_off_c, 0,62,0,
2,58880, Note_on_c, 0,62,78,
2,59136, Note_off_c, 0,75,0,
2,59136, Note_off_c, 0,65,0,
2,59136, Note_on_c, 0,60,71,
2,59136, Note_off_c, 0,62,0,
2,59392, Note_on_c, 0,62,90,
2,59392, Note_off_c, 0,62,0,
2,59392, Note_off_c, 0,56,0,
2,59392, Note_off_c, 0,58,0,
2,59392, Note_off_c, 0,67,0,
2,59392, Note_off_c, 0,43,0,
2,59392, Note_on_c, 0,65,77,
2,59648, Note_on_c, 0,56,70,
2,59648, Note_off_c, 0,53,0,
2,59648, Note_on_c, 0,67,79,
2,59648, Note_on_c, 0,51,78,
2,59776, Note_off_c, 0,56,0,
2,59776, Note_on_c, 0,63,79,
2,59776, Note_off_c, 0,55,0,
2,59776, Note_off_c, 0,65,0,
2,59904, Note_on_c, 0,58,84,
2,59904, Note_on_c, 0,53,72,
2,59904, Note_off_c, 0,58,0,
2,59904, Note_off_c, 0,63,0,
2,59904, Note_off_c, 0,67,0,
2,59904, Note_on_c, 0,56,83,
2,60160, Note_off_c, 0,56,0,
2,60160, Note_on_c, 0,55,80,
2,60160, Note_on_c, 0,65,86,
2,60160, Note_off_c, 0,53,0,
2,60288, Note_off_c, 0,60,0,
2,60288, Note_on_c, 0,53,75,
2,60288, Note_off_c, 0,51,0,
2,60288, Note_on_c, 0,39,80,
2,60416, Note_on_c, 0,56,87,
2,60416, Note_on_c, 0,51,80,
2,60416, Note_off_c, 0,65,0,
2,60416, Note_on_c, 0,50,78,
2,60416, Note_off_c, 0,51,0,
2,60416, Note_on_c, 0,67,92,
2,60416, Note_on_c, 0,51,71,
2,60416, Note_off_c, 0,51,0,
2,60672, Note_off_c, 0,67,0,
2,60672, Note_on_c, 0,51,75,
2,60672, Note_off_c, 0,55,0,
2,60672, Note_off_c, 0,56,0,
2,60800, Note_on_c, 0,56,77,
2,60800, Note_on_c, 0,67,83,
2,60800, Note_off_c, 0,50,0,
2,60800, Note_on_c, 0,58,91,
2,60928, Note_off_c, 0,56,0,
2,60928, Note_off_c, 0,67,0,
2,60928, Note_off_c, 0,53,0,
2,60928, Note_off_c, 0,51,0,
2,60928, Note_on_c, 0,67,72,
2,61184, Note_off_c, 0,48,0,
2,61184, Note_on_c, 0,50,72,
2,61184, Note_on_c, 0,53,80,
2,61184, Note_on_c, 0,61,85,
2,61184, Note_on_c, 0,68,78,
2,61312, Note_on_c, 0,52,77,
2,61312, Note_off_c, 0,58,0,
2,61440, Note_on_c, 0,69,90,
2,61440, Note_on_c, 0,84,84,
2,61440, Note_on_c, 0,77,73,
2,61440, Note_off_c, 0,77,0,
2,61440, Note_on_c, 0,77,71,
2,61440, Note_off_c, 0,67,0,
2,61440, Note_on_c, 0,67,84,
2,61440, Note_off_c, 0,61,0,
2,61696, Note_on_c, 0,75,87,
2,61696, Note_on_c, 0,72,91,
2,61696, Note_on_c, 0,41,92,
2,61696, Note_on_c, 0,65,86,
2,61696, Note_off_c, 0,44,0,
2,61696, Note_on_c, 0,55,77,
2,61824, Note_off_c, 0,70,0,
2,61824, Note_on_c, 0,58,74,
2,61824, Note_on_c, 0,63,77,
2,61824, Note_on_c, 0,62,82,
2,61952, Note_off_c, 0,53,0,
2,61952, Note_off_c, 0,55,0,
2,61952, Note_off_c, 0,50,0,
2,61952, Note_off_c, 0,62,0,
2,61952, Note_on_c, 0,74,88,
2,62208, Note_on_c, 0,70,81,
2,62208, Note_on_c, 0,62,92,
2,62208, Note_on_c, 0,56,85,
2,62208, Note_off_c, 0,70,0,
2,62208, Note_off_c, 0,56,0,
2,62208, Note_off_c, 0,65,0,
2,62208, Note_off_c, 0,58,0,
2,62464, Note_on_c, 0,58,67,
2,62464, Note_on_c, 0,51,86,
2,62464, Note_off_c, 0,67,0,
2,62464, Note_off_c, 0,49,0,
2,62464, Note_off_c, 0,63,0,
2,62464, Note_on_c, 0,67,86,
2,62464, Note_on_c, 0,60,76,
2,62720, Note_on_c, 0,70,78,
2,62720, Note_on_c, 0,65,66,
2,62720, Note_on_c, 0,53,84,
2,62720, Note_off_c, 0,51,0,
2,62720, Note_on_c, 0,49,87,
2,62720, Note_off_c, 0,70,0,
2,62720, Note_on_c, 0,48,82,
2,62848, Note_on_c, 0,43,85,
2,62848, Note_off_c, 0,68,0,
2,62976, Note_on_c, 0,51,59,
2,62976, Note_off_c, 0,72,0,
2,62976, Note_off_c, 0,65,0,
2,62976, Note_off_c, 0,67,0,
2,62976, Note_off_c, 0,60,0,
2,62976, Note_on_c, 0,65,83,
2,63232, Note_on_c, 0,67,94,
2,63232, Note_on_c, 0,46,69,
2,63232, Note_on_c, 0,68,71,
2,63232, Note_off_c, 0,69,0,
2,63488, Note_off_c, 0,53,0,
2,63488, Note_on_c, 0,60,77,
2,63488, Note_off_c, 0,46,0,
2,63488, Note_off_c, 0,57,0,
2,63488, Note_off_c, 0,67,0,
2,63488, Note_off_c, 0,60,0,
2,63744, Note_on_c, 0,46,78,
2,63744, Note_off_c, 0,58,0,
2,63744, Note_off_c, 0,65,0,
2,63744, Note_on_c, 0,60,85,
2,63744, Note_on_c, 0,67,75,
2,63744, Note_off_c, 0,62,0,
2,63744, Note_on_c, 0,55,78,
2,63744, Note_on_c, 0,70,79,
2,63872, Note_off_c, 0,55,0,
2,63872, Note_off_c, 0,67,0,
2,63872, Note_on_c, 0,56,82,
2,63872, Note_on_c, 0,58,72,
2,64000, Note_on_c, 0,55,86,
2,64000, Note_on_c, 0,63,77,
2,64000, Note_off_c, 0,58,0,
2,64000, Note_off_c, 0,55,0,
2,64256, Note_off_c, 0,48,0,
2,64256, Note_on_c, 0,58,80,
2,64256, Note_off_c, 0,58,0,
2,64256, Note_on_c, 0,62,76,
2,64256, Note_on_c, 0,55,90,
2,64256, Note_off_c, 0,70,0,
2,64256, Note_off_c, 0,62,0,
2,64256, Note_on_c, 0,58,84,
2,64512, Note_off_c, 0,74,0,
2,64512, Note_on_c, 0,45,80,
2,64512, Note_on_c, 0,80,79,
2,64512, Note_off_c, 0,79,0,
2,64512, Note_off_c, 0,60,0,
2,64512, Note_off_c, 0,46,0,
2,64512, Note_off_c, 0,80,0,
2,64512, Note_off_c, 0,58,0,
2,64768, Note_off_c, 0,63,0,
2,64768, Note_on_c, 0,70,86,
2,64768, Note_off_c, 0,70,0,
2,64768, Note_on_c, 0,58,68,
2,64768, Note_on_c, 0,65,84,
2,64768, Note_on_c, 0,67,67,
2,64768, Note_on_c, 0,60,72,
2,64768, Note_off_c, 0,75,0,
2,64896, Note_on_c, 0,79,79,
2,64896, Note_on_c, 0,53,79,
2,65024, Note_off_c, 0,58,0,
2,65024, Note_off_c, 0,77,0,
2,65024, Note_on_c, 0,63,82,
2,65024, Note_off_c, 0,60,0,
2,65024, Note_on_c, 0,60,88,
2,65024, Note_off_c, 0,68,0,
2,65280, Note_on_c, 0,58,93,
2,65280, Note_off_c, 0,51,0,
2,65280, Note_on_c, 0,74,93,
2,65280, Note_off_c, 0,53,0,
2,65280, Note_on_c, 0,72,75,
2,65280, Note_on_c, 0,68,72,
2,65536, Note_off_c, 0,56,0,
2,65536, Note_on_c, 0,62,90,
2,65536, Note_on_c, 0,46,93,
2,65536, Note_on_c, 0,57,77,
2,65536, Note_off_c, 0,46,0,
2,65536, Note_off_c, 0,60,0,
2,65792, Note_off_c, 0,62,0,
2,65792, Note_on_c, 0,73,91,
2,65792, Note_on_c, 0,70,83,
2,65792, Note_off_c, 0,58,0,
2,65792, Note_off_c, 0,74,0,
2,65792, Note_off_c, 0,70,0,
2,65920, Note_on_c, 0,60,72,
2,65920, Note_on_c, 0,50,77,
2,66048, Note_on_c, 0,62,77,
2,66048, Note_on_c, 0,58,69,
2,66048, Note_off_c, 0,55,0,
2,66048, Note_off_c, 0,63,0,
2,66304, Note_off_c, 0,58,0,
2,66304, Note_off_c, 0,62,0,
2,66304, Note_on_c, 0,55,71,
2,66304, Note_on_c, 0,51,80,
2,66560, Note_on_c, 0,58,69,
2,66560, Note_on_c, 0,62,72,
2,66560, Note_on_c, 0,56,69,
2,66560, Note_on_c, 0,63,71,
2,66560, Note_off_c, 0,62,0,
2,66560, Note_off_c, 0,60,0,
2,66816, Note_off_c, 0,56,0,
2,66816, Note_off_c, 0,58,0,
2,66816, Note_off_c, 0,63,0,
2,66816, Note_off_c, 0,51,0,
2,66944, Note_off_c, 0,65,0,
2,66944, Note_on_c, 0,63,75,
2,67072, Note_off_c, 0,63,0,
2,67072, Note_on_c, 0,60,71,
2,67072, Note_on_c, 0,53,79,
2,67072, Note_on_c, 0,70,82,
2,67072, Note_on_c, 0,46,70,
2,67072, Note_off_c, 0,55,0,
2,67328, Note_on_c, 0,63,68,
2,67328, Note_off_c, 0,53,0,
2,67328, Note_off_c, 0,57,0,
2,67328, Note_on_c, 0,62,80,
2,67584, Note_off_c, 0,79,0,
2,67584, Note_off_c, 0,63,0,
2,67584, Note_on_c, 0,75,72,
2,67584, Note_on_c, 0,53,71,
2,67584, Note_on_c, 0,63,77,
2,67584, Note_off_c, 0,67,0,
2,67840, Note_on_c, 0,55,72,
2,67840, Note_on_c, 0,56,76,
2,67840, Note_off_c, 0,75,0,
2,67840, Note_off_c, 0,68,0,
2,67968, Note_on_c, 0,68,81,
2,67968, Note_on_c, 0,58,78,
2,67968, Note_off_c, 0,62,0,
2,67968, Note_off_c, 0,60,0,
2,68096, Note_on_c, 0,77,81,
2,68096, Note_on_c, 0,67,87,
2,68096, Note_off_c, 0,63,0,
2,68096, Note_on_c, 0,62,74,
2,68352, Note_off_c, 0,72,0,
2,68352, Note_off_c, 0,62,0,
2,68352, Note_off_c, 0,49,0,
2,68352, Note_on_c, 0,65,72,
2,68480, Note_off_c, 0,65,0,
2,68480, Note_off_c, 0,58,0,
2,68608, Note_on_c, 0,63,76,
2,68608, Note_on_c, 0,58,75,
2,68608, Note_off_c, 0,58,0,
2,68608, Note_on_c, 0,72,80,
2,68608, Note_on_c, 0,62,74,
2,68608, Note_on_c, 0,60,71,
2,68864, Note_off_c, 0,63,0,
2,68864, Note_off_c, 0,60,0,
2,69120, Note_on_c, 0,75,73,
2,69120, Note_off_c, 0,53,0,
2,69120, Note_off_c, 0,62,0,
2,69120, Note_on_c, 0,53,81,
2,69120, Note_on_c, 0,63,82,
2,69120, Note_off_c, 0,72,0,
2,69120, Note_off_c, 0,68,0,
2,69376, Note_off_c, 0,70,0,
2,69632, Note_off_c, 0,63,0,
2,69632, Note_off_c, 0,56,0,
2,69632, Note_on_c, 0,60,70,
2,69632, Note_on_c, 0,62,77,
2,69632, Note_off_c, 0,62,0,
2,69632, Note_off_c, 0,77,0,
2,69888, Note_on_c, 0,58,78,
2,69888, Note_on_c, 0,65,79,
2,70016, Note_off_c, 0,58,0,
2,70016, Note_off_c, 0,53,0,
2,70144, Note_off_c, 0,67,0,
2,70144, Note_off_c, 0,55,0,
2,70144, Note_on_c, 0,58,82,
2,70144, Note_off_c, 0,58,0,
2,70400, Note_on_c, 0,55,80,
2,70400, Note_on_c, 0,53,82,
2,70656, Note_off_c, 0,55,0,
2,70656, Note_on_c, 0,56,70,
2,70656, Note_off_c, 0,56,0,
2,70656, Note_on_c, 0,55,87,
2,70656, Note_on_c, 0,63,90,
2,70656, Note_off_c, 0,55,0,
2,70656, Note_on_c, 0,55,77,
2,70656, Note_on_c, 0,51,67,
2,72192, Note_on_c, 0,56,84,
2,72192, Note_on_c, 0,58,68,
2,72192, Note_on_c, 0,62,69,
2,72192, Note_off_c, 0,65,0,
2, 72193, End_track,,,,
0, 0, End_of_file,,,,
