0, 0, Header, 1, 2, 256,
1, 0, Start_track,,,,
1, 0, Time_signature, 4, 2, 24, 8
1, 0, Key_signature, 0," ""major""",,
1, 0, Tempo, 631577,,,
1, 0, Title_t," ""Greensleeves""",,,
1, 0, Text_t," ""Traditional""",,,
1, 0, Copyright_t," ""Jim Paterson""",,,
1, 1, End_track,,,,
2, 0, Start_track,,,,
2, 0, Program_c, 0, 0,,
2, 0, Control_c, 0, 121, 0,
2, 0, Control_c, 0, 64, 0,
2, 0, Control_c, 0, 10, 63,
2, 0, Control_c, 0, 7, 95,
2,0, Note_on_c, 0,67,77,
2,0, Note_on_c, 0,60,63,
2, 0, Control_c, 0, 121, 0,
2, 0, Control_c, 0, 64, 0,
2, 0, Control_c, 0, 10, 63,
2, 0, Control_c, 0, 7, 95,
2, 0, Title_t," ""Piano""",,,
2,0, Note_on_c, 0,48,64,
2,244, Note_on_c, 0,69,84,
2,256, Note_off_c, 0,67,0,
2,487, Note_on_c, 0,55,88,
2,487, Note_off_c, 0,48,0,
2,500, Note_on_c, 0,67,78,
2,512, Note_on_c, 0,64,73,
2,512, Note_on_c, 0,41,83,
2,512, Note_on_c, 0,48,89,
2,756, Note_off_c, 0,64,0,
2,768, Note_off_c, 0,60,0,
2,999, Note_off_c, 0,41,0,
2,999, Note_on_c, 0,65,74,
2,1012, Note_on_c, 0,64,66,
2,1024, Note_off_c, 0,67,0,
2,1024, Note_on_c, 0,60,80,
2,1024, Note_on_c, 0,41,83,
2,1268, Note_off_c, 0,65,0,
2,1280, Note_off_c, 0,64,0,
2,1511, Note_on_c, 0,67,75,
2,1511, Note_off_c, 0,60,0,
2,1524, Note_on_c, 0,43,72,
2,1536, Note_off_c, 0,69,0,
2,1536, Note_off_c, 0,41,0,
2,1536, Note_off_c, 0,48,0,
2,2023, Note_on_c, 0,64,78,
2,2023, Note_off_c, 0,55,0,
2,2023, Note_on_c, 0,65,73,
2,2048, Note_off_c, 0,67,0,
2,2048, Note_on_c, 0,67,67,
2,2048, Note_on_c, 0,41,83,
2,2292, Note_on_c, 0,48,83,
2,2304, Note_off_c, 0,65,0,
2,2535, Note_on_c, 0,60,71,
2,2535, Note_on_c, 0,55,74,
2,2548, Note_off_c, 0,48,0,
2,2560, Note_off_c, 0,67,0,
2,2560, Note_off_c, 0,55,0,
2,2560, Note_on_c, 0,65,82,
2,2804, Note_on_c, 0,67,83,
2,2816, Note_off_c, 0,67,0,
2,3047, Note_on_c, 0,52,74,
2,3047, Note_off_c, 0,43,0,
2,3060, Note_off_c, 0,64,0,
2,3072, Note_on_c, 0,57,68,
2,3072, Note_on_c, 0,55,79,
2,3072, Note_on_c, 0,48,83,
2,3316, Note_on_c, 0,62,74,
2,3328, Note_on_c, 0,67,72,
2,3559, Note_off_c, 0,41,0,
2,3559, Note_on_c, 0,43,89,
2,3572, Note_off_c, 0,60,0,
2,3584, Note_off_c, 0,67,0,
2,3584, Note_off_c, 0,55,0,
2,3584, Note_off_c, 0,65,0,
2,4071, Note_on_c, 0,64,86,
2,4071, Note_on_c, 0,55,75,
2,4071, Note_off_c, 0,43,0,
2,4096, Note_off_c, 0,62,0,
2,4096, Note_off_c, 0,55,0,
2,4096, Note_on_c, 0,43,77,
2,4340, Note_on_c, 0,67,82,
2,4352, Note_off_c, 0,57,0,
2,4583, Note_on_c, 0,55,77,
2,4583, Note_off_c, 0,48,0,
2,4596, Note_off_c, 0,64,0,
2,4608, Note_on_c, 0,64,68,
2,4608, Note_off_c, 0,67,0,
2,4608, Note_off_c, 0,55,0,
2,4852, Note_off_c, 0,43,0,
2,4864, Note_on_c, 0,65,76,
2,5095, Note_on_c, 0,62,84,
2,5095, Note_on_c, 0,41,77,
2,5108, Note_on_c, 0,48,70,
2,5120, Note_off_c, 0,62,0,
2,5120, Note_off_c, 0,41,0,
2,5120, Note_on_c, 0,43,76,
2,5364, Note_off_c, 0,65,0,
2,5376, Note_on_c, 0,67,86,
2,5607, Note_on_c, 0,55,74,
2,5607, Note_on_c, 0,69,67,
2,5620, Note_off_c, 0,67,0,
2,5632, Note_off_c, 0,64,0,
2,5632, Note_off_c, 0,55,0,
2,5632, Note_off_c, 0,43,0,
2,6119, Note_on_c, 0,67,82,
2,6119, Note_on_c, 0,60,85,
2,6119, Note_off_c, 0,48,0,
2,6144, Note_off_c, 0,67,0,
2,6144, Note_off_c, 0,60,0,
2,6144, Note_on_c, 0,48,73,
2,6388, Note_on_c, 0,65,77,
2,6400, Note_on_c, 0,62,86,
2,6631, Note_on_c, 0,55,79,
2,6631, Note_off_c, 0,48,0,
2,6644, Note_on_c, 0,67,69,
2,6656, Note_on_c, 0,64,73,
2,6656, Note_off_c, 0,64,0,
2,6656, Note_off_c, 0,55,0,
2,6900, Note_on_c, 0,48,85,
2,6912, Note_off_c, 0,65,0,
2,7143, Note_off_c, 0,67,0,
2,7143, Note_off_c, 0,52,0,
2,7156, Note_on_c, 0,43,79,
2,7168, Note_on_c, 0,67,68,
2,7168, Note_on_c, 0,52,78,
2,7168, Note_off_c, 0,48,0,
2,7412, Note_on_c, 0,65,84,
2,7424, Note_off_c, 0,67,0,
2,7655, Note_on_c, 0,55,77,
2,7655, Note_off_c, 0,43,0,
2,7668, Note_off_c, 0,65,0,
2,7680, Note_on_c, 0,67,69,
2,7680, Note_on_c, 0,41,74,
2,7680, Note_on_c, 0,48,77,
2,8167, Note_on_c, 0,57,69,
2,8167, Note_off_c, 0,52,0,
2,8167, Note_on_c, 0,65,79,
2,8192, Note_off_c, 0,67,0,
2,8192, Note_on_c, 0,60,84,
2,8192, Note_off_c, 0,48,0,
2,8436, Note_on_c, 0,64,85,
2,8448, Note_off_c, 0,62,0,
2,8679, Note_off_c, 0,60,0,
2,8679, Note_off_c, 0,65,0,
2,8692, Note_on_c, 0,62,80,
2,8704, Note_off_c, 0,57,0,
2,8704, Note_on_c, 0,60,76,
2,8704, Note_on_c, 0,48,82,
2,8948, Note_off_c, 0,69,0,
2,8960, Note_on_c, 0,69,85,
2,9191, Note_on_c, 0,52,67,
2,9191, Note_off_c, 0,48,0,
2,9204, Note_on_c, 0,65,71,
2,9216, Note_off_c, 0,60,0,
2,9216, Note_off_c, 0,64,0,
2,9216, Note_off_c, 0,55,0,
2,9460, Note_on_c, 0,43,81,
2,9472, Note_on_c, 0,64,79,
2,9703, Note_off_c, 0,62,0,
2,9703, Note_on_c, 0,55,70,
2,9716, Note_on_c, 0,48,77,
2,9728, Note_off_c, 0,69,0,
2,9728, Note_off_c, 0,55,0,
2,9728, Note_off_c, 0,43,0,
2,10215, Note_on_c, 0,62,78,
2,10215, Note_on_c, 0,55,66,
2,10215, Note_off_c, 0,48,0,
2,10240, Note_off_c, 0,64,0,
2,10240, Note_off_c, 0,62,0,
2,10240, Note_off_c, 0,55,0,
2,10484, Note_on_c, 0,43,73,
2,10496, Note_on_c, 0,64,82,
2,10727, Note_on_c, 0,62,78,
2,10727, Note_off_c, 0,41,0,
2,10740, Note_on_c, 0,48,72,
2,10752, Note_off_c, 0,64,0,
2,10752, Note_off_c, 0,52,0,
2,10752, Note_off_c, 0,43,0,
2,10996, Note_on_c, 0,67,76,
2,11008, Note_on_c, 0,57,84,
2,11239, Note_on_c, 0,55,82,
2,11239, Note_on_c, 0,43,69,
2,11252, Note_off_c, 0,67,0,
2,11264, Note_on_c, 0,67,72,
2,11264, Note_off_c, 0,55,0,
2,11264, Note_off_c, 0,43,0,
2,11508, Note_on_c, 0,60,81,
2,11520, Note_off_c, 0,67,0,
2,11751, Note_on_c, 0,52,80,
2,11751, Note_off_c, 0,48,0,
2,11764, Note_on_c, 0,67,70,
2,11776, Note_off_c, 0,67,0,
2,11776, Note_on_c, 0,55,74,
2,11776, Note_on_c, 0,48,124,
2,12263, Note_off_c, 0,62,0,
2,12263, Note_off_c, 0,55,0,
2,12263, Note_off_c, 0,65,0,
2, 12264, End_track,,,,
0, 0, End_of_file,,,,
