0, 0, Header, 1, 2, 960,
1, 0, Start_track,,,,
1, 0, Time_signature, 6, 3, 36, 8
1, 0, Key_signature, 0," ""major""",,
1, 0, Tempo, 571428,,,
1, 0, Title_t," ""Westworld Main Theme""",,,
1, 0, Text_t," ""Ramin Djawadi""",,,
1, 0, Copyright_t," ""Copyright © Lunar Black""",,,
1, 1, End_track,,,,
2, 0, Start_track,,,,
2, 0, Program_c, 0, 0,,
2, 0, Control_c, 0, 121, 0,
2, 0, Control_c, 0, 64, 0,
2, 0, Control_c, 0, 91, 48,
2, 0, Control_c, 0, 10, 51,
2, 0, Control_c, 0, 7, 100,
2, 0, Control_c, 0, 121, 0,
2, 0, Control_c, 0, 64, 0,
2, 0, Control_c, 0, 91, 48,
2, 0, Control_c, 0, 10, 51,
2, 0, Control_c, 0, 7, 100,
2, 0, Title_t," ""Piano""",,,
2,0, Note_on_c, 0,33,70,
2,0, Note_on_c, 0,76,72,
2,480, Note_off_c, 0,33,0,
2,480, Note_on_c, 0,45,77,
2,960, Note_off_c, 0,45,0,
2,960, Note_on_c, 0,62,72,
2,1440, Note_on_c, 0,45,75,
2,1440, Note_off_c, 0,45,0,
2,1920, Note_on_c, 0,53,79,
2,1920, Note_on_c, 0,45,76,
2,2400, Note_off_c, 0,45,0,
2,2400, Note_on_c, 0,45,73,
2,2880, Note_off_c, 0,45,0,
2,2880, Note_on_c, 0,45,78,
2,2880, Note_off_c, 0,45,0,
2,2880, Note_off_c, 0,62,0,
2,3360, Note_on_c, 0,33,74,
2,3360, Note_on_c, 0,45,79,
2,3840, Note_off_c, 0,45,0,
2,3840, Note_on_c, 0,62,78,
2,4320, Note_on_c, 0,45,73,
2,4320, Note_on_c, 0,50,74,
2,4800, Note_off_c, 0,45,0,
2,4800, Note_on_c, 0,45,75,
2,5280, Note_off_c, 0,45,0,
2,5280, Note_off_c, 0,33,0,
2,5280, Note_off_c, 0,50,0,
2,5280, Note_on_c, 0,64,74,
2,5760, Note_on_c, 0,43,72,
2,5760, Note_on_c, 0,60,79,
2,5760, Note_on_c, 0,93,75,
2,5760, Note_on_c, 0,41,78,
2,6240, Note_on_c, 0,77,80,
2,6240, Note_off_c, 0,77,0,
2,6720, Note_on_c, 0,29,75,
2,6720, Note_on_c, 0,50,77,
2,7200, Note_off_c, 0,41,0,
2,7200, Note_on_c, 0,65,74,
2,7680, Note_off_c, 0,64,0,
2,7680, Note_off_c, 0,65,0,
2,8160, Note_on_c, 0,41,72,
2,8160, Note_on_c, 0,56,75,
2,8640, Note_off_c, 0,41,0,
2,8640, Note_on_c, 0,41,76,
2,8640, Note_on_c, 0,57,75,
2,8640, Note_off_c, 0,76,0,
2,9120, Note_off_c, 0,93,0,
2,9120, Note_on_c, 0,52,73,
2,9600, Note_off_c, 0,29,0,
2,9600, Note_off_c, 0,41,0,
2,10080, Note_on_c, 0,76,71,
2,10080, Note_off_c, 0,50,0,
2,10560, Note_on_c, 0,65,82,
2,10560, Note_off_c, 0,76,0,
2,11040, Note_on_c, 0,41,82,
2,11040, Note_off_c, 0,65,0,
2,11520, Note_on_c, 0,65,78,
2,11520, Note_on_c, 0,64,81,
2,11520, Note_on_c, 0,77,80,
2,11520, Note_on_c, 0,45,79,
2,11520, Note_off_c, 0,45,0,
2,12000, Note_on_c, 0,45,78,
2,12000, Note_off_c, 0,45,0,
2,12480, Note_on_c, 0,74,77,
2,12480, Note_on_c, 0,45,76,
2,12960, Note_off_c, 0,43,0,
2,12960, Note_on_c, 0,72,75,
2,12960, Note_off_c, 0,53,0,
2,12960, Note_off_c, 0,45,0,
2,13440, Note_on_c, 0,45,76,
2,13440, Note_off_c, 0,45,0,
2,13920, Note_on_c, 0,45,77,
2,13920, Note_on_c, 0,50,76,
2,14400, Note_off_c, 0,64,0,
2,14400, Note_off_c, 0,45,0,
2,14400, Note_on_c, 0,45,75,
2,14400, Note_on_c, 0,38,74,
2,14400, Note_on_c, 0,33,70,
2,14400, Note_off_c, 0,45,0,
2,14880, Note_on_c, 0,45,71,
2,14880, Note_off_c, 0,45,0,
2,15360, Note_on_c, 0,45,75,
2,15360, Note_off_c, 0,45,0,
2,15840, Note_off_c, 0,74,0,
2,15840, Note_on_c, 0,45,70,
2,15840, Note_off_c, 0,45,0,
2,15840, Note_on_c, 0,53,74,
2,16320, Note_off_c, 0,33,0,
2,16320, Note_on_c, 0,45,76,
2,16800, Note_off_c, 0,53,0,
2,16800, Note_on_c, 0,33,73,
2,16800, Note_off_c, 0,50,0,
2,16800, Note_off_c, 0,60,0,
2,17280, Note_on_c, 0,76,73,
2,17280, Note_on_c, 0,60,77,
2,17280, Note_on_c, 0,95,77,
2,17280, Note_on_c, 0,64,75,
2,17760, Note_off_c, 0,95,0,
2,17760, Note_off_c, 0,65,0,
2,18240, Note_off_c, 0,41,0,
2,18240, Note_off_c, 0,57,0,
2,18720, Note_on_c, 0,95,79,
2,18720, Note_on_c, 0,50,79,
2,19200, Note_on_c, 0,57,75,
2,19200, Note_off_c, 0,56,0,
2,19680, Note_on_c, 0,41,78,
2,19680, Note_on_c, 0,65,75,
2,20160, Note_off_c, 0,64,0,
2,20160, Note_off_c, 0,41,0,
2,20160, Note_on_c, 0,41,76,
2,20160, Note_off_c, 0,50,0,
2,20160, Note_on_c, 0,83,72,
2,20640, Note_on_c, 0,64,81,
2,20640, Note_off_c, 0,41,0,
2,21120, Note_off_c, 0,45,0,
2,21120, Note_off_c, 0,65,0,
2,21600, Note_on_c, 0,41,84,
2,21600, Note_off_c, 0,57,0,
2,22080, Note_on_c, 0,29,76,
2,22080, Note_off_c, 0,41,0,
2,22560, Note_on_c, 0,41,74,
2,22560, Note_off_c, 0,95,0,
2,23040, Note_on_c, 0,50,70,
2,23040, Note_off_c, 0,50,0,
2,23040, Note_on_c, 0,45,76,
2,23040, Note_on_c, 0,74,74,
2,23520, Note_off_c, 0,45,0,
2,23520, Note_on_c, 0,45,69,
2,24000, Note_on_c, 0,50,70,
2,24000, Note_off_c, 0,45,0,
2,24480, Note_on_c, 0,45,75,
2,24480, Note_off_c, 0,38,0,
2,24480, Note_off_c, 0,45,0,
2,24960, Note_off_c, 0,33,0,
2,24960, Note_on_c, 0,45,77,
2,25440, Note_off_c, 0,45,0,
2,25440, Note_on_c, 0,38,79,
2,25920, Note_off_c, 0,64,0,
2,25920, Note_on_c, 0,45,81,
2,25920, Note_on_c, 0,33,74,
2,25920, Note_off_c, 0,74,0,
2,25920, Note_off_c, 0,45,0,
2,25920, Note_on_c, 0,45,75,
2,26400, Note_off_c, 0,62,0,
2,26400, Note_off_c, 0,45,0,
2,26880, Note_on_c, 0,45,77,
2,26880, Note_off_c, 0,45,0,
2,27360, Note_on_c, 0,45,77,
2,27360, Note_off_c, 0,45,0,
2,27360, Note_on_c, 0,74,75,
2,27360, Note_on_c, 0,62,72,
2,27840, Note_on_c, 0,45,70,
2,27840, Note_off_c, 0,74,0,
2,28320, Note_off_c, 0,45,0,
2,28320, Note_off_c, 0,62,0,
2,28320, Note_on_c, 0,105,70,
2,28320, Note_off_c, 0,60,0,
2,28800, Note_on_c, 0,43,76,
2,28800, Note_off_c, 0,52,0,
2,28800, Note_on_c, 0,67,78,
2,28800, Note_on_c, 0,64,76,
2,28800, Note_off_c, 0,41,0,
2,28800, Note_off_c, 0,64,0,
2,29280, Note_off_c, 0,67,0,
2,29280, Note_on_c, 0,41,76,
2,29760, Note_off_c, 0,41,0,
2,29760, Note_on_c, 0,65,80,
2,30240, Note_on_c, 0,41,77,
2,30240, Note_on_c, 0,52,74,
2,30720, Note_on_c, 0,93,75,
2,30720, Note_off_c, 0,65,0,
2,31200, Note_on_c, 0,65,74,
2,31200, Note_off_c, 0,41,0,
2,31680, Note_off_c, 0,77,0,
2,31680, Note_off_c, 0,50,0,
2,31680, Note_on_c, 0,77,74,
2,31680, Note_off_c, 0,52,0,
2,31680, Note_on_c, 0,52,76,
2,32160, Note_off_c, 0,29,0,
2,32160, Note_off_c, 0,76,0,
2,32640, Note_on_c, 0,50,77,
2,32640, Note_off_c, 0,65,0,
2,33120, Note_on_c, 0,41,75,
2,33120, Note_off_c, 0,41,0,
2,33600, Note_off_c, 0,77,0,
2,33600, Note_on_c, 0,29,81,
2,34080, Note_off_c, 0,50,0,
2,34080, Note_on_c, 0,41,82,
2,34560, Note_on_c, 0,50,79,
2,34560, Note_off_c, 0,41,0,
2,34560, Note_on_c, 0,41,70,
2,34560, Note_on_c, 0,74,80,
2,34560, Note_on_c, 0,45,78,
2,35040, Note_off_c, 0,74,0,
2,35040, Note_off_c, 0,45,0,
2,35520, Note_off_c, 0,52,0,
2,35520, Note_on_c, 0,45,77,
2,36000, Note_off_c, 0,72,0,
2,36000, Note_on_c, 0,31,77,
2,36000, Note_off_c, 0,45,0,
2,36000, Note_on_c, 0,45,77,
2,36480, Note_off_c, 0,33,0,
2,36480, Note_on_c, 0,72,77,
2,36960, Note_off_c, 0,45,0,
2,36960, Note_on_c, 0,45,78,
2,37440, Note_on_c, 0,52,77,
2,37440, Note_off_c, 0,45,0,
2,37440, Note_on_c, 0,33,74,
2,37440, Note_on_c, 0,74,79,
2,37440, Note_on_c, 0,45,78,
2,37440, Note_off_c, 0,33,0,
2,37920, Note_on_c, 0,64,75,
2,37920, Note_off_c, 0,45,0,
2,38400, Note_off_c, 0,52,0,
2,38400, Note_on_c, 0,45,73,
2,38880, Note_on_c, 0,62,72,
2,38880, Note_off_c, 0,45,0,
2,38880, Note_on_c, 0,45,72,
2,38880, Note_off_c, 0,74,0,
2,39360, Note_off_c, 0,45,0,
2,39360, Note_on_c, 0,45,73,
2,39840, Note_off_c, 0,38,0,
2,39840, Note_off_c, 0,45,0,
2,39840, Note_on_c, 0,48,75,
2,39840, Note_on_c, 0,44,77,
2,40320, Note_off_c, 0,48,0,
2,40320, Note_off_c, 0,105,0,
2,40320, Note_on_c, 0,40,78,
2,40320, Note_on_c, 0,69,73,
2,40800, Note_on_c, 0,68,70,
2,40800, Note_on_c, 0,34,76,
2,41280, Note_off_c, 0,69,0,
2,41280, Note_on_c, 0,52,75,
2,41760, Note_off_c, 0,64,0,
2,41760, Note_off_c, 0,40,0,
2,42240, Note_on_c, 0,53,78,
2,42240, Note_on_c, 0,69,78,
2,42720, Note_off_c, 0,68,0,
2,42720, Note_on_c, 0,40,73,
2,43200, Note_off_c, 0,69,0,
2,43200, Note_off_c, 0,34,0,
2,43200, Note_on_c, 0,70,77,
2,43200, Note_off_c, 0,40,0,
2,43200, Note_on_c, 0,58,75,
2,43680, Note_on_c, 0,68,71,
2,43680, Note_on_c, 0,81,79,
2,44160, Note_off_c, 0,53,0,
2,44160, Note_on_c, 0,69,79,
2,44640, Note_off_c, 0,69,0,
2,44640, Note_off_c, 0,70,0,
2,45120, Note_on_c, 0,64,77,
2,45120, Note_on_c, 0,65,75,
2,45600, Note_on_c, 0,40,73,
2,45600, Note_off_c, 0,40,0,
2,46080, Note_on_c, 0,40,74,
2,46080, Note_on_c, 0,46,78,
2,46080, Note_off_c, 0,46,0,
2,46080, Note_off_c, 0,68,0,
2,46560, Note_off_c, 0,65,0,
2,46560, Note_off_c, 0,58,0,
2,47040, Note_on_c, 0,67,78,
2,47040, Note_on_c, 0,69,73,
2,47520, Note_on_c, 0,68,72,
2,47520, Note_off_c, 0,40,0,
2,47520, Note_off_c, 0,68,0,
2,48000, Note_on_c, 0,40,76,
2,48000, Note_off_c, 0,40,0,
2,48480, Note_on_c, 0,65,70,
2,48480, Note_off_c, 0,64,0,
2,48960, Note_off_c, 0,65,0,
2,48960, Note_on_c, 0,40,74,
2,48960, Note_on_c, 0,64,68,
2,48960, Note_on_c, 0,46,75,
2,48960, Note_off_c, 0,69,0,
2,48960, Note_off_c, 0,40,0,
2,49440, Note_on_c, 0,40,79,
2,49440, Note_on_c, 0,69,78,
2,49920, Note_off_c, 0,46,0,
2,49920, Note_on_c, 0,65,75,
2,50400, Note_off_c, 0,40,0,
2,50400, Note_on_c, 0,28,74,
2,50400, Note_on_c, 0,40,78,
2,50400, Note_off_c, 0,64,0,
2,50880, Note_off_c, 0,40,0,
2,50880, Note_off_c, 0,65,0,
2,51360, Note_on_c, 0,68,79,
2,51360, Note_off_c, 0,68,0,
2,51840, Note_on_c, 0,40,76,
2,51840, Note_off_c, 0,40,0,
2,51840, Note_on_c, 0,58,78,
2,51840, Note_on_c, 0,70,74,
2,51840, Note_on_c, 0,74,77,
2,51840, Note_on_c, 0,45,81,
2,52320, Note_on_c, 0,53,76,
2,52320, Note_off_c, 0,45,0,
2,52800, Note_on_c, 0,45,76,
2,52800, Note_off_c, 0,45,0,
2,53280, Note_on_c, 0,45,78,
2,53280, Note_off_c, 0,45,0,
2,53760, Note_on_c, 0,45,75,
2,53760, Note_off_c, 0,45,0,
2,54240, Note_on_c, 0,45,80,
2,54240, Note_off_c, 0,74,0,
2,54720, Note_off_c, 0,50,0,
2,54720, Note_off_c, 0,45,0,
2,54720, Note_on_c, 0,45,76,
2,54720, Note_off_c, 0,45,0,
2,54720, Note_on_c, 0,45,91,
2,55200, Note_off_c, 0,53,0,
2,55200, Note_on_c, 0,33,97,
2,55680, Note_off_c, 0,45,0,
2,55680, Note_on_c, 0,45,82,
2,56160, Note_off_c, 0,45,0,
2,56160, Note_on_c, 0,45,84,
2,56640, Note_off_c, 0,45,0,
2,56640, Note_on_c, 0,74,85,
2,57120, Note_on_c, 0,45,84,
2,57120, Note_off_c, 0,45,0,
2,57600, Note_on_c, 0,57,85,
2,57600, Note_on_c, 0,60,76,
2,57600, Note_on_c, 0,45,73,
2,57600, Note_off_c, 0,45,0,
2,57600, Note_off_c, 0,60,0,
2,58080, Note_off_c, 0,41,0,
2,58080, Note_on_c, 0,76,69,
2,58560, Note_on_c, 0,50,78,
2,58560, Note_on_c, 0,77,85,
2,58560, Note_on_c, 0,41,86,
2,58560, Note_off_c, 0,57,0,
2,58560, Note_on_c, 0,64,76,
2,58560, Note_on_c, 0,65,73,
2,59040, Note_off_c, 0,41,0,
2,59040, Note_on_c, 0,41,77,
2,59040, Note_off_c, 0,65,0,
2,59040, Note_off_c, 0,41,0,
2,59040, Note_on_c, 0,41,71,
2,59040, Note_on_c, 0,47,70,
2,59520, Note_off_c, 0,50,0,
2,59520, Note_on_c, 0,50,72,
2,60000, Note_off_c, 0,29,0,
2,60000, Note_off_c, 0,41,0,
2,60000, Note_off_c, 0,77,0,
2,60000, Note_off_c, 0,64,0,
2,60000, Note_on_c, 0,65,79,
2,60000, Note_on_c, 0,41,74,
2,60480, Note_on_c, 0,57,61,
2,60480, Note_off_c, 0,50,0,
2,60480, Note_off_c, 0,41,0,
2,60480, Note_off_c, 0,52,0,
2,60480, Note_on_c, 0,50,77,
2,60480, Note_on_c, 0,41,78,
2,60960, Note_off_c, 0,65,0,
2,60960, Note_on_c, 0,77,77,
2,60960, Note_on_c, 0,45,78,
2,60960, Note_off_c, 0,45,0,
2,60960, Note_off_c, 0,57,0,
2,60960, Note_on_c, 0,65,74,
2,61440, Note_on_c, 0,45,85,
2,61440, Note_off_c, 0,45,0,
2,61440, Note_on_c, 0,55,79,
2,61440, Note_off_c, 0,43,0,
2,61440, Note_on_c, 0,36,80,
2,61440, Note_on_c, 0,64,82,
2,61920, Note_on_c, 0,52,78,
2,61920, Note_on_c, 0,43,75,
2,62400, Note_off_c, 0,52,0,
2,62400, Note_on_c, 0,52,72,
2,62880, Note_on_c, 0,53,81,
2,62880, Note_on_c, 0,57,81,
2,63360, Note_off_c, 0,44,0,
2,63360, Note_off_c, 0,69,0,
2,63360, Note_on_c, 0,45,74,
2,63360, Note_off_c, 0,33,0,
2,63360, Note_on_c, 0,33,69,
2,63360, Note_off_c, 0,45,0,
2,63840, Note_on_c, 0,45,79,
2,63840, Note_off_c, 0,52,0,
2,64080, Note_on_c, 0,60,77,
2,64080, Note_off_c, 0,72,0,
2,64320, Note_off_c, 0,55,0,
2,64320, Note_on_c, 0,52,74,
2,64800, Note_off_c, 0,74,0,
2,64800, Note_off_c, 0,33,0,
2,65280, Note_off_c, 0,45,0,
2,65280, Note_on_c, 0,55,71,
2,65520, Note_off_c, 0,57,0,
2,65520, Note_off_c, 0,50,0,
2,65760, Note_off_c, 0,55,0,
2,65760, Note_off_c, 0,64,0,
2,66240, Note_on_c, 0,33,79,
2,66240, Note_on_c, 0,45,81,
2,66240, Note_off_c, 0,45,0,
2,66240, Note_on_c, 0,45,79,
2,66720, Note_off_c, 0,45,0,
2,66720, Note_on_c, 0,50,79,
2,66960, Note_off_c, 0,60,0,
2,66960, Note_off_c, 0,76,0,
2,67200, Note_on_c, 0,64,76,
2,67200, Note_on_c, 0,60,68,
2,67680, Note_off_c, 0,62,0,
2,67680, Note_on_c, 0,45,81,
2,68160, Note_on_c, 0,74,78,
2,68160, Note_on_c, 0,57,79,
2,68400, Note_on_c, 0,76,81,
2,68400, Note_off_c, 0,43,0,
2,68640, Note_off_c, 0,60,0,
2,68640, Note_on_c, 0,69,79,
2,69120, Note_off_c, 0,33,0,
2,69120, Note_on_c, 0,33,75,
2,69120, Note_off_c, 0,53,0,
2,69120, Note_off_c, 0,50,0,
2,69600, Note_on_c, 0,43,75,
2,69600, Note_off_c, 0,76,0,
2,70080, Note_off_c, 0,33,0,
2,70080, Note_off_c, 0,74,0,
2,70080, Note_off_c, 0,64,0,
2,70080, Note_off_c, 0,52,0,
2,70080, Note_on_c, 0,64,79,
2,70080, Note_on_c, 0,72,83,
2,70560, Note_on_c, 0,44,82,
2,70560, Note_on_c, 0,55,72,
2,70560, Note_on_c, 0,33,70,
2,70560, Note_off_c, 0,33,0,
2,70560, Note_on_c, 0,60,73,
2,70560, Note_off_c, 0,64,0,
2,71040, Note_on_c, 0,53,72,
2,71040, Note_off_c, 0,47,0,
2,71520, Note_off_c, 0,45,0,
2,71520, Note_on_c, 0,64,68,
2,71520, Note_on_c, 0,52,69,
2,71520, Note_off_c, 0,64,0,
2,71520, Note_off_c, 0,43,0,
2,71520, Note_on_c, 0,50,86,
2,72000, Note_off_c, 0,72,0,
2,72000, Note_off_c, 0,52,0,
2,72000, Note_on_c, 0,45,64,
2,72000, Note_off_c, 0,45,0,
2,72000, Note_on_c, 0,76,61,
2,72000, Note_off_c, 0,31,0,
2,72480, Note_on_c, 0,52,79,
2,72480, Note_off_c, 0,60,0,
2,72480, Note_on_c, 0,60,72,
2,72480, Note_off_c, 0,44,0,
2,72480, Note_on_c, 0,64,82,
2,72480, Note_off_c, 0,52,0,
2,72960, Note_off_c, 0,50,0,
2,72960, Note_on_c, 0,48,73,
2,72960, Note_on_c, 0,47,81,
2,72960, Note_on_c, 0,43,84,
2,72960, Note_off_c, 0,48,0,
2,72960, Note_on_c, 0,52,72,
2,73440, Note_on_c, 0,105,76,
2,73440, Note_on_c, 0,50,80,
2,73920, Note_on_c, 0,72,85,
2,73920, Note_off_c, 0,69,0,
2,74400, Note_off_c, 0,50,0,
2,74400, Note_off_c, 0,43,0,
2,74880, Note_on_c, 0,43,74,
2,74880, Note_off_c, 0,57,0,
2,74880, Note_off_c, 0,60,0,
2,74880, Note_on_c, 0,57,75,
2,74880, Note_on_c, 0,33,81,
2,74880, Note_on_c, 0,45,82,
2,75360, Note_off_c, 0,33,0,
2,75360, Note_on_c, 0,50,70,
2,75600, Note_on_c, 0,48,71,
2,75600, Note_off_c, 0,67,0,
2,75840, Note_off_c, 0,64,0,
2,75840, Note_on_c, 0,60,80,
2,76320, Note_off_c, 0,45,0,
2,76320, Note_on_c, 0,45,84,
2,76800, Note_on_c, 0,33,73,
2,76800, Note_off_c, 0,47,0,
2,77040, Note_off_c, 0,60,0,
2,77040, Note_off_c, 0,50,0,
2,77280, Note_on_c, 0,50,78,
2,77280, Note_off_c, 0,50,0,
2,77760, Note_on_c, 0,50,79,
2,77760, Note_on_c, 0,47,75,
2,77760, Note_off_c, 0,45,0,
2,77760, Note_on_c, 0,45,86,
2,78240, Note_off_c, 0,45,0,
2,78240, Note_off_c, 0,76,0,
2,78480, Note_on_c, 0,31,96,
2,78480, Note_off_c, 0,55,0,
2,78720, Note_on_c, 0,60,76,
2,78720, Note_off_c, 0,57,0,
2,79200, Note_on_c, 0,64,74,
2,79200, Note_off_c, 0,33,0,
2,79680, Note_on_c, 0,74,86,
2,79680, Note_on_c, 0,57,82,
2,79920, Note_off_c, 0,43,0,
2,79920, Note_off_c, 0,64,0,
2,80160, Note_on_c, 0,76,85,
2,80160, Note_off_c, 0,36,0,
2,80640, Note_off_c, 0,41,0,
2,80640, Note_off_c, 0,57,0,
2,80640, Note_off_c, 0,52,0,
2,80640, Note_off_c, 0,93,0,
2,81120, Note_on_c, 0,41,79,
2,81120, Note_off_c, 0,41,0,
2,81600, Note_off_c, 0,83,0,
2,81600, Note_on_c, 0,57,72,
2,81600, Note_on_c, 0,29,72,
2,81600, Note_on_c, 0,52,77,
2,81600, Note_on_c, 0,95,82,
2,81600, Note_off_c, 0,50,0,
2,82080, Note_off_c, 0,76,0,
2,82080, Note_off_c, 0,29,0,
2,82080, Note_on_c, 0,41,80,
2,82080, Note_off_c, 0,41,0,
2,82080, Note_on_c, 0,29,77,
2,82080, Note_on_c, 0,41,73,
2,82560, Note_off_c, 0,41,0,
2,82560, Note_on_c, 0,41,77,
2,83040, Note_off_c, 0,41,0,
2,83040, Note_on_c, 0,41,72,
2,83040, Note_off_c, 0,41,0,
2,83040, Note_off_c, 0,77,0,
2,83040, Note_on_c, 0,64,68,
2,83040, Note_off_c, 0,64,0,
2,83520, Note_on_c, 0,50,70,
2,83520, Note_on_c, 0,76,77,
2,83520, Note_on_c, 0,77,85,
2,83520, Note_off_c, 0,65,0,
2,83520, Note_off_c, 0,50,0,
2,83520, Note_off_c, 0,52,0,
2,84000, Note_on_c, 0,65,72,
2,84000, Note_on_c, 0,93,76,
2,84000, Note_on_c, 0,41,78,
2,84000, Note_on_c, 0,67,74,
2,84000, Note_off_c, 0,41,0,
2,84000, Note_off_c, 0,65,0,
2,84480, Note_off_c, 0,57,0,
2,84480, Note_off_c, 0,77,0,
2,84480, Note_on_c, 0,45,81,
2,84480, Note_on_c, 0,50,87,
2,84480, Note_on_c, 0,52,82,
2,84480, Note_on_c, 0,64,70,
2,84960, Note_on_c, 0,69,70,
2,84960, Note_off_c, 0,60,0,
2,85440, Note_on_c, 0,43,70,
2,85440, Note_off_c, 0,72,0,
2,85920, Note_off_c, 0,45,0,
2,85920, Note_on_c, 0,45,75,
2,85920, Note_off_c, 0,50,0,
2,85920, Note_on_c, 0,41,79,
2,85920, Note_off_c, 0,76,0,
2,85920, Note_on_c, 0,65,77,
2,86400, Note_off_c, 0,29,0,
2,86400, Note_off_c, 0,65,0,
2,86400, Note_off_c, 0,41,0,
2,86400, Note_on_c, 0,29,84,
2,86400, Note_on_c, 0,33,73,
2,86400, Note_off_c, 0,45,0,
2,86880, Note_on_c, 0,45,79,
2,86880, Note_on_c, 0,55,80,
2,87120, Note_on_c, 0,60,81,
2,87120, Note_off_c, 0,48,0,
2,87360, Note_off_c, 0,60,0,
2,87360, Note_off_c, 0,69,0,
2,87840, Note_off_c, 0,45,0,
2,87840, Note_on_c, 0,45,69,
2,88320, Note_on_c, 0,62,83,
2,88320, Note_off_c, 0,43,0,
2,88560, Note_on_c, 0,76,78,
2,88560, Note_on_c, 0,60,78,
2,88800, Note_on_c, 0,50,72,
2,88800, Note_off_c, 0,52,0,
2,89280, Note_on_c, 0,52,82,
2,89280, Note_off_c, 0,64,0,
2,89280, Note_off_c, 0,74,0,
2,89280, Note_off_c, 0,62,0,
2,89760, Note_off_c, 0,45,0,
2,89760, Note_on_c, 0,64,78,
2,90000, Note_off_c, 0,64,0,
2,90000, Note_off_c, 0,52,0,
2,90240, Note_off_c, 0,55,0,
2,90240, Note_on_c, 0,72,79,
2,90720, Note_on_c, 0,45,74,
2,90720, Note_off_c, 0,33,0,
2,91200, Note_off_c, 0,45,0,
2,91200, Note_off_c, 0,72,0,
2,91440, Note_on_c, 0,43,82,
2,91440, Note_off_c, 0,50,0,
2,91680, Note_off_c, 0,60,0,
2,91680, Note_on_c, 0,34,68,
2,92160, Note_on_c, 0,40,80,
2,92160, Note_on_c, 0,68,84,
2,92400, Note_on_c, 0,62,72,
2,92400, Note_on_c, 0,46,79,
2,92640, Note_off_c, 0,40,0,
2,92640, Note_on_c, 0,40,69,
2,92880, Note_on_c, 0,64,73,
2,92880, Note_on_c, 0,52,82,
2,93120, Note_on_c, 0,57,69,
2,93120, Note_off_c, 0,62,0,
2,93600, Note_on_c, 0,62,81,
2,93600, Note_on_c, 0,45,72,
2,93840, Note_off_c, 0,45,0,
2,93840, Note_off_c, 0,52,0,
2,94080, Note_on_c, 0,60,73,
2,94080, Note_off_c, 0,43,0,
2,94320, Note_off_c, 0,64,0,
2,94320, Note_off_c, 0,46,0,
2,94560, Note_on_c, 0,69,81,
2,94560, Note_off_c, 0,81,0,
2,95040, Note_on_c, 0,64,67,
2,95040, Note_on_c, 0,50,74,
2,95280, Note_off_c, 0,64,0,
2,95280, Note_on_c, 0,64,70,
2,95520, Note_off_c, 0,64,0,
2,95520, Note_off_c, 0,29,0,
2,95760, Note_on_c, 0,29,73,
2,95760, Note_off_c, 0,40,0,
2,96000, Note_on_c, 0,46,79,
2,96000, Note_on_c, 0,52,82,
2,96480, Note_off_c, 0,60,0,
2,96480, Note_off_c, 0,76,0,
2,96720, Note_off_c, 0,31,0,
2,96720, Note_on_c, 0,72,72,
2,96960, Note_off_c, 0,72,0,
2,96960, Note_off_c, 0,52,0,
2,97200, Note_on_c, 0,64,66,
2,97200, Note_on_c, 0,43,78,
2,97440, Note_on_c, 0,60,86,
2,97440, Note_off_c, 0,46,0,
2,97920, Note_off_c, 0,34,0,
2,97920, Note_off_c, 0,53,0,
2,97920, Note_on_c, 0,74,85,
2,97920, Note_on_c, 0,45,87,
2,98160, Note_on_c, 0,52,65,
2,98160, Note_on_c, 0,48,64,
2,98400, Note_off_c, 0,52,0,
2,98400, Note_off_c, 0,64,0,
2,98640, Note_off_c, 0,68,0,
2,98640, Note_on_c, 0,46,75,
2,98880, Note_on_c, 0,65,75,
2,98880, Note_off_c, 0,69,0,
2,99360, Note_on_c, 0,64,81,
2,99360, Note_off_c, 0,50,0,
2,99360, Note_off_c, 0,45,0,
2,99360, Note_on_c, 0,33,84,
2,99360, Note_on_c, 0,45,84,
2,99360, Note_on_c, 0,38,65,
2,99600, Note_off_c, 0,60,0,
2,99600, Note_off_c, 0,64,0,
2,99840, Note_on_c, 0,52,62,
2,99840, Note_off_c, 0,70,0,
2,100080, Note_off_c, 0,65,0,
2,100080, Note_on_c, 0,64,74,
2,100320, Note_on_c, 0,68,78,
2,100320, Note_on_c, 0,34,79,
2,100800, Note_on_c, 0,70,77,
2,100800, Note_on_c, 0,60,85,
2,100800, Note_off_c, 0,45,0,
2,100800, Note_on_c, 0,45,71,
2,100800, Note_off_c, 0,45,0,
2,100800, Note_on_c, 0,45,65,
2,101040, Note_off_c, 0,48,0,
2,101040, Note_on_c, 0,69,77,
2,101280, Note_off_c, 0,43,0,
2,101280, Note_off_c, 0,64,0,
2,101520, Note_on_c, 0,40,79,
2,101520, Note_on_c, 0,64,83,
2,101760, Note_off_c, 0,64,0,
2,101760, Note_off_c, 0,69,0,
2,102240, Note_on_c, 0,69,80,
2,102240, Note_off_c, 0,52,0,
2,102240, Note_off_c, 0,45,0,
2,102240, Note_on_c, 0,45,83,
2,102240, Note_off_c, 0,45,0,
2,102240, Note_on_c, 0,45,76,
2,102480, Note_on_c, 0,76,73,
2,102480, Note_off_c, 0,76,0,
2,102720, Note_on_c, 0,64,67,
2,102720, Note_off_c, 0,46,0,
2,102960, Note_off_c, 0,64,0,
2,102960, Note_off_c, 0,62,0,
2,103200, Note_off_c, 0,68,0,
2,103200, Note_off_c, 0,69,0,
2,103200, Note_on_c, 0,62,63,
2,103200, Note_off_c, 0,45,0,
2,103200, Note_on_c, 0,52,82,
2,103200, Note_on_c, 0,53,81,
2,103680, Note_on_c, 0,31,84,
2,103680, Note_on_c, 0,50,88,
2,103680, Note_off_c, 0,52,0,
2,103680, Note_on_c, 0,81,83,
2,103680, Note_on_c, 0,41,63,
2,103680, Note_on_c, 0,52,77,
2,103920, Note_off_c, 0,93,0,
2,103920, Note_on_c, 0,46,78,
2,104160, Note_on_c, 0,68,88,
2,104160, Note_on_c, 0,64,84,
2,104400, Note_off_c, 0,46,0,
2,104400, Note_off_c, 0,40,0,
2,105120, Note_off_c, 0,58,0,
2,105120, Note_off_c, 0,105,0,
2,105120, Note_off_c, 0,50,0,
2,105120, Note_on_c, 0,77,79,
2,105120, Note_off_c, 0,29,0,
2,105120, Note_on_c, 0,71,62,
2,105360, Note_off_c, 0,60,0,
2,105360, Note_on_c, 0,65,79,
2,105600, Note_on_c, 0,46,80,
2,105600, Note_on_c, 0,69,84,
2,105840, Note_on_c, 0,40,88,
2,105840, Note_off_c, 0,46,0,
2,106560, Note_on_c, 0,58,81,
2,106560, Note_on_c, 0,76,64,
2,106560, Note_off_c, 0,65,0,
2,106560, Note_off_c, 0,52,0,
2,106560, Note_off_c, 0,41,0,
2,106560, Note_on_c, 0,65,76,
2,106800, Note_on_c, 0,60,75,
2,106800, Note_on_c, 0,46,77,
2,107040, Note_off_c, 0,46,0,
2,107040, Note_off_c, 0,64,0,
2,107280, Note_off_c, 0,68,0,
2,107280, Note_on_c, 0,46,83,
2,108000, Note_off_c, 0,69,0,
2,108000, Note_off_c, 0,60,0,
2,108000, Note_off_c, 0,57,0,
2,108000, Note_on_c, 0,41,82,
2,108000, Note_off_c, 0,41,0,
2,108000, Note_off_c, 0,65,0,
2,108240, Note_off_c, 0,76,0,
2,108240, Note_on_c, 0,68,64,
2,108480, Note_off_c, 0,46,0,
2,108480, Note_on_c, 0,46,78,
2,108720, Note_on_c, 0,69,80,
2,108720, Note_off_c, 0,68,0,
2,109440, Note_off_c, 0,46,0,
2,109440, Note_on_c, 0,64,86,
2,109440, Note_on_c, 0,29,82,
2,109440, Note_on_c, 0,45,78,
2,109440, Note_off_c, 0,45,0,
2,109440, Note_on_c, 0,45,84,
2,109680, Note_off_c, 0,31,0,
2,109680, Note_on_c, 0,48,65,
2,109920, Note_on_c, 0,50,74,
2,109920, Note_off_c, 0,64,0,
2,110160, Note_off_c, 0,40,0,
2,110160, Note_on_c, 0,46,77,
2,110400, Note_off_c, 0,62,0,
2,110400, Note_off_c, 0,70,0,
2,110880, Note_off_c, 0,58,0,
2,110880, Note_on_c, 0,64,82,
2,110880, Note_off_c, 0,33,0,
2,110880, Note_off_c, 0,45,0,
2,110880, Note_on_c, 0,45,81,
2,110880, Note_off_c, 0,45,0,
2,111120, Note_on_c, 0,57,83,
2,111120, Note_off_c, 0,50,0,
2,111360, Note_off_c, 0,64,0,
2,111360, Note_off_c, 0,46,0,
2,111600, Note_on_c, 0,65,79,
2,111600, Note_on_c, 0,40,59,
2,111840, Note_off_c, 0,53,0,
2,111840, Note_on_c, 0,53,72,
2,112320, Note_on_c, 0,58,77,
2,112320, Note_on_c, 0,72,83,
2,112320, Note_on_c, 0,45,86,
2,112320, Note_off_c, 0,45,0,
2,112320, Note_on_c, 0,45,81,
2,112320, Note_on_c, 0,62,82,
2,112560, Note_on_c, 0,52,65,
2,112560, Note_off_c, 0,72,0,
2,112800, Note_off_c, 0,57,0,
2,112800, Note_on_c, 0,70,70,
2,113040, Note_off_c, 0,69,0,
2,113040, Note_on_c, 0,69,80,
2,113280, Note_off_c, 0,65,0,
2,113280, Note_on_c, 0,64,80,
2,113760, Note_on_c, 0,65,82,
2,113760, Note_on_c, 0,72,84,
2,113760, Note_off_c, 0,45,0,
2,113760, Note_off_c, 0,62,0,
2,113760, Note_on_c, 0,45,83,
2,113760, Note_on_c, 0,62,79,
2,114000, Note_on_c, 0,50,78,
2,114000, Note_on_c, 0,31,87,
2,114240, Note_on_c, 0,76,95,
2,114240, Note_on_c, 0,46,82,
2,114480, Note_off_c, 0,64,0,
2,114480, Note_off_c, 0,46,0,
2,114720, Note_off_c, 0,69,0,
2,114720, Note_on_c, 0,69,76,
2,114720, Note_off_c, 0,53,0,
2,114720, Note_off_c, 0,45,0,
2,114720, Note_off_c, 0,47,0,
2,114720, Note_on_c, 0,47,86,
2,115200, Note_on_c, 0,43,88,
2,115200, Note_off_c, 0,72,0,
2,115200, Note_on_c, 0,64,84,
2,115200, Note_off_c, 0,48,0,
2,115200, Note_on_c, 0,55,76,
2,115200, Note_on_c, 0,33,74,
2,115680, Note_on_c, 0,45,72,
2,115680, Note_off_c, 0,33,0,
2,116160, Note_off_c, 0,31,0,
2,116160, Note_off_c, 0,52,0,
2,116160, Note_off_c, 0,29,0,
2,116160, Note_on_c, 0,41,76,
2,116160, Note_off_c, 0,65,0,
2,116160, Note_on_c, 0,29,85,
2,116640, Note_off_c, 0,29,0,
2,116640, Note_off_c, 0,41,0,
2,116640, Note_on_c, 0,57,84,
2,116640, Note_on_c, 0,29,78,
2,116640, Note_off_c, 0,74,0,
2,116640, Note_off_c, 0,45,0,
2,117120, Note_on_c, 0,53,72,
2,117120, Note_off_c, 0,64,0,
2,117600, Note_off_c, 0,50,0,
2,117600, Note_off_c, 0,29,0,
2,117600, Note_on_c, 0,50,79,
2,117600, Note_off_c, 0,57,0,
2,117600, Note_on_c, 0,29,76,
2,117600, Note_on_c, 0,65,71,
2,118080, Note_on_c, 0,41,69,
2,118080, Note_on_c, 0,56,74,
2,118080, Note_off_c, 0,50,0,
2,118080, Note_off_c, 0,53,0,
2,118080, Note_on_c, 0,45,81,
2,118080, Note_off_c, 0,45,0,
2,118560, Note_on_c, 0,72,69,
2,118560, Note_on_c, 0,50,75,
2,118560, Note_on_c, 0,74,80,
2,118560, Note_on_c, 0,33,71,
2,118560, Note_off_c, 0,62,0,
2,118560, Note_on_c, 0,45,81,
2,119040, Note_off_c, 0,45,0,
2,119040, Note_on_c, 0,64,68,
2,119040, Note_on_c, 0,57,87,
2,119040, Note_off_c, 0,33,0,
2,119040, Note_on_c, 0,62,83,
2,119040, Note_off_c, 0,55,0,
2,119520, Note_on_c, 0,45,74,
2,119520, Note_off_c, 0,45,0,
2,120000, Note_on_c, 0,45,78,
2,120000, Note_off_c, 0,57,0,
2,120480, Note_off_c, 0,45,0,
2,120480, Note_on_c, 0,45,79,
2,120960, Note_on_c, 0,48,81,
2,120960, Note_on_c, 0,52,81,
2,120960, Note_on_c, 0,33,70,
2,120960, Note_off_c, 0,62,0,
2,120960, Note_on_c, 0,62,70,
2,120960, Note_off_c, 0,64,0,
2,121440, Note_on_c, 0,55,74,
2,121440, Note_off_c, 0,43,0,
2,121920, Note_off_c, 0,45,0,
2,121920, Note_on_c, 0,45,84,
2,121920, Note_off_c, 0,48,0,
2,121920, Note_on_c, 0,64,78,
2,121920, Note_off_c, 0,52,0,
2,121920, Note_off_c, 0,76,0,
2,122400, Note_off_c, 0,55,0,
2,122400, Note_on_c, 0,31,76,
2,122400, Note_off_c, 0,45,0,
2,122400, Note_on_c, 0,60,74,
2,122400, Note_off_c, 0,50,0,
2,122400, Note_off_c, 0,64,0,
2,122880, Note_on_c, 0,55,71,
2,122880, Note_off_c, 0,31,0,
2,123360, Note_on_c, 0,45,70,
2,123360, Note_off_c, 0,45,0,
2,123360, Note_on_c, 0,43,72,
2,123360, Note_off_c, 0,43,0,
2,123360, Note_on_c, 0,48,73,
2,123360, Note_on_c, 0,52,71,
2,123840, Note_on_c, 0,50,84,
2,123840, Note_off_c, 0,50,0,
2,123840, Note_on_c, 0,45,63,
2,123840, Note_off_c, 0,45,0,
2,123840, Note_on_c, 0,57,59,
2,123840, Note_off_c, 0,60,0,
2,124320, Note_on_c, 0,53,77,
2,124320, Note_off_c, 0,33,0,
2,124320, Note_off_c, 0,52,0,
2,124320, Note_on_c, 0,52,76,
2,124320, Note_on_c, 0,76,78,
2,124320, Note_off_c, 0,52,0,
2,124800, Note_on_c, 0,105,73,
2,124800, Note_off_c, 0,53,0,
2,124800, Note_off_c, 0,48,0,
2,124800, Note_on_c, 0,36,91,
2,124800, Note_on_c, 0,53,98,
2,124800, Note_on_c, 0,60,72,
2,125280, Note_off_c, 0,72,0,
2,125280, Note_on_c, 0,31,81,
2,125760, Note_on_c, 0,43,83,
2,125760, Note_on_c, 0,50,80,
2,126240, Note_on_c, 0,52,84,
2,126240, Note_off_c, 0,81,0,
2,126720, Note_off_c, 0,52,0,
2,126720, Note_off_c, 0,43,0,
2,126720, Note_off_c, 0,62,0,
2,126720, Note_on_c, 0,33,76,
2,126720, Note_off_c, 0,50,0,
2,126720, Note_off_c, 0,40,0,
2,127200, Note_off_c, 0,65,0,
2,127200, Note_off_c, 0,76,0,
2,127680, Note_off_c, 0,74,0,
2,127680, Note_off_c, 0,33,0,
2,127680, Note_on_c, 0,50,73,
2,127680, Note_off_c, 0,50,0,
2,127680, Note_off_c, 0,53,0,
2,127680, Note_on_c, 0,52,70,
2,128160, Note_on_c, 0,43,74,
2,128160, Note_off_c, 0,60,0,
2,128160, Note_on_c, 0,33,83,
2,128160, Note_off_c, 0,33,0,
2,128160, Note_off_c, 0,47,0,
2,128160, Note_on_c, 0,64,85,
2,128640, Note_off_c, 0,64,0,
2,128640, Note_on_c, 0,48,76,
2,129120, Note_on_c, 0,45,70,
2,129120, Note_off_c, 0,45,0,
2,129120, Note_on_c, 0,50,69,
2,129120, Note_off_c, 0,52,0,
2,129120, Note_on_c, 0,76,69,
2,129120, Note_on_c, 0,64,73,
2,129600, Note_off_c, 0,57,0,
2,129600, Note_on_c, 0,52,78,
2,129600, Note_on_c, 0,45,79,
2,129600, Note_off_c, 0,45,0,
2,129600, Note_off_c, 0,55,0,
2,129600, Note_on_c, 0,46,79,
2,130080, Note_off_c, 0,64,0,
2,130080, Note_off_c, 0,50,0,
2,130080, Note_on_c, 0,60,80,
2,130080, Note_off_c, 0,69,0,
2,130080, Note_off_c, 0,46,0,
2,130080, Note_on_c, 0,57,80,
2,130560, Note_off_c, 0,36,0,
2,130560, Note_off_c, 0,41,0,
2,130560, Note_off_c, 0,57,0,
2,130560, Note_off_c, 0,95,0,
2,130560, Note_on_c, 0,65,79,
2,130560, Note_on_c, 0,41,77,
2,131040, Note_off_c, 0,77,0,
2,131040, Note_on_c, 0,77,73,
2,131520, Note_on_c, 0,47,70,
2,131520, Note_off_c, 0,77,0,
2,132000, Note_off_c, 0,65,0,
2,132000, Note_on_c, 0,77,70,
2,132000, Note_off_c, 0,41,0,
2,132000, Note_on_c, 0,50,72,
2,132000, Note_on_c, 0,93,72,
2,132000, Note_on_c, 0,57,72,
2,132480, Note_on_c, 0,41,81,
2,132480, Note_off_c, 0,41,0,
2,132480, Note_on_c, 0,41,86,
2,132480, Note_off_c, 0,41,0,
2,132480, Note_off_c, 0,76,0,
2,132480, Note_on_c, 0,68,75,
2,132960, Note_off_c, 0,34,0,
2,132960, Note_on_c, 0,69,75,
2,133440, Note_off_c, 0,69,0,
2,133440, Note_on_c, 0,69,79,
2,133920, Note_on_c, 0,64,67,
2,133920, Note_on_c, 0,65,71,
2,134400, Note_on_c, 0,40,84,
2,134400, Note_off_c, 0,68,0,
2,134880, Note_on_c, 0,68,74,
2,134880, Note_off_c, 0,28,0,
2,135360, Note_on_c, 0,45,72,
2,135360, Note_on_c, 0,74,76,
2,135840, Note_on_c, 0,33,68,
2,135840, Note_off_c, 0,60,0,
2,136320, Note_off_c, 0,48,0,
2,136320, Note_off_c, 0,52,0,
2,136800, Note_off_c, 0,64,0,
2,136800, Note_off_c, 0,57,0,
2,136800, Note_on_c, 0,57,70,
2,136800, Note_off_c, 0,50,0,
2,137280, Note_on_c, 0,64,69,
2,137280, Note_on_c, 0,53,70,
2,137760, Note_on_c, 0,50,86,
2,137760, Note_on_c, 0,81,77,
2,138240, Note_off_c, 0,57,0,
2,138240, Note_off_c, 0,69,0,
2,138240, Note_on_c, 0,52,81,
2,138240, Note_on_c, 0,41,82,
2,138720, Note_off_c, 0,64,0,
2,138720, Note_off_c, 0,65,0,
2,139200, Note_off_c, 0,67,0,
2,139200, Note_off_c, 0,77,0,
2,139200, Note_off_c, 0,41,0,
2,139200, Note_on_c, 0,77,71,
2,139200, Note_on_c, 0,41,70,
2,139200, Note_off_c, 0,50,0,
2,139680, Note_off_c, 0,77,0,
2,139680, Note_on_c, 0,83,69,
2,139680, Note_on_c, 0,57,86,
2,139680, Note_off_c, 0,41,0,
2,139680, Note_off_c, 0,47,0,
2,139680, Note_on_c, 0,76,79,
2,140160, Note_on_c, 0,50,78,
2,140160, Note_on_c, 0,77,66,
2,140640, Note_off_c, 0,29,0,
2,140640, Note_off_c, 0,50,0,
2,140640, Note_on_c, 0,65,76,
2,140640, Note_on_c, 0,64,76,
2,140640, Note_on_c, 0,50,70,
2,140640, Note_on_c, 0,41,77,
2,141120, Note_off_c, 0,50,0,
2,141120, Note_off_c, 0,93,0,
2,141120, Note_off_c, 0,41,0,
2,141120, Note_on_c, 0,41,80,
2,141120, Note_off_c, 0,41,0,
2,141120, Note_on_c, 0,41,80,
2,141600, Note_on_c, 0,50,83,
2,141600, Note_off_c, 0,50,0,
2,141600, Note_off_c, 0,65,0,
2,141600, Note_on_c, 0,65,83,
2,141600, Note_off_c, 0,41,0,
2,141600, Note_on_c, 0,50,85,
2,142080, Note_on_c, 0,93,74,
2,142080, Note_off_c, 0,50,0,
2,142080, Note_on_c, 0,46,81,
2,142080, Note_off_c, 0,57,0,
2,142080, Note_on_c, 0,47,70,
2,142080, Note_off_c, 0,47,0,
2,142560, Note_off_c, 0,64,0,
2,142560, Note_on_c, 0,64,79,
2,143040, Note_on_c, 0,55,82,
2,143040, Note_off_c, 0,64,0,
2,143520, Note_on_c, 0,64,69,
2,143520, Note_off_c, 0,105,0,
2,144000, Note_on_c, 0,47,82,
2,144000, Note_on_c, 0,60,80,
2,144000, Note_on_c, 0,50,77,
2,144000, Note_off_c, 0,50,0,
2,144000, Note_off_c, 0,33,0,
2,144000, Note_off_c, 0,45,0,
2,144480, Note_on_c, 0,45,79,
2,144480, Note_off_c, 0,64,0,
2,144960, Note_on_c, 0,48,74,
2,144960, Note_off_c, 0,47,0,
2,144960, Note_on_c, 0,29,82,
2,144960, Note_off_c, 0,65,0,
2,144960, Note_off_c, 0,93,0,
2,144960, Note_on_c, 0,65,84,
2,145440, Note_on_c, 0,41,86,
2,145440, Note_off_c, 0,41,0,
2,145920, Note_off_c, 0,83,0,
2,145920, Note_off_c, 0,65,0,
2,145920, Note_on_c, 0,57,73,
2,145920, Note_off_c, 0,48,0,
2,145920, Note_on_c, 0,72,69,
2,145920, Note_off_c, 0,55,0,
2,146400, Note_on_c, 0,50,74,
2,146400, Note_off_c, 0,76,0,
2,146400, Note_on_c, 0,41,76,
2,146400, Note_off_c, 0,41,0,
2,146400, Note_off_c, 0,29,0,
2,146400, Note_on_c, 0,41,75,
2,146880, Note_off_c, 0,57,0,
2,146880, Note_off_c, 0,41,0,
2,146880, Note_on_c, 0,62,71,
2,146880, Note_off_c, 0,50,0,
2,146880, Note_off_c, 0,62,0,
2,146880, Note_off_c, 0,45,0,
2,147360, Note_on_c, 0,50,66,
2,147360, Note_on_c, 0,57,65,
2,147360, Note_off_c, 0,57,0,
2,147360, Note_on_c, 0,62,76,
2,147360, Note_off_c, 0,62,0,
2,147360, Note_off_c, 0,31,0,
2,147840, Note_off_c, 0,50,0,
2,147840, Note_off_c, 0,43,0,
2,148320, Note_on_c, 0,64,87,
2,148320, Note_on_c, 0,43,75,
2,148320, Note_off_c, 0,72,0,
2,148320, Note_on_c, 0,55,75,
2,148800, Note_off_c, 0,60,0,
2,148800, Note_on_c, 0,31,76,
2,149280, Note_on_c, 0,36,75,
2,149280, Note_off_c, 0,64,0,
2,149760, Note_off_c, 0,52,0,
2,149760, Note_off_c, 0,40,0,
2,150000, Note_off_c, 0,68,0,
2,150000, Note_off_c, 0,46,0,
2,150240, Note_on_c, 0,40,89,
2,150240, Note_on_c, 0,67,78,
2,150480, Note_on_c, 0,52,72,
2,150480, Note_on_c, 0,50,85,
2,150720, Note_on_c, 0,45,74,
2,150720, Note_on_c, 0,33,83,
2,151200, Note_off_c, 0,33,0,
2,151200, Note_off_c, 0,50,0,
2,151440, Note_on_c, 0,48,81,
2,151440, Note_off_c, 0,52,0,
2,151680, Note_on_c, 0,65,67,
2,151680, Note_off_c, 0,40,0,
2,151920, Note_on_c, 0,46,81,
2,151920, Note_off_c, 0,70,0,
2,152160, Note_off_c, 0,65,0,
2,152160, Note_on_c, 0,50,73,
2,152640, Note_off_c, 0,50,0,
2,152640, Note_on_c, 0,29,75,
2,152880, Note_off_c, 0,67,0,
2,152880, Note_on_c, 0,69,77,
2,153120, Note_off_c, 0,69,0,
2,153120, Note_on_c, 0,65,69,
2,153360, Note_on_c, 0,64,88,
2,153360, Note_on_c, 0,34,77,
2,153600, Note_on_c, 0,70,74,
2,153600, Note_on_c, 0,52,85,
2,154080, Note_on_c, 0,50,70,
2,154080, Note_off_c, 0,53,0,
2,154320, Note_on_c, 0,57,86,
2,154320, Note_on_c, 0,68,79,
2,154560, Note_off_c, 0,68,0,
2,154560, Note_on_c, 0,69,60,
2,154800, Note_off_c, 0,69,0,
2,154800, Note_on_c, 0,68,76,
2,155040, Note_off_c, 0,68,0,
2,155040, Note_off_c, 0,65,0,
2,155520, Note_off_c, 0,64,0,
2,155520, Note_off_c, 0,45,0,
2,155520, Note_on_c, 0,60,93,
2,158400, Note_on_c, 0,47,58,
2,158640, Note_off_c, 0,31,0,
2,158640, Note_on_c, 0,65,66,
2,158640, Note_off_c, 0,29,0,
2,159360, Note_on_c, 0,41,74,
2,159360, Note_off_c, 0,65,0,
2,161280, Note_on_c, 0,45,76,
2,161280, Note_off_c, 0,45,0,
2,161280, Note_on_c, 0,62,69,
2,161280, Note_on_c, 0,45,55,
2,164160, Note_off_c, 0,50,0,
2,164400, Note_off_c, 0,52,0,
2,164400, Note_off_c, 0,41,0,
2,164400, Note_on_c, 0,65,60,
2,165120, Note_off_c, 0,56,0,
2,165120, Note_off_c, 0,65,0,
2,167040, Note_off_c, 0,62,0,
2,167040, Note_on_c, 0,62,78,
2,167040, Note_off_c, 0,62,0,
2,167040, Note_off_c, 0,74,0,
2,169920, Note_on_c, 0,52,77,
2,170160, Note_off_c, 0,48,0,
2,170160, Note_off_c, 0,77,0,
2,170160, Note_on_c, 0,95,63,
2,170880, Note_on_c, 0,76,52,
2,170880, Note_on_c, 0,41,56,
2,172800, Note_off_c, 0,45,0,
2,172800, Note_on_c, 0,74,74,
2,172800, Note_on_c, 0,45,74,
2,172800, Note_off_c, 0,45,0,
2,175680, Note_on_c, 0,50,69,
2,175920, Note_off_c, 0,57,0,
2,175920, Note_off_c, 0,41,0,
2,175920, Note_on_c, 0,57,55,
2,176640, Note_on_c, 0,77,55,
2,176640, Note_off_c, 0,77,0,
2,178560, Note_on_c, 0,45,105,
2,178560, Note_off_c, 0,45,0,
2, 178561, End_track,,,,
0, 0, End_of_file,,,,
