0, 0, Header, 1, 2, 960,
1, 0, Start_track,,,,
1, 0, Time_signature, 6, 3, 36, 8
1, 0, Key_signature, 0," ""major""",,
1, 0, Tempo, 571428,,,
1, 0, Title_t," ""Westworld Main Theme""",,,
1, 0, Text_t," ""Ramin Djawadi""",,,
1, 0, Copyright_t," ""Copyright © Lunar Black""",,,
1, 1, End_track,,,,
2, 0, Start_track,,,,
2, 0, Program_c, 0, 0,,
2, 0, Control_c, 0, 121, 0,
2, 0, Control_c, 0, 64, 0,
2, 0, Control_c, 0, 91, 48,
2, 0, Control_c, 0, 10, 51,
2, 0, Control_c, 0, 7, 100,
2, 0, Control_c, 0, 121, 0,
2, 0, Control_c, 0, 64, 0,
2, 0, Control_c, 0, 91, 48,
2, 0, Control_c, 0, 10, 51,
2, 0, Control_c, 0, 7, 100,
2, 0, Title_t," ""Piano""",,,
2,0, Note_on_c, 0,45.0,70,
2,0, Note_off_c, 0,45.0,0,
2,480, Note_on_c, 0,45.0,72,
2,480, Note_off_c, 0,45.0,0,
2,960, Note_on_c, 0,45.0,77,
2,960, Note_on_c, 0,62.0,72,
2,1440, Note_on_c, 0,33.0,74,
2,1440, Note_off_c, 0,45.0,0,
2,1920, Note_on_c, 0,45.0,79,
2,1920, Note_off_c, 0,45.0,0,
2,2400, Note_off_c, 0,33.0,0,
2,2400, Note_on_c, 0,45.0,76,
2,2880, Note_on_c, 0,52.0,73,
2,2880, Note_off_c, 0,52.0,0,
2,2880, Note_on_c, 0,60.0,78,
2,2880, Note_on_c, 0,43.0,74,
2,3360, Note_off_c, 0,62.0,0,
2,3360, Note_on_c, 0,69.0,79,
2,3840, Note_on_c, 0,53.0,78,
2,3840, Note_off_c, 0,69.0,0,
2,4320, Note_off_c, 0,60.0,0,
2,4320, Note_on_c, 0,48.0,73,
2,4800, Note_on_c, 0,74.0,74,
2,4800, Note_on_c, 0,58.0,75,
2,5280, Note_off_c, 0,74.0,0,
2,5280, Note_off_c, 0,43.0,0,
2,5280, Note_on_c, 0,60.0,74,
2,5280, Note_off_c, 0,53.0,0,
2,5760, Note_on_c, 0,69.0,72,
2,5760, Note_off_c, 0,58.0,0,
2,5760, Note_on_c, 0,62.0,79,
2,5760, Note_off_c, 0,60.0,0,
2,6240, Note_on_c, 0,43.0,75,
2,6240, Note_off_c, 0,69.0,0,
2,6720, Note_on_c, 0,53.0,78,
2,6720, Note_on_c, 0,69.0,80,
2,7200, Note_on_c, 0,52.0,75,
2,7200, Note_off_c, 0,69.0,0,
2,7680, Note_off_c, 0,52.0,0,
2,7680, Note_on_c, 0,69.0,77,
2,8160, Note_off_c, 0,43.0,0,
2,8160, Note_on_c, 0,52.0,74,
2,8640, Note_off_c, 0,52.0,0,
2,8640, Note_off_c, 0,62.0,0,
2,8640, Note_on_c, 0,33.0,72,
2,8640, Note_on_c, 0,79.0,75,
2,9120, Note_on_c, 0,29.0,76,
2,9120, Note_on_c, 0,41.0,75,
2,9600, Note_on_c, 0,50.0,73,
2,9600, Note_off_c, 0,45.0,0,
2,10080, Note_on_c, 0,45.0,71,
2,10080, Note_off_c, 0,45.0,0,
2,10560, Note_on_c, 0,45.0,81,
2,10560, Note_on_c, 0,40.0,83,
2,11040, Note_off_c, 0,41.0,0,
2,11040, Note_on_c, 0,46.0,78,
2,11520, Note_on_c, 0,65.0,81,
2,11520, Note_on_c, 0,41.0,80,
2,11520, Note_on_c, 0,64.0,79,
2,11520, Note_on_c, 0,76.0,78,
2,11520, Note_on_c, 0,52.0,77,
2,12000, Note_off_c, 0,50.0,0,
2,12000, Note_off_c, 0,76.0,0,
2,12480, Note_on_c, 0,62.0,76,
2,12480, Note_off_c, 0,53.0,0,
2,12960, Note_on_c, 0,72.0,75,
2,12960, Note_on_c, 0,53.0,76,
2,12960, Note_on_c, 0,43.0,77,
2,12960, Note_off_c, 0,69.0,0,
2,13440, Note_on_c, 0,58.0,76,
2,13440, Note_on_c, 0,60.0,75,
2,13920, Note_off_c, 0,79.0,0,
2,13920, Note_off_c, 0,60.0,0,
2,14400, Note_off_c, 0,58.0,0,
2,14400, Note_on_c, 0,69.0,74,
2,14400, Note_off_c, 0,72.0,0,
2,14400, Note_on_c, 0,60.0,70,
2,14400, Note_on_c, 0,31.0,71,
2,14400, Note_on_c, 0,57.0,75,
2,14880, Note_on_c, 0,68.0,70,
2,14880, Note_on_c, 0,83.0,74,
2,15360, Note_on_c, 0,72.0,76,
2,15360, Note_off_c, 0,65.0,0,
2,15840, Note_off_c, 0,46.0,0,
2,15840, Note_off_c, 0,29.0,0,
2,15840, Note_off_c, 0,40.0,0,
2,15840, Note_off_c, 0,52.0,0,
2,16320, Note_on_c, 0,52.0,74,
2,16320, Note_on_c, 0,55.0,73,
2,16800, Note_off_c, 0,57.0,0,
2,16800, Note_off_c, 0,69.0,0,
2,16800, Note_off_c, 0,43.0,0,
2,16800, Note_on_c, 0,76.0,76,
2,17280, Note_on_c, 0,65.0,77,
2,17280, Note_off_c, 0,76.0,0,
2,17280, Note_on_c, 0,40.0,75,
2,17280, Note_off_c, 0,60.0,0,
2,17760, Note_on_c, 0,57.0,79,
2,17760, Note_off_c, 0,52.0,0,
2,18240, Note_on_c, 0,76.0,79,
2,18240, Note_on_c, 0,58.0,75,
2,18720, Note_off_c, 0,41.0,0,
2,18720, Note_off_c, 0,40.0,0,
2,19200, Note_off_c, 0,64.0,0,
2,19200, Note_on_c, 0,47.0,78,
2,19680, Note_on_c, 0,64.0,75,
2,19680, Note_on_c, 0,74.0,77,
2,20160, Note_on_c, 0,46.0,72,
2,20160, Note_off_c, 0,46.0,0,
2,20160, Note_off_c, 0,76.0,0,
2,20160, Note_off_c, 0,57.0,0,
2,20160, Note_off_c, 0,55.0,0,
2,20640, Note_on_c, 0,52.0,80,
2,20640, Note_off_c, 0,62.0,0,
2,21120, Note_on_c, 0,55.0,85,
2,21120, Note_off_c, 0,52.0,0,
2,21600, Note_on_c, 0,50.0,76,
2,21600, Note_on_c, 0,52.0,75,
2,22080, Note_off_c, 0,53.0,0,
2,22080, Note_on_c, 0,60.0,70,
2,22560, Note_on_c, 0,36.0,76,
2,22560, Note_off_c, 0,74.0,0,
2,23040, Note_on_c, 0,53.0,75,
2,23040, Note_on_c, 0,69.0,69,
2,23040, Note_off_c, 0,60.0,0,
2,23040, Note_off_c, 0,68.0,0,
2,23520, Note_on_c, 0,60.0,70,
2,23520, Note_on_c, 0,76.0,75,
2,24000, Note_off_c, 0,45.0,0,
2,24000, Note_on_c, 0,45.0,77,
2,24480, Note_off_c, 0,50.0,0,
2,24480, Note_off_c, 0,65.0,0,
2,24480, Note_off_c, 0,76.0,0,
2,24960, Note_on_c, 0,40.0,78,
2,24960, Note_on_c, 0,77.0,81,
2,25440, Note_on_c, 0,79.0,74,
2,25440, Note_off_c, 0,55.0,0,
2,25920, Note_off_c, 0,79.0,0,
2,25920, Note_on_c, 0,68.0,74,
2,25920, Note_off_c, 0,52.0,0,
2,25920, Note_on_c, 0,43.0,77,
2,25920, Note_off_c, 0,48.0,0,
2,25920, Note_off_c, 0,45.0,0,
2,26400, Note_on_c, 0,50.0,77,
2,26400, Note_on_c, 0,52.0,75,
2,26880, Note_off_c, 0,36.0,0,
2,26880, Note_off_c, 0,64.0,0,
2,27360, Note_off_c, 0,77.0,0,
2,27360, Note_on_c, 0,29.0,73,
2,27360, Note_on_c, 0,77.0,70,
2,27360, Note_off_c, 0,50.0,0,
2,27840, Note_on_c, 0,41.0,70,
2,27840, Note_off_c, 0,77.0,0,
2,28320, Note_on_c, 0,46.0,75,
2,28320, Note_off_c, 0,41.0,0,
2,28320, Note_on_c, 0,45.0,78,
2,28320, Note_off_c, 0,33.0,0,
2,28800, Note_on_c, 0,62.0,76,
2,28800, Note_on_c, 0,38.0,75,
2,28800, Note_off_c, 0,45.0,0,
2,28800, Note_on_c, 0,45.0,79,
2,28800, Note_off_c, 0,45.0,0,
2,28800, Note_on_c, 0,45.0,78,
2,29280, Note_off_c, 0,45.0,0,
2,29280, Note_on_c, 0,45.0,75,
2,29760, Note_on_c, 0,50.0,75,
2,29760, Note_off_c, 0,50.0,0,
2,30240, Note_off_c, 0,62.0,0,
2,30240, Note_off_c, 0,29.0,0,
2,30720, Note_on_c, 0,41.0,74,
2,30720, Note_off_c, 0,46.0,0,
2,31200, Note_off_c, 0,40.0,0,
2,31200, Note_on_c, 0,64.0,74,
2,31680, Note_off_c, 0,41.0,0,
2,31680, Note_off_c, 0,52.0,0,
2,31680, Note_on_c, 0,67.0,76,
2,31680, Note_on_c, 0,50.0,77,
2,31680, Note_off_c, 0,68.0,0,
2,32160, Note_on_c, 0,62.0,75,
2,32160, Note_off_c, 0,60.0,0,
2,32640, Note_off_c, 0,50.0,0,
2,32640, Note_on_c, 0,68.0,79,
2,33120, Note_off_c, 0,43.0,0,
2,33120, Note_on_c, 0,74.0,83,
2,33600, Note_off_c, 0,69.0,0,
2,33600, Note_on_c, 0,55.0,80,
2,34080, Note_on_c, 0,50.0,71,
2,34080, Note_on_c, 0,52.0,77,
2,34560, Note_off_c, 0,55.0,0,
2,34560, Note_off_c, 0,52.0,0,
2,34560, Note_off_c, 0,50.0,0,
2,34560, Note_on_c, 0,50.0,81,
2,34560, Note_off_c, 0,47.0,0,
2,35040, Note_on_c, 0,52.0,76,
2,35040, Note_on_c, 0,55.0,79,
2,35520, Note_off_c, 0,50.0,0,
2,35520, Note_off_c, 0,64.0,0,
2,36000, Note_off_c, 0,74.0,0,
2,36000, Note_on_c, 0,64.0,76,
2,36000, Note_on_c, 0,41.0,78,
2,36000, Note_off_c, 0,68.0,0,
2,36480, Note_on_c, 0,50.0,77,
2,36480, Note_on_c, 0,44.0,78,
2,36960, Note_off_c, 0,50.0,0,
2,36960, Note_off_c, 0,31.0,0,
2,37440, Note_on_c, 0,48.0,73,
2,37440, Note_off_c, 0,72.0,0,
2,37440, Note_on_c, 0,60.0,78,
2,37440, Note_on_c, 0,43.0,78,
2,37440, Note_off_c, 0,60.0,0,
2,37440, Note_off_c, 0,45.0,0,
2,37920, Note_off_c, 0,64.0,0,
2,37920, Note_on_c, 0,95.0,75,
2,38400, Note_on_c, 0,76.0,73,
2,38400, Note_off_c, 0,41.0,0,
2,38880, Note_on_c, 0,41.0,72,
2,38880, Note_off_c, 0,41.0,0,
2,38880, Note_on_c, 0,65.0,72,
2,38880, Note_on_c, 0,41.0,73,
2,39360, Note_on_c, 0,46.0,74,
2,39360, Note_on_c, 0,60.0,76,
2,39840, Note_off_c, 0,65.0,0,
2,39840, Note_on_c, 0,64.0,78,
2,39840, Note_on_c, 0,68.0,75,
2,39840, Note_on_c, 0,57.0,69,
2,40320, Note_off_c, 0,57.0,0,
2,40320, Note_on_c, 0,57.0,75,
2,40320, Note_off_c, 0,64.0,0,
2,40320, Note_on_c, 0,77.0,75,
2,40800, Note_on_c, 0,50.0,77,
2,40800, Note_on_c, 0,45.0,79,
2,41280, Note_on_c, 0,70.0,74,
2,41280, Note_off_c, 0,62.0,0,
2,41760, Note_on_c, 0,69.0,76,
2,41760, Note_on_c, 0,72.0,77,
2,42240, Note_off_c, 0,50.0,0,
2,42240, Note_off_c, 0,57.0,0,
2,42720, Note_on_c, 0,50.0,70,
2,42720, Note_off_c, 0,69.0,0,
2,43200, Note_on_c, 0,47.0,78,
2,43200, Note_off_c, 0,72.0,0,
2,43200, Note_on_c, 0,57.0,80,
2,43200, Note_off_c, 0,47.0,0,
2,43200, Note_off_c, 0,57.0,0,
2,43680, Note_off_c, 0,50.0,0,
2,43680, Note_on_c, 0,57.0,77,
2,44160, Note_on_c, 0,64.0,75,
2,44160, Note_off_c, 0,76.0,0,
2,44640, Note_off_c, 0,46.0,0,
2,44640, Note_off_c, 0,77.0,0,
2,45120, Note_on_c, 0,62.0,73,
2,45120, Note_off_c, 0,45.0,0,
2,45600, Note_on_c, 0,50.0,74,
2,45600, Note_off_c, 0,68.0,0,
2,46080, Note_off_c, 0,50.0,0,
2,46080, Note_off_c, 0,52.0,0,
2,46080, Note_off_c, 0,41.0,0,
2,46080, Note_off_c, 0,64.0,0,
2,46560, Note_on_c, 0,41.0,77,
2,46560, Note_off_c, 0,41.0,0,
2,47040, Note_on_c, 0,65.0,78,
2,47040, Note_on_c, 0,93.0,74,
2,47520, Note_on_c, 0,68.0,71,
2,47520, Note_on_c, 0,29.0,77,
2,47520, Note_off_c, 0,93.0,0,
2,48000, Note_off_c, 0,65.0,0,
2,48000, Note_on_c, 0,41.0,71,
2,48480, Note_on_c, 0,65.0,73,
2,48480, Note_off_c, 0,41.0,0,
2,48960, Note_off_c, 0,57.0,0,
2,48960, Note_on_c, 0,50.0,69,
2,48960, Note_on_c, 0,72.0,73,
2,48960, Note_on_c, 0,74.0,78,
2,48960, Note_off_c, 0,43.0,0,
2,48960, Note_on_c, 0,69.0,78,
2,49440, Note_off_c, 0,53.0,0,
2,49440, Note_off_c, 0,72.0,0,
2,49920, Note_on_c, 0,43.0,76,
2,49920, Note_on_c, 0,72.0,74,
2,50400, Note_off_c, 0,43.0,0,
2,50400, Note_on_c, 0,76.0,77,
2,50400, Note_off_c, 0,69.0,0,
2,50400, Note_on_c, 0,52.0,79,
2,50880, Note_off_c, 0,70.0,0,
2,50880, Note_on_c, 0,45.0,76,
2,51360, Note_off_c, 0,45.0,0,
2,51360, Note_on_c, 0,33.0,78,
2,51840, Note_on_c, 0,45.0,75,
2,51840, Note_off_c, 0,33.0,0,
2,51840, Note_off_c, 0,45.0,0,
2,51840, Note_on_c, 0,45.0,75,
2,51840, Note_on_c, 0,41.0,80,
2,51840, Note_off_c, 0,41.0,0,
2,52320, Note_off_c, 0,76.0,0,
2,52320, Note_on_c, 0,64.0,77,
2,52800, Note_on_c, 0,76.0,75,
2,52800, Note_on_c, 0,41.0,78,
2,53280, Note_off_c, 0,41.0,0,
2,53280, Note_on_c, 0,40.0,76,
2,53760, Note_off_c, 0,76.0,0,
2,53760, Note_off_c, 0,62.0,0,
2,54240, Note_off_c, 0,40.0,0,
2,54240, Note_on_c, 0,34.0,78,
2,54720, Note_off_c, 0,74.0,0,
2,54720, Note_off_c, 0,50.0,0,
2,54720, Note_on_c, 0,57.0,77,
2,54720, Note_on_c, 0,41.0,85,
2,54720, Note_off_c, 0,41.0,0,
2,55200, Note_on_c, 0,41.0,99,
2,55200, Note_on_c, 0,76.0,86,
2,55680, Note_off_c, 0,45.0,0,
2,55680, Note_off_c, 0,76.0,0,
2,56160, Note_off_c, 0,65.0,0,
2,56160, Note_on_c, 0,40.0,82,
2,56640, Note_off_c, 0,29.0,0,
2,56640, Note_off_c, 0,41.0,0,
2,57120, Note_off_c, 0,52.0,0,
2,57120, Note_on_c, 0,45.0,86,
2,57600, Note_off_c, 0,67.0,0,
2,57600, Note_on_c, 0,50.0,83,
2,57600, Note_on_c, 0,69.0,85,
2,57600, Note_on_c, 0,53.0,79,
2,57600, Note_off_c, 0,60.0,0,
2,58080, Note_on_c, 0,74.0,73,
2,58080, Note_off_c, 0,72.0,0,
2,58560, Note_on_c, 0,31.0,71,
2,58560, Note_on_c, 0,60.0,74,
2,58560, Note_off_c, 0,53.0,0,
2,58560, Note_on_c, 0,53.0,85,
2,58560, Note_off_c, 0,69.0,0,
2,58560, Note_off_c, 0,60.0,0,
2,59040, Note_on_c, 0,69.0,86,
2,59040, Note_on_c, 0,60.0,81,
2,59040, Note_off_c, 0,57.0,0,
2,59040, Note_off_c, 0,45.0,0,
2,59040, Note_on_c, 0,45.0,72,
2,59040, Note_on_c, 0,33.0,77,
2,59520, Note_off_c, 0,64.0,0,
2,59520, Note_off_c, 0,45.0,0,
2,60000, Note_off_c, 0,33.0,0,
2,60000, Note_on_c, 0,45.0,73,
2,60000, Note_off_c, 0,45.0,0,
2,60000, Note_on_c, 0,45.0,69,
2,60000, Note_on_c, 0,57.0,73,
2,60000, Note_off_c, 0,45.0,0,
2,60480, Note_on_c, 0,45.0,76,
2,60480, Note_off_c, 0,45.0,0,
2,60480, Note_off_c, 0,38.0,0,
2,60480, Note_on_c, 0,33.0,80,
2,60480, Note_on_c, 0,45.0,62,
2,60480, Note_off_c, 0,45.0,0,
2,60960, Note_off_c, 0,33.0,0,
2,60960, Note_on_c, 0,45.0,70,
2,60960, Note_on_c, 0,33.0,83,
2,60960, Note_off_c, 0,45.0,0,
2,60960, Note_off_c, 0,33.0,0,
2,60960, Note_on_c, 0,45.0,73,
2,61440, Note_off_c, 0,45.0,0,
2,61440, Note_on_c, 0,45.0,82,
2,61440, Note_off_c, 0,50.0,0,
2,61440, Note_on_c, 0,47.0,71,
2,61440, Note_off_c, 0,95.0,0,
2,61440, Note_on_c, 0,41.0,84,
2,61920, Note_off_c, 0,57.0,0,
2,61920, Note_on_c, 0,33.0,82,
2,62400, Note_off_c, 0,45.0,0,
2,62400, Note_off_c, 0,74.0,0,
2,62880, Note_on_c, 0,65.0,78,
2,62880, Note_off_c, 0,41.0,0,
2,63360, Note_on_c, 0,57.0,83,
2,63360, Note_off_c, 0,69.0,0,
2,63360, Note_off_c, 0,57.0,0,
2,63360, Note_on_c, 0,41.0,77,
2,63360, Note_on_c, 0,77.0,78,
2,63360, Note_on_c, 0,29.0,70,
2,63840, Note_off_c, 0,65.0,0,
2,63840, Note_on_c, 0,65.0,80,
2,64080, Note_on_c, 0,46.0,81,
2,64080, Note_on_c, 0,57.0,79,
2,64320, Note_off_c, 0,47.0,0,
2,64320, Note_off_c, 0,57.0,0,
2,64800, Note_on_c, 0,57.0,67,
2,64800, Note_on_c, 0,45.0,77,
2,65280, Note_off_c, 0,45.0,0,
2,65280, Note_on_c, 0,45.0,77,
2,65520, Note_off_c, 0,45.0,0,
2,65520, Note_on_c, 0,45.0,76,
2,65760, Note_on_c, 0,64.0,70,
2,65760, Note_off_c, 0,33.0,0,
2,66240, Note_off_c, 0,45.0,0,
2,66240, Note_on_c, 0,45.0,77,
2,66240, Note_off_c, 0,45.0,0,
2,66240, Note_on_c, 0,45.0,81,
2,66720, Note_off_c, 0,60.0,0,
2,66720, Note_on_c, 0,60.0,80,
2,66960, Note_off_c, 0,31.0,0,
2,66960, Note_on_c, 0,43.0,78,
2,67200, Note_off_c, 0,41.0,0,
2,67200, Note_off_c, 0,40.0,0,
2,67680, Note_off_c, 0,45.0,0,
2,67680, Note_on_c, 0,45.0,79,
2,68160, Note_off_c, 0,45.0,0,
2,68160, Note_off_c, 0,83.0,0,
2,68400, Note_off_c, 0,68.0,0,
2,68400, Note_on_c, 0,67.0,68,
2,68640, Note_off_c, 0,67.0,0,
2,68640, Note_off_c, 0,64.0,0,
2,69120, Note_on_c, 0,76.0,78,
2,69120, Note_on_c, 0,45.0,80,
2,69120, Note_off_c, 0,45.0,0,
2,69120, Note_on_c, 0,64.0,78,
2,69600, Note_off_c, 0,76.0,0,
2,69600, Note_on_c, 0,69.0,80,
2,70080, Note_off_c, 0,60.0,0,
2,70080, Note_off_c, 0,53.0,0,
2,70080, Note_on_c, 0,31.0,80,
2,70080, Note_on_c, 0,53.0,76,
2,70080, Note_off_c, 0,43.0,0,
2,70080, Note_off_c, 0,53.0,0,
2,70560, Note_on_c, 0,74.0,75,
2,70560, Note_on_c, 0,43.0,77,
2,70560, Note_off_c, 0,43.0,0,
2,70560, Note_on_c, 0,33.0,81,
2,70560, Note_on_c, 0,45.0,84,
2,70560, Note_on_c, 0,60.0,76,
2,71040, Note_off_c, 0,33.0,0,
2,71040, Note_off_c, 0,57.0,0,
2,71520, Note_on_c, 0,105.0,70,
2,71520, Note_on_c, 0,33.0,72,
2,71520, Note_off_c, 0,33.0,0,
2,71520, Note_off_c, 0,31.0,0,
2,71520, Note_on_c, 0,62.0,73,
2,71520, Note_off_c, 0,48.0,0,
2,72000, Note_off_c, 0,34.0,0,
2,72000, Note_on_c, 0,40.0,70,
2,72000, Note_off_c, 0,65.0,0,
2,72000, Note_on_c, 0,50.0,66,
2,72000, Note_on_c, 0,65.0,81,
2,72000, Note_off_c, 0,77.0,0,
2,72480, Note_off_c, 0,50.0,0,
2,72480, Note_on_c, 0,50.0,75,
2,72480, Note_on_c, 0,57.0,57,
2,72480, Note_on_c, 0,48.0,73,
2,72480, Note_off_c, 0,45.0,0,
2,72480, Note_on_c, 0,45.0,76,
2,72960, Note_off_c, 0,45.0,0,
2,72960, Note_on_c, 0,45.0,77,
2,72960, Note_on_c, 0,43.0,78,
2,72960, Note_on_c, 0,52.0,75,
2,72960, Note_on_c, 0,72.0,86,
2,72960, Note_on_c, 0,53.0,77,
2,73440, Note_off_c, 0,45.0,0,
2,73440, Note_on_c, 0,45.0,73,
2,73920, Note_off_c, 0,105.0,0,
2,73920, Note_off_c, 0,45.0,0,
2,74400, Note_off_c, 0,64.0,0,
2,74400, Note_on_c, 0,45.0,79,
2,74880, Note_off_c, 0,45.0,0,
2,74880, Note_on_c, 0,33.0,83,
2,74880, Note_on_c, 0,45.0,80,
2,74880, Note_on_c, 0,76.0,72,
2,74880, Note_off_c, 0,52.0,0,
2,74880, Note_off_c, 0,53.0,0,
2,75360, Note_off_c, 0,45.0,0,
2,75360, Note_off_c, 0,62.0,0,
2,75600, Note_on_c, 0,45.0,80,
2,75600, Note_on_c, 0,38.0,82,
2,75840, Note_off_c, 0,38.0,0,
2,75840, Note_off_c, 0,45.0,0,
2,76320, Note_off_c, 0,33.0,0,
2,76320, Note_on_c, 0,45.0,77,
2,76800, Note_off_c, 0,45.0,0,
2,76800, Note_on_c, 0,45.0,68,
2,77040, Note_off_c, 0,45.0,0,
2,77040, Note_on_c, 0,53.0,77,
2,77280, Note_on_c, 0,52.0,83,
2,77280, Note_off_c, 0,58.0,0,
2,77760, Note_off_c, 0,43.0,0,
2,77760, Note_off_c, 0,69.0,0,
2,77760, Note_on_c, 0,69.0,79,
2,77760, Note_on_c, 0,62.0,72,
2,78240, Note_off_c, 0,60.0,0,
2,78240, Note_on_c, 0,31.0,83,
2,78480, Note_off_c, 0,52.0,0,
2,78480, Note_on_c, 0,43.0,74,
2,78720, Note_on_c, 0,64.0,81,
2,78720, Note_off_c, 0,43.0,0,
2,79200, Note_off_c, 0,53.0,0,
2,79200, Note_on_c, 0,43.0,94,
2,79680, Note_off_c, 0,31.0,0,
2,79680, Note_on_c, 0,45.0,88,
2,79920, Note_off_c, 0,74.0,0,
2,79920, Note_off_c, 0,43.0,0,
2,80160, Note_on_c, 0,70.0,68,
2,80160, Note_on_c, 0,28.0,85,
2,80640, Note_on_c, 0,41.0,83,
2,80640, Note_off_c, 0,64.0,0,
2,80640, Note_off_c, 0,76.0,0,
2,80640, Note_on_c, 0,64.0,83,
2,81120, Note_off_c, 0,40.0,0,
2,81120, Note_off_c, 0,29.0,0,
2,81600, Note_on_c, 0,76.0,83,
2,81600, Note_off_c, 0,28.0,0,
2,81600, Note_off_c, 0,41.0,0,
2,81600, Note_off_c, 0,62.0,0,
2,81600, Note_on_c, 0,41.0,73,
2,81600, Note_off_c, 0,41.0,0,
2,82080, Note_on_c, 0,41.0,73,
2,82080, Note_off_c, 0,65.0,0,
2,82080, Note_on_c, 0,40.0,73,
2,82080, Note_off_c, 0,40.0,0,
2,82080, Note_on_c, 0,60.0,82,
2,82080, Note_on_c, 0,40.0,80,
2,82560, Note_on_c, 0,65.0,80,
2,82560, Note_off_c, 0,46.0,0,
2,83040, Note_off_c, 0,41.0,0,
2,83040, Note_on_c, 0,93.0,73,
2,83040, Note_off_c, 0,57.0,0,
2,83040, Note_off_c, 0,55.0,0,
2,83040, Note_off_c, 0,50.0,0,
2,83040, Note_off_c, 0,64.0,0,
2,83520, Note_on_c, 0,46.0,76,
2,83520, Note_off_c, 0,65.0,0,
2,83520, Note_on_c, 0,41.0,76,
2,83520, Note_on_c, 0,65.0,68,
2,83520, Note_off_c, 0,76.0,0,
2,83520, Note_on_c, 0,29.0,70,
2,84000, Note_off_c, 0,41.0,0,
2,84000, Note_on_c, 0,62.0,70,
2,84000, Note_on_c, 0,76.0,86,
2,84000, Note_on_c, 0,28.0,76,
2,84000, Note_off_c, 0,46.0,0,
2,84000, Note_on_c, 0,41.0,73,
2,84480, Note_off_c, 0,41.0,0,
2,84480, Note_off_c, 0,62.0,0,
2,84480, Note_on_c, 0,41.0,78,
2,84480, Note_on_c, 0,64.0,75,
2,84480, Note_off_c, 0,41.0,0,
2,84480, Note_on_c, 0,34.0,77,
2,84960, Note_on_c, 0,77.0,85,
2,84960, Note_on_c, 0,52.0,86,
2,85440, Note_off_c, 0,45.0,0,
2,85440, Note_on_c, 0,45.0,74,
2,85920, Note_on_c, 0,62.0,70,
2,85920, Note_off_c, 0,45.0,0,
2,85920, Note_on_c, 0,45.0,70,
2,85920, Note_on_c, 0,57.0,71,
2,85920, Note_on_c, 0,50.0,79,
2,85920, Note_off_c, 0,50.0,0,
2,86400, Note_on_c, 0,68.0,77,
2,86400, Note_off_c, 0,57.0,0,
2,86400, Note_on_c, 0,57.0,83,
2,86400, Note_off_c, 0,57.0,0,
2,86400, Note_off_c, 0,52.0,0,
2,86400, Note_on_c, 0,52.0,77,
2,86880, Note_off_c, 0,45.0,0,
2,86880, Note_on_c, 0,84.0,76,
2,87120, Note_off_c, 0,68.0,0,
2,87120, Note_off_c, 0,52.0,0,
2,87360, Note_on_c, 0,50.0,79,
2,87360, Note_on_c, 0,57.0,82,
2,87840, Note_on_c, 0,43.0,72,
2,87840, Note_off_c, 0,60.0,0,
2,88320, Note_off_c, 0,69.0,0,
2,88320, Note_off_c, 0,48.0,0,
2,88560, Note_on_c, 0,55.0,76,
2,88560, Note_off_c, 0,57.0,0,
2,88800, Note_on_c, 0,52.0,82,
2,88800, Note_off_c, 0,76.0,0,
2,89280, Note_on_c, 0,45.0,79,
2,89280, Note_on_c, 0,60.0,75,
2,89280, Note_on_c, 0,46.0,77,
2,89280, Note_on_c, 0,41.0,81,
2,89760, Note_on_c, 0,47.0,79,
2,89760, Note_off_c, 0,64.0,0,
2,90000, Note_off_c, 0,41.0,0,
2,90000, Note_off_c, 0,65.0,0,
2,90240, Note_on_c, 0,64.0,76,
2,90240, Note_off_c, 0,46.0,0,
2,90720, Note_off_c, 0,50.0,0,
2,90720, Note_off_c, 0,64.0,0,
2,91200, Note_off_c, 0,40.0,0,
2,91200, Note_on_c, 0,65.0,79,
2,91440, Note_on_c, 0,46.0,75,
2,91440, Note_off_c, 0,65.0,0,
2,91680, Note_on_c, 0,65.0,71,
2,91680, Note_off_c, 0,65.0,0,
2,92160, Note_on_c, 0,65.0,85,
2,92160, Note_on_c, 0,50.0,77,
2,92400, Note_on_c, 0,40.0,74,
2,92400, Note_off_c, 0,65.0,0,
2,92640, Note_off_c, 0,77.0,0,
2,92640, Note_off_c, 0,40.0,0,
2,92880, Note_on_c, 0,64.0,77,
2,92880, Note_on_c, 0,77.0,68,
2,93120, Note_on_c, 0,41.0,80,
2,93120, Note_off_c, 0,77.0,0,
2,93600, Note_on_c, 0,95.0,77,
2,93600, Note_off_c, 0,41.0,0,
2,93840, Note_on_c, 0,41.0,72,
2,93840, Note_on_c, 0,76.0,81,
2,94080, Note_off_c, 0,50.0,0,
2,94080, Note_on_c, 0,74.0,69,
2,94320, Note_off_c, 0,47.0,0,
2,94320, Note_off_c, 0,41.0,0,
2,94560, Note_off_c, 0,95.0,0,
2,94560, Note_off_c, 0,76.0,0,
2,95040, Note_off_c, 0,64.0,0,
2,95040, Note_on_c, 0,65.0,78,
2,95280, Note_on_c, 0,64.0,77,
2,95280, Note_on_c, 0,41.0,67,
2,95520, Note_off_c, 0,41.0,0,
2,95520, Note_on_c, 0,76.0,76,
2,95760, Note_off_c, 0,62.0,0,
2,95760, Note_on_c, 0,41.0,68,
2,96000, Note_off_c, 0,41.0,0,
2,96000, Note_on_c, 0,77.0,77,
2,96480, Note_off_c, 0,64.0,0,
2,96480, Note_off_c, 0,77.0,0,
2,96720, Note_on_c, 0,50.0,80,
2,96720, Note_on_c, 0,71.0,80,
2,96960, Note_on_c, 0,57.0,67,
2,96960, Note_off_c, 0,57.0,0,
2,97200, Note_off_c, 0,50.0,0,
2,97200, Note_on_c, 0,57.0,70,
2,97440, Note_off_c, 0,45.0,0,
2,97440, Note_on_c, 0,45.0,83,
2,97920, Note_on_c, 0,33.0,86,
2,97920, Note_off_c, 0,45.0,0,
2,97920, Note_on_c, 0,45.0,86,
2,97920, Note_off_c, 0,45.0,0,
2,98160, Note_on_c, 0,40.0,81,
2,98160, Note_on_c, 0,41.0,56,
2,98400, Note_off_c, 0,40.0,0,
2,98400, Note_off_c, 0,65.0,0,
2,98640, Note_on_c, 0,64.0,73,
2,98640, Note_off_c, 0,64.0,0,
2,98880, Note_off_c, 0,41.0,0,
2,98880, Note_on_c, 0,50.0,74,
2,99360, Note_off_c, 0,29.0,0,
2,99360, Note_off_c, 0,76.0,0,
2,99360, Note_on_c, 0,62.0,78,
2,99360, Note_on_c, 0,65.0,83,
2,99360, Note_off_c, 0,57.0,0,
2,99360, Note_on_c, 0,47.0,85,
2,99600, Note_off_c, 0,47.0,0,
2,99600, Note_off_c, 0,65.0,0,
2,99840, Note_off_c, 0,74.0,0,
2,99840, Note_on_c, 0,45.0,80,
2,100080, Note_on_c, 0,64.0,57,
2,100080, Note_off_c, 0,45.0,0,
2,100320, Note_on_c, 0,45.0,71,
2,100320, Note_off_c, 0,45.0,0,
2,100800, Note_on_c, 0,57.0,73,
2,100800, Note_on_c, 0,79.0,81,
2,100800, Note_off_c, 0,50.0,0,
2,100800, Note_off_c, 0,57.0,0,
2,100800, Note_off_c, 0,62.0,0,
2,100800, Note_on_c, 0,50.0,75,
2,101040, Note_off_c, 0,50.0,0,
2,101040, Note_off_c, 0,79.0,0,
2,101280, Note_on_c, 0,69.0,81,
2,101280, Note_off_c, 0,69.0,0,
2,101520, Note_off_c, 0,43.0,0,
2,101520, Note_off_c, 0,70.0,0,
2,101760, Note_off_c, 0,64.0,0,
2,101760, Note_on_c, 0,62.0,83,
2,102240, Note_off_c, 0,52.0,0,
2,102240, Note_on_c, 0,57.0,63,
2,102240, Note_off_c, 0,55.0,0,
2,102240, Note_on_c, 0,47.0,73,
2,102240, Note_on_c, 0,69.0,76,
2,102240, Note_on_c, 0,45.0,83,
2,102480, Note_on_c, 0,76.0,80,
2,102480, Note_on_c, 0,58.0,83,
2,102720, Note_off_c, 0,76.0,0,
2,102720, Note_off_c, 0,69.0,0,
2,102960, Note_on_c, 0,56.0,81,
2,102960, Note_on_c, 0,53.0,73,
2,103200, Note_on_c, 0,36.0,73,
2,103200, Note_on_c, 0,64.0,61,
2,103200, Note_off_c, 0,45.0,0,
2,103200, Note_off_c, 0,64.0,0,
2,103200, Note_on_c, 0,45.0,73,
2,103200, Note_off_c, 0,45.0,0,
2,103680, Note_on_c, 0,45.0,82,
2,103680, Note_off_c, 0,45.0,0,
2,103680, Note_on_c, 0,45.0,82,
2,103680, Note_off_c, 0,45.0,0,
2,103680, Note_on_c, 0,45.0,85,
2,103680, Note_off_c, 0,45.0,0,
2,103920, Note_on_c, 0,45.0,90,
2,103920, Note_off_c, 0,45.0,0,
2,104160, Note_off_c, 0,33.0,0,
2,104160, Note_on_c, 0,45.0,71,
2,104400, Note_on_c, 0,33.0,68,
2,104400, Note_on_c, 0,65.0,77,
2,105120, Note_on_c, 0,64.0,83,
2,105120, Note_on_c, 0,41.0,87,
2,105120, Note_on_c, 0,67.0,85,
2,105120, Note_on_c, 0,55.0,70,
2,105120, Note_on_c, 0,69.0,68,
2,105120, Note_on_c, 0,48.0,81,
2,105360, Note_off_c, 0,45.0,0,
2,105360, Note_off_c, 0,53.0,0,
2,105600, Note_on_c, 0,31.0,81,
2,105600, Note_on_c, 0,83.0,86,
2,105840, Note_on_c, 0,68.0,87,
2,105840, Note_off_c, 0,41.0,0,
2,106560, Note_on_c, 0,41.0,73,
2,106560, Note_on_c, 0,76.0,67,
2,106560, Note_off_c, 0,64.0,0,
2,106560, Note_off_c, 0,65.0,0,
2,106560, Note_off_c, 0,62.0,0,
2,106560, Note_off_c, 0,76.0,0,
2,106800, Note_on_c, 0,65.0,77,
2,106800, Note_off_c, 0,65.0,0,
2,107040, Note_off_c, 0,41.0,0,
2,107040, Note_on_c, 0,41.0,75,
2,107280, Note_on_c, 0,64.0,79,
2,107280, Note_off_c, 0,60.0,0,
2,108000, Note_off_c, 0,44.0,0,
2,108000, Note_on_c, 0,52.0,85,
2,108000, Note_off_c, 0,52.0,0,
2,108000, Note_on_c, 0,50.0,74,
2,108000, Note_off_c, 0,50.0,0,
2,108000, Note_off_c, 0,72.0,0,
2,108240, Note_on_c, 0,62.0,66,
2,108240, Note_off_c, 0,41.0,0,
2,108480, Note_on_c, 0,65.0,81,
2,108480, Note_on_c, 0,74.0,81,
2,108720, Note_off_c, 0,65.0,0,
2,108720, Note_on_c, 0,77.0,86,
2,109440, Note_off_c, 0,62.0,0,
2,109440, Note_on_c, 0,45.0,79,
2,109440, Note_on_c, 0,79.0,80,
2,109440, Note_off_c, 0,57.0,0,
2,109440, Note_on_c, 0,52.0,80,
2,109440, Note_on_c, 0,50.0,64,
2,109680, Note_off_c, 0,52.0,0,
2,109680, Note_on_c, 0,57.0,78,
2,109920, Note_on_c, 0,76.0,78,
2,109920, Note_on_c, 0,53.0,83,
2,110160, Note_on_c, 0,62.0,80,
2,110160, Note_off_c, 0,76.0,0,
2,110400, Note_off_c, 0,64.0,0,
2,110400, Note_on_c, 0,60.0,83,
2,110880, Note_off_c, 0,45.0,0,
2,110880, Note_on_c, 0,45.0,72,
2,110880, Note_off_c, 0,45.0,0,
2,110880, Note_on_c, 0,64.0,58,
2,110880, Note_off_c, 0,64.0,0,
2,110880, Note_on_c, 0,40.0,77,
2,111120, Note_on_c, 0,64.0,77,
2,111120, Note_off_c, 0,64.0,0,
2,111360, Note_on_c, 0,29.0,86,
2,111360, Note_on_c, 0,76.0,84,
2,111600, Note_off_c, 0,50.0,0,
2,111600, Note_on_c, 0,52.0,80,
2,111840, Note_off_c, 0,52.0,0,
2,111840, Note_off_c, 0,47.0,0,
2,112320, Note_off_c, 0,57.0,0,
2,112320, Note_on_c, 0,57.0,79,
2,112320, Note_on_c, 0,50.0,61,
2,112320, Note_off_c, 0,31.0,0,
2,112320, Note_on_c, 0,43.0,76,
2,112320, Note_off_c, 0,43.0,0,
2,112560, Note_off_c, 0,69.0,0,
2,112560, Note_on_c, 0,45.0,80,
2,112800, Note_off_c, 0,45.0,0,
2,112800, Note_on_c, 0,45.0,80,
2,113040, Note_on_c, 0,64.0,83,
2,113040, Note_off_c, 0,45.0,0,
2,113280, Note_off_c, 0,62.0,0,
2,113280, Note_on_c, 0,45.0,84,
2,113760, Note_off_c, 0,45.0,0,
2,113760, Note_off_c, 0,76.0,0,
2,113760, Note_on_c, 0,65.0,81,
2,113760, Note_off_c, 0,74.0,0,
2,113760, Note_off_c, 0,57.0,0,
2,113760, Note_on_c, 0,52.0,78,
2,114000, Note_off_c, 0,53.0,0,
2,114000, Note_on_c, 0,72.0,80,
2,114240, Note_on_c, 0,31.0,90,
2,114240, Note_off_c, 0,52.0,0,
2,114480, Note_on_c, 0,74.0,94,
2,114480, Note_off_c, 0,65.0,0,
2,114720, Note_on_c, 0,41.0,76,
2,114720, Note_on_c, 0,65.0,80,
2,114720, Note_off_c, 0,64.0,0,
2,114720, Note_on_c, 0,45.0,87,
2,114720, Note_off_c, 0,33.0,0,
2,114720, Note_off_c, 0,41.0,0,
2,115200, Note_on_c, 0,76.0,87,
2,115200, Note_off_c, 0,29.0,0,
2,115200, Note_on_c, 0,41.0,81,
2,115200, Note_on_c, 0,57.0,74,
2,115200, Note_on_c, 0,52.0,74,
2,115200, Note_off_c, 0,60.0,0,
2,115680, Note_off_c, 0,31.0,0,
2,115680, Note_on_c, 0,31.0,71,
2,116160, Note_on_c, 0,43.0,80,
2,116160, Note_off_c, 0,48.0,0,
2,116160, Note_on_c, 0,53.0,84,
2,116160, Note_on_c, 0,62.0,84,
2,116160, Note_off_c, 0,45.0,0,
2,116160, Note_off_c, 0,72.0,0,
2,116640, Note_off_c, 0,50.0,0,
2,116640, Note_on_c, 0,47.0,74,
2,116640, Note_off_c, 0,57.0,0,
2,116640, Note_off_c, 0,52.0,0,
2,116640, Note_on_c, 0,52.0,75,
2,116640, Note_on_c, 0,50.0,79,
2,117120, Note_off_c, 0,52.0,0,
2,117120, Note_off_c, 0,50.0,0,
2,117600, Note_off_c, 0,56.0,0,
2,117600, Note_on_c, 0,45.0,74,
2,117600, Note_off_c, 0,45.0,0,
2,117600, Note_on_c, 0,64.0,70,
2,117600, Note_on_c, 0,52.0,69,
2,117600, Note_off_c, 0,55.0,0,
2,118080, Note_on_c, 0,72.0,78,
2,118080, Note_on_c, 0,50.0,77,
2,118080, Note_off_c, 0,79.0,0,
2,118080, Note_off_c, 0,52.0,0,
2,118080, Note_off_c, 0,50.0,0,
2,118080, Note_on_c, 0,57.0,68,
2,118560, Note_on_c, 0,52.0,79,
2,118560, Note_on_c, 0,50.0,75,
2,118560, Note_on_c, 0,33.0,76,
2,118560, Note_on_c, 0,45.0,76,
2,118560, Note_off_c, 0,45.0,0,
2,118560, Note_on_c, 0,45.0,72,
2,119040, Note_off_c, 0,45.0,0,
2,119040, Note_on_c, 0,45.0,88,
2,119040, Note_off_c, 0,52.0,0,
2,119040, Note_off_c, 0,31.0,0,
2,119040, Note_on_c, 0,48.0,80,
2,119040, Note_off_c, 0,58.0,0,
2,119520, Note_off_c, 0,45.0,0,
2,119520, Note_on_c, 0,45.0,74,
2,120000, Note_off_c, 0,33.0,0,
2,120000, Note_off_c, 0,45.0,0,
2,120480, Note_on_c, 0,58.0,79,
2,120480, Note_off_c, 0,74.0,0,
2,120960, Note_on_c, 0,69.0,80,
2,120960, Note_on_c, 0,74.0,82,
2,120960, Note_off_c, 0,43.0,0,
2,120960, Note_on_c, 0,45.0,78,
2,120960, Note_off_c, 0,45.0,0,
2,120960, Note_on_c, 0,33.0,69,
2,121440, Note_on_c, 0,31.0,70,
2,121440, Note_on_c, 0,43.0,77,
2,121920, Note_on_c, 0,52.0,83,
2,121920, Note_off_c, 0,62.0,0,
2,121920, Note_off_c, 0,74.0,0,
2,121920, Note_on_c, 0,45.0,77,
2,121920, Note_off_c, 0,45.0,0,
2,121920, Note_on_c, 0,45.0,76,
2,122400, Note_off_c, 0,45.0,0,
2,122400, Note_off_c, 0,41.0,0,
2,122400, Note_on_c, 0,60.0,73,
2,122400, Note_on_c, 0,95.0,70,
2,122400, Note_on_c, 0,41.0,70,
2,122400, Note_off_c, 0,65.0,0,
2,122880, Note_off_c, 0,64.0,0,
2,122880, Note_on_c, 0,65.0,73,
2,123360, Note_off_c, 0,76.0,0,
2,123360, Note_on_c, 0,64.0,72,
2,123360, Note_on_c, 0,74.0,74,
2,123360, Note_off_c, 0,64.0,0,
2,123360, Note_off_c, 0,74.0,0,
2,123360, Note_on_c, 0,64.0,82,
2,123840, Note_off_c, 0,65.0,0,
2,123840, Note_on_c, 0,62.0,59,
2,123840, Note_off_c, 0,41.0,0,
2,123840, Note_off_c, 0,64.0,0,
2,123840, Note_off_c, 0,77.0,0,
2,123840, Note_off_c, 0,84.0,0,
2,124320, Note_on_c, 0,29.0,63,
2,124320, Note_on_c, 0,64.0,79,
2,124320, Note_off_c, 0,29.0,0,
2,124320, Note_on_c, 0,41.0,75,
2,124320, Note_off_c, 0,47.0,0,
2,124320, Note_off_c, 0,41.0,0,
2,124800, Note_off_c, 0,95.0,0,
2,124800, Note_on_c, 0,76.0,77,
2,124800, Note_on_c, 0,41.0,75,
2,124800, Note_on_c, 0,45.0,96,
2,124800, Note_off_c, 0,45.0,0,
2,124800, Note_off_c, 0,68.0,0,
2,125280, Note_off_c, 0,57.0,0,
2,125280, Note_on_c, 0,55.0,94,
2,125760, Note_off_c, 0,48.0,0,
2,125760, Note_off_c, 0,60.0,0,
2,126240, Note_off_c, 0,53.0,0,
2,126240, Note_off_c, 0,69.0,0,
2,126720, Note_off_c, 0,43.0,0,
2,126720, Note_on_c, 0,48.0,70,
2,126720, Note_on_c, 0,45.0,84,
2,126720, Note_off_c, 0,45.0,0,
2,126720, Note_off_c, 0,33.0,0,
2,126720, Note_on_c, 0,45.0,81,
2,127200, Note_off_c, 0,45.0,0,
2,127200, Note_on_c, 0,45.0,81,
2,127680, Note_off_c, 0,45.0,0,
2,127680, Note_on_c, 0,45.0,84,
2,127680, Note_on_c, 0,33.0,74,
2,127680, Note_on_c, 0,43.0,73,
2,127680, Note_off_c, 0,31.0,0,
2,127680, Note_on_c, 0,60.0,69,
2,128160, Note_off_c, 0,64.0,0,
2,128160, Note_off_c, 0,41.0,0,
2,128160, Note_on_c, 0,29.0,76,
2,128160, Note_on_c, 0,74.0,84,
2,128160, Note_off_c, 0,45.0,0,
2,128160, Note_on_c, 0,45.0,84,
2,128640, Note_off_c, 0,45.0,0,
2,128640, Note_on_c, 0,45.0,74,
2,129120, Note_off_c, 0,45.0,0,
2,129120, Note_on_c, 0,45.0,69,
2,129120, Note_on_c, 0,38.0,68,
2,129120, Note_off_c, 0,45.0,0,
2,129120, Note_on_c, 0,45.0,69,
2,129120, Note_off_c, 0,45.0,0,
2,129600, Note_on_c, 0,45.0,75,
2,129600, Note_on_c, 0,64.0,78,
2,129600, Note_off_c, 0,74.0,0,
2,129600, Note_on_c, 0,69.0,79,
2,129600, Note_on_c, 0,70.0,79,
2,129600, Note_off_c, 0,43.0,0,
2,130080, Note_off_c, 0,52.0,0,
2,130080, Note_off_c, 0,36.0,0,
2,130080, Note_off_c, 0,64.0,0,
2,130080, Note_on_c, 0,31.0,80,
2,130080, Note_off_c, 0,62.0,0,
2,130080, Note_on_c, 0,64.0,80,
2,130560, Note_off_c, 0,45.0,0,
2,130560, Note_on_c, 0,41.0,79,
2,130560, Note_off_c, 0,41.0,0,
2,130560, Note_off_c, 0,50.0,0,
2,130560, Note_on_c, 0,79.0,76,
2,130560, Note_off_c, 0,69.0,0,
2,131040, Note_off_c, 0,67.0,0,
2,131040, Note_on_c, 0,65.0,72,
2,131520, Note_off_c, 0,93.0,0,
2,131520, Note_off_c, 0,64.0,0,
2,132000, Note_on_c, 0,64.0,70,
2,132000, Note_off_c, 0,65.0,0,
2,132000, Note_on_c, 0,74.0,70,
2,132000, Note_off_c, 0,64.0,0,
2,132000, Note_on_c, 0,64.0,72,
2,132000, Note_off_c, 0,64.0,0,
2,132480, Note_on_c, 0,41.0,71,
2,132480, Note_off_c, 0,41.0,0,
2,132480, Note_off_c, 0,60.0,0,
2,132480, Note_on_c, 0,64.0,73,
2,132480, Note_off_c, 0,74.0,0,
2,132480, Note_on_c, 0,50.0,83,
2,132960, Note_off_c, 0,72.0,0,
2,132960, Note_on_c, 0,57.0,84,
2,133440, Note_off_c, 0,50.0,0,
2,133440, Note_on_c, 0,50.0,73,
2,133920, Note_off_c, 0,57.0,0,
2,133920, Note_on_c, 0,69.0,76,
2,134400, Note_on_c, 0,53.0,77,
2,134400, Note_off_c, 0,70.0,0,
2,134880, Note_on_c, 0,72.0,66,
2,134880, Note_off_c, 0,48.0,0,
2,135360, Note_off_c, 0,69.0,0,
2,135360, Note_on_c, 0,48.0,74,
2,135840, Note_off_c, 0,72.0,0,
2,135840, Note_on_c, 0,47.0,83,
2,136320, Note_on_c, 0,52.0,73,
2,136320, Note_on_c, 0,57.0,73,
2,136800, Note_off_c, 0,50.0,0,
2,136800, Note_on_c, 0,50.0,75,
2,136800, Note_off_c, 0,50.0,0,
2,136800, Note_off_c, 0,28.0,0,
2,137280, Note_on_c, 0,74.0,68,
2,137280, Note_on_c, 0,41.0,71,
2,137760, Note_on_c, 0,77.0,68,
2,137760, Note_on_c, 0,67.0,73,
2,138240, Note_off_c, 0,57.0,0,
2,138240, Note_on_c, 0,57.0,85,
2,138240, Note_on_c, 0,50.0,77,
2,138240, Note_off_c, 0,74.0,0,
2,138720, Note_on_c, 0,69.0,82,
2,138720, Note_off_c, 0,69.0,0,
2,139200, Note_on_c, 0,43.0,80,
2,139200, Note_off_c, 0,41.0,0,
2,139200, Note_off_c, 0,50.0,0,
2,139200, Note_off_c, 0,52.0,0,
2,139200, Note_on_c, 0,50.0,71,
2,139200, Note_on_c, 0,60.0,69,
2,139680, Note_off_c, 0,58.0,0,
2,139680, Note_off_c, 0,50.0,0,
2,139680, Note_on_c, 0,52.0,71,
2,139680, Note_off_c, 0,57.0,0,
2,139680, Note_on_c, 0,50.0,86,
2,139680, Note_off_c, 0,52.0,0,
2,140160, Note_on_c, 0,45.0,79,
2,140160, Note_on_c, 0,58.0,76,
2,140640, Note_on_c, 0,69.0,67,
2,140640, Note_on_c, 0,52.0,77,
2,140640, Note_off_c, 0,67.0,0,
2,140640, Note_off_c, 0,55.0,0,
2,140640, Note_off_c, 0,47.0,0,
2,140640, Note_off_c, 0,64.0,0,
2,141120, Note_off_c, 0,48.0,0,
2,141120, Note_off_c, 0,52.0,0,
2,141120, Note_off_c, 0,58.0,0,
2,141120, Note_on_c, 0,64.0,75,
2,141120, Note_off_c, 0,45.0,0,
2,141120, Note_off_c, 0,50.0,0,
2,141600, Note_on_c, 0,50.0,70,
2,141600, Note_off_c, 0,69.0,0,
2,141600, Note_on_c, 0,58.0,78,
2,141600, Note_on_c, 0,48.0,80,
2,141600, Note_off_c, 0,53.0,0,
2,141600, Note_on_c, 0,69.0,80,
2,142080, Note_off_c, 0,58.0,0,
2,142080, Note_off_c, 0,31.0,0,
2,142080, Note_on_c, 0,53.0,83,
2,142080, Note_off_c, 0,48.0,0,
2,142080, Note_on_c, 0,74.0,83,
2,142080, Note_off_c, 0,43.0,0,
2,142560, Note_on_c, 0,43.0,84,
2,142560, Note_on_c, 0,62.0,74,
2,143040, Note_on_c, 0,58.0,81,
2,143040, Note_off_c, 0,60.0,0,
2,143520, Note_on_c, 0,60.0,69,
2,143520, Note_on_c, 0,45.0,81,
2,144000, Note_off_c, 0,45.0,0,
2,144000, Note_on_c, 0,45.0,81,
2,144000, Note_off_c, 0,45.0,0,
2,144000, Note_on_c, 0,45.0,69,
2,144000, Note_off_c, 0,45.0,0,
2,144000, Note_off_c, 0,76.0,0,
2,144480, Note_on_c, 0,45.0,83,
2,144480, Note_off_c, 0,45.0,0,
2,144960, Note_on_c, 0,76.0,79,
2,144960, Note_on_c, 0,41.0,78,
2,144960, Note_off_c, 0,41.0,0,
2,144960, Note_on_c, 0,57.0,79,
2,144960, Note_on_c, 0,68.0,74,
2,144960, Note_off_c, 0,50.0,0,
2,145440, Note_on_c, 0,72.0,83,
2,145440, Note_on_c, 0,55.0,84,
2,145920, Note_on_c, 0,52.0,86,
2,145920, Note_on_c, 0,50.0,72,
2,145920, Note_off_c, 0,52.0,0,
2,145920, Note_off_c, 0,57.0,0,
2,145920, Note_off_c, 0,50.0,0,
2,145920, Note_on_c, 0,47.0,70,
2,146400, Note_on_c, 0,50.0,74,
2,146400, Note_on_c, 0,52.0,76,
2,146400, Note_off_c, 0,52.0,0,
2,146400, Note_on_c, 0,52.0,75,
2,146400, Note_off_c, 0,43.0,0,
2,146400, Note_off_c, 0,60.0,0,
2,146880, Note_off_c, 0,76.0,0,
2,146880, Note_on_c, 0,31.0,71,
2,146880, Note_off_c, 0,74.0,0,
2,146880, Note_off_c, 0,62.0,0,
2,146880, Note_off_c, 0,69.0,0,
2,146880, Note_on_c, 0,48.0,65,
2,147360, Note_on_c, 0,60.0,65,
2,147360, Note_on_c, 0,45.0,77,
2,147360, Note_off_c, 0,68.0,0,
2,147360, Note_on_c, 0,74.0,87,
2,147360, Note_on_c, 0,69.0,74,
2,147360, Note_off_c, 0,69.0,0,
2,147840, Note_off_c, 0,60.0,0,
2,147840, Note_off_c, 0,45.0,0,
2,148320, Note_off_c, 0,83.0,0,
2,148320, Note_on_c, 0,57.0,76,
2,148320, Note_off_c, 0,52.0,0,
2,148320, Note_off_c, 0,57.0,0,
2,148800, Note_off_c, 0,33.0,0,
2,148800, Note_on_c, 0,45.0,76,
2,149280, Note_off_c, 0,45.0,0,
2,149280, Note_on_c, 0,33.0,75,
2,149760, Note_on_c, 0,45.0,90,
2,149760, Note_off_c, 0,45.0,0,
2,150000, Note_on_c, 0,45.0,77,
2,150000, Note_off_c, 0,58.0,0,
2,150240, Note_on_c, 0,62.0,73,
2,150240, Note_on_c, 0,60.0,85,
2,150480, Note_off_c, 0,60.0,0,
2,150480, Note_on_c, 0,43.0,74,
2,150720, Note_on_c, 0,60.0,85,
2,150720, Note_on_c, 0,69.0,79,
2,151200, Note_on_c, 0,52.0,68,
2,151200, Note_off_c, 0,47.0,0,
2,151440, Note_off_c, 0,52.0,0,
2,151440, Note_off_c, 0,55.0,0,
2,151680, Note_off_c, 0,45.0,0,
2,151680, Note_off_c, 0,33.0,0,
2,151920, Note_on_c, 0,45.0,81,
2,151920, Note_off_c, 0,45.0,0,
2,152160, Note_on_c, 0,45.0,72,
2,152160, Note_off_c, 0,45.0,0,
2,152640, Note_on_c, 0,33.0,76,
2,152640, Note_on_c, 0,45.0,76,
2,152880, Note_off_c, 0,45.0,0,
2,152880, Note_on_c, 0,45.0,70,
2,153120, Note_on_c, 0,57.0,89,
2,153120, Note_off_c, 0,45.0,0,
2,153360, Note_off_c, 0,33.0,0,
2,153360, Note_on_c, 0,45.0,76,
2,153600, Note_off_c, 0,45.0,0,
2,153600, Note_off_c, 0,40.0,0,
2,154080, Note_off_c, 0,46.0,0,
2,154080, Note_off_c, 0,29.0,0,
2,154320, Note_on_c, 0,41.0,75,
2,154320, Note_off_c, 0,41.0,0,
2,154560, Note_on_c, 0,76.0,84,
2,154560, Note_off_c, 0,64.0,0,
2,154800, Note_off_c, 0,50.0,0,
2,154800, Note_on_c, 0,52.0,71,
2,155040, Note_on_c, 0,41.0,86,
2,155040, Note_on_c, 0,64.0,78,
2,155520, Note_on_c, 0,93.0,60,
2,155520, Note_off_c, 0,64.0,0,
2,155520, Note_off_c, 0,77.0,0,
2,158400, Note_on_c, 0,50.0,77,
2,158640, Note_on_c, 0,65.0,92,
2,158640, Note_on_c, 0,29.0,58,
2,158640, Note_off_c, 0,41.0,0,
2,159360, Note_off_c, 0,57.0,0,
2,159360, Note_off_c, 0,52.0,0,
2,161280, Note_off_c, 0,60.0,0,
2,161280, Note_on_c, 0,45.0,66,
2,161280, Note_off_c, 0,45.0,0,
2,161280, Note_on_c, 0,45.0,75,
2,164160, Note_off_c, 0,45.0,0,
2,164400, Note_on_c, 0,45.0,76,
2,164400, Note_off_c, 0,45.0,0,
2,164400, Note_on_c, 0,45.0,69,
2,165120, Note_off_c, 0,45.0,0,
2,165120, Note_off_c, 0,62.0,0,
2,167040, Note_on_c, 0,45.0,55,
2,167040, Note_on_c, 0,33.0,60,
2,167040, Note_on_c, 0,105.0,79,
2,167040, Note_off_c, 0,45.0,0,
2,169920, Note_on_c, 0,45.0,77,
2,170160, Note_off_c, 0,33.0,0,
2,170160, Note_off_c, 0,45.0,0,
2,170160, Note_on_c, 0,45.0,63,
2,170880, Note_off_c, 0,45.0,0,
2,170880, Note_off_c, 0,69.0,0,
2,172800, Note_on_c, 0,60.0,52,
2,172800, Note_off_c, 0,74.0,0,
2,172800, Note_off_c, 0,72.0,0,
2,172800, Note_on_c, 0,72.0,56,
2,175680, Note_on_c, 0,74.0,74,
2,175920, Note_off_c, 0,72.0,0,
2,175920, Note_on_c, 0,62.0,74,
2,175920, Note_on_c, 0,55.0,69,
2,176640, Note_on_c, 0,72.0,55,
2,176640, Note_on_c, 0,57.0,55,
2,178560, Note_on_c, 0,69.0,105,
2,178560, Note_off_c, 0,69.0,0,
2, 178561, End_track,,,,
0, 0, End_of_file,,,,
