0, 0, Header, 1, 2, 960,
1, 0, Start_track,,,,
1, 0, Time_signature, 6, 3, 36, 8
1, 0, Key_signature, 0," ""major""",,
1, 0, Tempo, 571428,,,
1, 0, Title_t," ""Westworld Main Theme""",,,
1, 0, Text_t," ""Ramin Djawadi""",,,
1, 0, Copyright_t," ""Copyright © Lunar Black""",,,
1, 1, End_track,,,,
2, 0, Start_track,,,,
2, 0, Program_c, 0, 0,,
2, 0, Control_c, 0, 121, 0,
2, 0, Control_c, 0, 64, 0,
2, 0, Control_c, 0, 91, 48,
2, 0, Control_c, 0, 10, 51,
2, 0, Control_c, 0, 7, 100,
2, 0, Control_c, 0, 121, 0,
2, 0, Control_c, 0, 64, 0,
2, 0, Control_c, 0, 91, 48,
2, 0, Control_c, 0, 10, 51,
2, 0, Control_c, 0, 7, 100,
2, 0, Title_t," ""Piano""",,,
2,0, Note_on_c, 0,45,70,
2,0, Note_on_c, 0,40,72,
2,0, Note_on_c, 0,64,77,
2,0, Note_on_c, 0,95,72,
2,960, Note_off_c, 0,45,0,
2,960, Note_on_c, 0,45,74,
2,960, Note_on_c, 0,41,79,
2,960, Note_off_c, 0,45,0,
2,1920, Note_off_c, 0,41,0,
2,1920, Note_on_c, 0,45,76,
2,1920, Note_off_c, 0,45,0,
2,1920, Note_on_c, 0,45,73,
2,2880, Note_on_c, 0,33,78,
2,2880, Note_on_c, 0,29,74,
2,2880, Note_on_c, 0,41,79,
2,2880, Note_off_c, 0,41,0,
2,2880, Note_on_c, 0,41,78,
2,2880, Note_off_c, 0,41,0,
2,3840, Note_on_c, 0,41,73,
2,3840, Note_off_c, 0,45,0,
2,3840, Note_off_c, 0,41,0,
2,3840, Note_on_c, 0,45,74,
2,4800, Note_off_c, 0,33,0,
2,4800, Note_on_c, 0,41,75,
2,4800, Note_off_c, 0,41,0,
2,4800, Note_off_c, 0,45,0,
2,4800, Note_on_c, 0,28,74,
2,4800, Note_off_c, 0,40,0,
2,5760, Note_on_c, 0,45,72,
2,5760, Note_off_c, 0,64,0,
2,5760, Note_off_c, 0,45,0,
2,5760, Note_on_c, 0,43,79,
2,5760, Note_on_c, 0,45,75,
2,5760, Note_off_c, 0,45,0,
2,6720, Note_on_c, 0,45,78,
2,6720, Note_on_c, 0,33,80,
2,6720, Note_off_c, 0,45,0,
2,6720, Note_on_c, 0,60,75,
2,7680, Note_on_c, 0,41,77,
2,7680, Note_off_c, 0,41,0,
2,7680, Note_on_c, 0,45,74,
2,7680, Note_on_c, 0,64,72,
2,8640, Note_off_c, 0,29,0,
2,8640, Note_on_c, 0,93,75,
2,8640, Note_off_c, 0,45,0,
2,8640, Note_off_c, 0,95,0,
2,8640, Note_off_c, 0,64,0,
2,8640, Note_on_c, 0,41,76,
2,9600, Note_off_c, 0,33,0,
2,9600, Note_on_c, 0,45,75,
2,9600, Note_off_c, 0,45,0,
2,9600, Note_on_c, 0,29,73,
2,10560, Note_off_c, 0,60,0,
2,10560, Note_on_c, 0,31,71,
2,10560, Note_off_c, 0,41,0,
2,10560, Note_on_c, 0,45,81,
2,11520, Note_off_c, 0,45,0,
2,11520, Note_on_c, 0,45,83,
2,11520, Note_on_c, 0,62,78,
2,11520, Note_off_c, 0,45,0,
2,11520, Note_on_c, 0,41,81,
2,11520, Note_on_c, 0,45,80,
2,11520, Note_off_c, 0,45,0,
2,12480, Note_on_c, 0,45,79,
2,12480, Note_off_c, 0,45,0,
2,12480, Note_on_c, 0,45,78,
2,12480, Note_off_c, 0,93,0,
2,12480, Note_off_c, 0,31,0,
2,12480, Note_off_c, 0,45,0,
2,13440, Note_off_c, 0,41,0,
2,13440, Note_off_c, 0,29,0,
2,13440, Note_off_c, 0,43,0,
2,13440, Note_on_c, 0,45,77,
2,14400, Note_on_c, 0,40,76,
2,14400, Note_on_c, 0,41,75,
2,14400, Note_on_c, 0,60,76,
2,14400, Note_off_c, 0,45,0,
2,14400, Note_off_c, 0,60,0,
2,14400, Note_off_c, 0,40,0,
2,14400, Note_off_c, 0,41,0,
2,14400, Note_on_c, 0,33,77,
2,15360, Note_on_c, 0,45,76,
2,15360, Note_on_c, 0,41,75,
2,15360, Note_on_c, 0,40,74,
2,15360, Note_off_c, 0,33,0,
2,15360, Note_on_c, 0,29,70,
2,15360, Note_off_c, 0,41,0,
2,16320, Note_on_c, 0,33,71,
2,16320, Note_on_c, 0,105,75,
2,16320, Note_off_c, 0,40,0,
2,16320, Note_off_c, 0,45,0,
2,16320, Note_on_c, 0,45,70,
2,16320, Note_off_c, 0,45,0,
2,17280, Note_on_c, 0,95,74,
2,17280, Note_on_c, 0,41,76,
2,17280, Note_on_c, 0,40,74,
2,17280, Note_on_c, 0,45,73,
2,17280, Note_off_c, 0,105,0,
2,17280, Note_off_c, 0,45,0,
2,18240, Note_on_c, 0,60,76,
2,18240, Note_on_c, 0,105,77,
2,18240, Note_off_c, 0,40,0,
2,18240, Note_on_c, 0,40,75,
2,19200, Note_off_c, 0,60,0,
2,19200, Note_off_c, 0,41,0,
2,19200, Note_on_c, 0,60,79,
2,19200, Note_on_c, 0,45,79,
2,20160, Note_off_c, 0,33,0,
2,20160, Note_off_c, 0,45,0,
2,20160, Note_off_c, 0,60,0,
2,20160, Note_on_c, 0,41,75,
2,20160, Note_on_c, 0,45,78,
2,20160, Note_off_c, 0,41,0,
2,20160, Note_on_c, 0,43,75,
2,21120, Note_off_c, 0,29,0,
2,21120, Note_on_c, 0,60,77,
2,21120, Note_on_c, 0,31,72,
2,21120, Note_off_c, 0,60,0,
2,22080, Note_off_c, 0,45,0,
2,22080, Note_on_c, 0,57,80,
2,22080, Note_on_c, 0,45,85,
2,22080, Note_on_c, 0,41,76,
2,23040, Note_off_c, 0,45,0,
2,23040, Note_off_c, 0,105,0,
2,23040, Note_on_c, 0,93,75,
2,23040, Note_on_c, 0,64,70,
2,23040, Note_on_c, 0,45,76,
2,23040, Note_off_c, 0,45,0,
2,24000, Note_on_c, 0,33,75,
2,24000, Note_off_c, 0,41,0,
2,24000, Note_on_c, 0,60,69,
2,24000, Note_on_c, 0,45,70,
2,24000, Note_off_c, 0,45,0,
2,24960, Note_on_c, 0,45,75,
2,24960, Note_off_c, 0,40,0,
2,24960, Note_off_c, 0,60,0,
2,24960, Note_off_c, 0,31,0,
2,25920, Note_off_c, 0,33,0,
2,25920, Note_off_c, 0,45,0,
2,25920, Note_on_c, 0,40,77,
2,25920, Note_on_c, 0,45,78,
2,25920, Note_off_c, 0,64,0,
2,25920, Note_off_c, 0,40,0,
2,25920, Note_off_c, 0,45,0,
2,25920, Note_on_c, 0,41,81,
2,26880, Note_on_c, 0,45,74,
2,26880, Note_on_c, 0,40,74,
2,26880, Note_off_c, 0,45,0,
2,26880, Note_off_c, 0,41,0,
2,26880, Note_on_c, 0,41,77,
2,26880, Note_on_c, 0,45,77,
2,27840, Note_off_c, 0,41,0,
2,27840, Note_on_c, 0,41,75,
2,27840, Note_off_c, 0,93,0,
2,27840, Note_off_c, 0,45,0,
2,27840, Note_on_c, 0,45,73,
2,27840, Note_on_c, 0,33,70,
2,28800, Note_off_c, 0,41,0,
2,28800, Note_off_c, 0,33,0,
2,28800, Note_on_c, 0,41,70,
2,28800, Note_on_c, 0,105,75,
2,28800, Note_on_c, 0,29,78,
2,28800, Note_off_c, 0,45,0,
2,28800, Note_on_c, 0,60,76,
2,28800, Note_on_c, 0,45,75,
2,29760, Note_on_c, 0,93,79,
2,29760, Note_off_c, 0,95,0,
2,29760, Note_off_c, 0,41,0,
2,29760, Note_on_c, 0,41,78,
2,30720, Note_off_c, 0,45,0,
2,30720, Note_on_c, 0,45,75,
2,30720, Note_on_c, 0,33,75,
2,30720, Note_off_c, 0,41,0,
2,31680, Note_off_c, 0,33,0,
2,31680, Note_on_c, 0,41,74,
2,31680, Note_off_c, 0,45,0,
2,31680, Note_on_c, 0,45,74,
2,31680, Note_on_c, 0,95,76,
2,31680, Note_on_c, 0,33,77,
2,31680, Note_off_c, 0,29,0,
2,32640, Note_off_c, 0,60,0,
2,32640, Note_off_c, 0,41,0,
2,32640, Note_off_c, 0,93,0,
2,32640, Note_off_c, 0,45,0,
2,33600, Note_on_c, 0,45,75,
2,33600, Note_on_c, 0,41,79,
2,33600, Note_off_c, 0,33,0,
2,33600, Note_off_c, 0,41,0,
2,34560, Note_on_c, 0,60,83,
2,34560, Note_on_c, 0,41,80,
2,34560, Note_off_c, 0,45,0,
2,34560, Note_off_c, 0,40,0,
2,34560, Note_on_c, 0,29,71,
2,34560, Note_off_c, 0,29,0,
2,34560, Note_on_c, 0,40,77,
2,35520, Note_on_c, 0,29,81,
2,35520, Note_on_c, 0,33,76,
2,35520, Note_off_c, 0,29,0,
2,35520, Note_on_c, 0,45,79,
2,35520, Note_off_c, 0,45,0,
2,35520, Note_on_c, 0,45,76,
2,36480, Note_off_c, 0,41,0,
2,36480, Note_on_c, 0,41,78,
2,36480, Note_off_c, 0,33,0,
2,36480, Note_off_c, 0,40,0,
2,37440, Note_on_c, 0,33,77,
2,37440, Note_on_c, 0,69,78,
2,37440, Note_off_c, 0,41,0,
2,37440, Note_off_c, 0,45,0,
2,37440, Note_off_c, 0,43,0,
2,37440, Note_off_c, 0,105,0,
2,37440, Note_on_c, 0,45,73,
2,37440, Note_on_c, 0,41,78,
2,38400, Note_off_c, 0,41,0,
2,38400, Note_off_c, 0,33,0,
2,38400, Note_on_c, 0,41,78,
2,38400, Note_off_c, 0,60,0,
2,38400, Note_on_c, 0,105,75,
2,38400, Note_off_c, 0,62,0,
2,39360, Note_on_c, 0,64,73,
2,39360, Note_on_c, 0,40,72,
2,39360, Note_off_c, 0,40,0,
2,39360, Note_off_c, 0,41,0,
2,39360, Note_off_c, 0,45,0,
2,39360, Note_on_c, 0,60,72,
2,40320, Note_on_c, 0,29,73,
2,40320, Note_on_c, 0,41,74,
2,40320, Note_on_c, 0,45,76,
2,40320, Note_off_c, 0,45,0,
2,40320, Note_on_c, 0,33,78,
2,40320, Note_on_c, 0,40,75,
2,41280, Note_off_c, 0,60,0,
2,41280, Note_on_c, 0,31,69,
2,41280, Note_on_c, 0,93,75,
2,41280, Note_on_c, 0,45,75,
2,42240, Note_off_c, 0,45,0,
2,42240, Note_off_c, 0,31,0,
2,42240, Note_off_c, 0,33,0,
2,42240, Note_off_c, 0,29,0,
2,43200, Note_on_c, 0,33,77,
2,43200, Note_off_c, 0,41,0,
2,43200, Note_off_c, 0,40,0,
2,43200, Note_on_c, 0,45,79,
2,43200, Note_on_c, 0,41,74,
2,43200, Note_off_c, 0,41,0,
2,43200, Note_off_c, 0,33,0,
2,44160, Note_off_c, 0,45,0,
2,44160, Note_on_c, 0,41,76,
2,44160, Note_on_c, 0,45,77,
2,44160, Note_on_c, 0,60,70,
2,45120, Note_off_c, 0,45,0,
2,45120, Note_on_c, 0,45,78,
2,45120, Note_off_c, 0,45,0,
2,45120, Note_on_c, 0,33,80,
2,46080, Note_on_c, 0,29,77,
2,46080, Note_off_c, 0,93,0,
2,46080, Note_on_c, 0,52,75,
2,46080, Note_on_c, 0,62,73,
2,46080, Note_on_c, 0,76,74,
2,46080, Note_on_c, 0,58,77,
2,47040, Note_on_c, 0,48,78,
2,47040, Note_on_c, 0,40,74,
2,47040, Note_on_c, 0,53,71,
2,47040, Note_off_c, 0,48,0,
2,47040, Note_on_c, 0,48,77,
2,48000, Note_on_c, 0,46,71,
2,48000, Note_off_c, 0,46,0,
2,48000, Note_off_c, 0,48,0,
2,48000, Note_off_c, 0,62,0,
2,48960, Note_off_c, 0,76,0,
2,48960, Note_on_c, 0,72,73,
2,48960, Note_on_c, 0,74,69,
2,48960, Note_on_c, 0,76,73,
2,48960, Note_on_c, 0,62,78,
2,48960, Note_off_c, 0,72,0,
2,48960, Note_on_c, 0,43,78,
2,48960, Note_on_c, 0,47,76,
2,49920, Note_off_c, 0,58,0,
2,49920, Note_on_c, 0,46,74,
2,49920, Note_off_c, 0,74,0,
2,49920, Note_off_c, 0,40,0,
2,49920, Note_off_c, 0,52,0,
2,49920, Note_off_c, 0,76,0,
2,50880, Note_off_c, 0,46,0,
2,50880, Note_on_c, 0,46,77,
2,50880, Note_on_c, 0,58,79,
2,50880, Note_on_c, 0,52,76,
2,51840, Note_off_c, 0,62,0,
2,51840, Note_off_c, 0,58,0,
2,51840, Note_off_c, 0,47,0,
2,51840, Note_off_c, 0,52,0,
2,51840, Note_off_c, 0,60,0,
2,51840, Note_on_c, 0,45,78,
2,51840, Note_on_c, 0,40,75,
2,51840, Note_off_c, 0,41,0,
2,52800, Note_on_c, 0,41,75,
2,52800, Note_off_c, 0,33,0,
2,52800, Note_off_c, 0,45,0,
2,52800, Note_on_c, 0,33,80,
2,53760, Note_off_c, 0,41,0,
2,53760, Note_on_c, 0,60,77,
2,53760, Note_on_c, 0,45,75,
2,53760, Note_off_c, 0,45,0,
2,54720, Note_on_c, 0,41,78,
2,54720, Note_off_c, 0,60,0,
2,54720, Note_off_c, 0,40,0,
2,54720, Note_on_c, 0,60,76,
2,54720, Note_on_c, 0,45,78,
2,54720, Note_off_c, 0,45,0,
2,54720, Note_on_c, 0,45,77,
2,55680, Note_off_c, 0,45,0,
2,55680, Note_off_c, 0,41,0,
2,55680, Note_off_c, 0,33,0,
2,55680, Note_on_c, 0,62,85,
2,56640, Note_off_c, 0,60,0,
2,56640, Note_on_c, 0,31,99,
2,56640, Note_on_c, 0,60,86,
2,56640, Note_on_c, 0,41,82,
2,57600, Note_off_c, 0,41,0,
2,57600, Note_on_c, 0,45,86,
2,57600, Note_on_c, 0,40,83,
2,57600, Note_off_c, 0,45,0,
2,57600, Note_off_c, 0,105,0,
2,57600, Note_on_c, 0,45,85,
2,57600, Note_on_c, 0,68,79,
2,58560, Note_off_c, 0,64,0,
2,58560, Note_on_c, 0,41,73,
2,58560, Note_on_c, 0,77,71,
2,58560, Note_on_c, 0,65,74,
2,58560, Note_off_c, 0,57,0,
2,58560, Note_off_c, 0,65,0,
2,58560, Note_on_c, 0,76,85,
2,58560, Note_off_c, 0,68,0,
2,58560, Note_on_c, 0,64,86,
2,58560, Note_off_c, 0,64,0,
2,58560, Note_on_c, 0,68,81,
2,58560, Note_off_c, 0,68,0,
2,59520, Note_off_c, 0,77,0,
2,59520, Note_on_c, 0,68,72,
2,59520, Note_on_c, 0,67,77,
2,59520, Note_on_c, 0,50,73,
2,59520, Note_on_c, 0,74,69,
2,59520, Note_on_c, 0,77,73,
2,59520, Note_off_c, 0,50,0,
2,59520, Note_off_c, 0,74,0,
2,60480, Note_on_c, 0,50,76,
2,60480, Note_off_c, 0,77,0,
2,60480, Note_off_c, 0,76,0,
2,60480, Note_off_c, 0,68,0,
2,60480, Note_on_c, 0,68,80,
2,60480, Note_off_c, 0,67,0,
2,60480, Note_on_c, 0,74,62,
2,60480, Note_on_c, 0,65,70,
2,60480, Note_on_c, 0,52,83,
2,60480, Note_on_c, 0,57,73,
2,60480, Note_on_c, 0,64,82,
2,60480, Note_off_c, 0,65,0,
2,61440, Note_on_c, 0,55,71,
2,61440, Note_off_c, 0,64,0,
2,61440, Note_on_c, 0,72,84,
2,61440, Note_off_c, 0,45,0,
2,61440, Note_off_c, 0,50,0,
2,61440, Note_on_c, 0,64,82,
2,61440, Note_off_c, 0,64,0,
2,61440, Note_on_c, 0,76,78,
2,62400, Note_off_c, 0,68,0,
2,62400, Note_on_c, 0,64,83,
2,62400, Note_off_c, 0,57,0,
2,62400, Note_off_c, 0,76,0,
2,63360, Note_off_c, 0,64,0,
2,63360, Note_on_c, 0,50,77,
2,63360, Note_on_c, 0,48,78,
2,63360, Note_on_c, 0,64,70,
2,63360, Note_on_c, 0,45,80,
2,63360, Note_off_c, 0,45,0,
2,63360, Note_off_c, 0,50,0,
2,63360, Note_on_c, 0,45,81,
2,64320, Note_off_c, 0,45,0,
2,64320, Note_off_c, 0,53,0,
2,64320, Note_off_c, 0,74,0,
2,64320, Note_on_c, 0,74,79,
2,64320, Note_on_c, 0,57,67,
2,64320, Note_on_c, 0,45,77,
2,65280, Note_on_c, 0,50,77,
2,65280, Note_on_c, 0,36,76,
2,65280, Note_off_c, 0,60,0,
2,65280, Note_off_c, 0,74,0,
2,65280, Note_on_c, 0,76,70,
2,65280, Note_off_c, 0,48,0,
2,66240, Note_off_c, 0,43,0,
2,66240, Note_off_c, 0,52,0,
2,66240, Note_on_c, 0,52,77,
2,66240, Note_off_c, 0,50,0,
2,66240, Note_off_c, 0,45,0,
2,66240, Note_on_c, 0,50,81,
2,67200, Note_on_c, 0,45,80,
2,67200, Note_off_c, 0,46,0,
2,67200, Note_off_c, 0,52,0,
2,67200, Note_off_c, 0,62,0,
2,67200, Note_on_c, 0,48,78,
2,67200, Note_off_c, 0,45,0,
2,68160, Note_off_c, 0,69,0,
2,68160, Note_off_c, 0,50,0,
2,68160, Note_on_c, 0,45,79,
2,68160, Note_on_c, 0,62,68,
2,68160, Note_on_c, 0,58,78,
2,68160, Note_on_c, 0,46,80,
2,69120, Note_on_c, 0,52,78,
2,69120, Note_off_c, 0,48,0,
2,69120, Note_off_c, 0,46,0,
2,69120, Note_off_c, 0,58,0,
2,69120, Note_on_c, 0,48,80,
2,69120, Note_on_c, 0,68,80,
2,70080, Note_on_c, 0,77,76,
2,70080, Note_off_c, 0,68,0,
2,70080, Note_on_c, 0,74,75,
2,70080, Note_off_c, 0,76,0,
2,70080, Note_off_c, 0,57,0,
2,70080, Note_on_c, 0,68,77,
2,70080, Note_off_c, 0,64,0,
2,70080, Note_on_c, 0,50,81,
2,70080, Note_off_c, 0,77,0,
2,70080, Note_off_c, 0,55,0,
2,70080, Note_off_c, 0,41,0,
2,70080, Note_on_c, 0,77,84,
2,71040, Note_on_c, 0,57,76,
2,71040, Note_on_c, 0,67,70,
2,71040, Note_on_c, 0,64,72,
2,71040, Note_off_c, 0,50,0,
2,71040, Note_on_c, 0,76,73,
2,71040, Note_off_c, 0,62,0,
2,71040, Note_on_c, 0,65,70,
2,71040, Note_on_c, 0,50,66,
2,72000, Note_off_c, 0,64,0,
2,72000, Note_on_c, 0,41,81,
2,72000, Note_off_c, 0,76,0,
2,72000, Note_off_c, 0,65,0,
2,72000, Note_on_c, 0,69,75,
2,72000, Note_on_c, 0,76,57,
2,72000, Note_off_c, 0,52,0,
2,72000, Note_on_c, 0,52,73,
2,72000, Note_on_c, 0,64,76,
2,72000, Note_off_c, 0,50,0,
2,72000, Note_off_c, 0,69,0,
2,72000, Note_on_c, 0,50,77,
2,72960, Note_on_c, 0,69,78,
2,72960, Note_off_c, 0,45,0,
2,72960, Note_off_c, 0,68,0,
2,72960, Note_off_c, 0,50,0,
2,72960, Note_off_c, 0,57,0,
2,72960, Note_on_c, 0,68,75,
2,72960, Note_on_c, 0,65,86,
2,72960, Note_on_c, 0,57,77,
2,73920, Note_off_c, 0,76,0,
2,73920, Note_off_c, 0,57,0,
2,73920, Note_on_c, 0,62,73,
2,73920, Note_on_c, 0,57,79,
2,74880, Note_off_c, 0,65,0,
2,74880, Note_off_c, 0,68,0,
2,74880, Note_off_c, 0,77,0,
2,74880, Note_on_c, 0,50,83,
2,74880, Note_on_c, 0,45,80,
2,74880, Note_off_c, 0,50,0,
2,74880, Note_off_c, 0,69,0,
2,74880, Note_on_c, 0,43,72,
2,75840, Note_off_c, 0,52,0,
2,75840, Note_off_c, 0,57,0,
2,75840, Note_off_c, 0,62,0,
2,75840, Note_on_c, 0,57,80,
2,75840, Note_off_c, 0,74,0,
2,75840, Note_on_c, 0,50,82,
2,76800, Note_on_c, 0,74,77,
2,76800, Note_off_c, 0,48,0,
2,76800, Note_on_c, 0,52,68,
2,76800, Note_on_c, 0,46,77,
2,76800, Note_off_c, 0,52,0,
2,76800, Note_on_c, 0,52,83,
2,77760, Note_off_c, 0,52,0,
2,77760, Note_on_c, 0,69,79,
2,77760, Note_off_c, 0,45,0,
2,77760, Note_on_c, 0,45,72,
2,77760, Note_off_c, 0,50,0,
2,77760, Note_on_c, 0,52,83,
2,78720, Note_on_c, 0,71,74,
2,78720, Note_on_c, 0,47,81,
2,78720, Note_on_c, 0,84,94,
2,78720, Note_off_c, 0,47,0,
2,78720, Note_off_c, 0,74,0,
2,78720, Note_off_c, 0,45,0,
2,79680, Note_on_c, 0,45,88,
2,79680, Note_off_c, 0,36,0,
2,79680, Note_off_c, 0,46,0,
2,79680, Note_off_c, 0,64,0,
2,79680, Note_on_c, 0,47,68,
2,79680, Note_off_c, 0,52,0,
2,80640, Note_off_c, 0,41,0,
2,80640, Note_on_c, 0,76,85,
2,80640, Note_on_c, 0,64,83,
2,80640, Note_on_c, 0,41,83,
2,80640, Note_on_c, 0,77,83,
2,80640, Note_off_c, 0,41,0,
2,81600, Note_on_c, 0,50,73,
2,81600, Note_on_c, 0,68,73,
2,81600, Note_off_c, 0,64,0,
2,81600, Note_off_c, 0,50,0,
2,81600, Note_off_c, 0,67,0,
2,81600, Note_on_c, 0,65,73,
2,81600, Note_on_c, 0,74,82,
2,81600, Note_on_c, 0,50,80,
2,81600, Note_off_c, 0,50,0,
2,81600, Note_on_c, 0,64,80,
2,81600, Note_off_c, 0,65,0,
2,81600, Note_on_c, 0,50,73,
2,82560, Note_off_c, 0,74,0,
2,82560, Note_off_c, 0,57,0,
2,82560, Note_off_c, 0,76,0,
2,82560, Note_off_c, 0,68,0,
2,82560, Note_off_c, 0,50,0,
2,82560, Note_on_c, 0,76,76,
2,82560, Note_on_c, 0,55,76,
2,82560, Note_on_c, 0,74,68,
2,83520, Note_on_c, 0,50,70,
2,83520, Note_off_c, 0,64,0,
2,83520, Note_off_c, 0,50,0,
2,83520, Note_on_c, 0,57,70,
2,83520, Note_on_c, 0,62,86,
2,83520, Note_on_c, 0,67,76,
2,83520, Note_off_c, 0,77,0,
2,83520, Note_on_c, 0,64,73,
2,83520, Note_off_c, 0,76,0,
2,83520, Note_on_c, 0,50,78,
2,83520, Note_on_c, 0,68,75,
2,83520, Note_off_c, 0,55,0,
2,84480, Note_off_c, 0,68,0,
2,84480, Note_off_c, 0,50,0,
2,84480, Note_on_c, 0,68,77,
2,84480, Note_on_c, 0,50,85,
2,84480, Note_on_c, 0,55,86,
2,84480, Note_off_c, 0,64,0,
2,84480, Note_on_c, 0,65,74,
2,84480, Note_off_c, 0,65,0,
2,85440, Note_off_c, 0,55,0,
2,85440, Note_off_c, 0,57,0,
2,85440, Note_on_c, 0,76,70,
2,85440, Note_off_c, 0,76,0,
2,85440, Note_on_c, 0,64,70,
2,85440, Note_off_c, 0,50,0,
2,85440, Note_on_c, 0,77,71,
2,85440, Note_on_c, 0,55,79,
2,86400, Note_on_c, 0,65,77,
2,86400, Note_off_c, 0,64,0,
2,86400, Note_on_c, 0,64,83,
2,86400, Note_off_c, 0,68,0,
2,86400, Note_off_c, 0,45,0,
2,86400, Note_on_c, 0,50,77,
2,86400, Note_off_c, 0,50,0,
2,86400, Note_off_c, 0,69,0,
2,87360, Note_on_c, 0,45,76,
2,87360, Note_on_c, 0,58,79,
2,87360, Note_off_c, 0,74,0,
2,87360, Note_on_c, 0,57,82,
2,87360, Note_on_c, 0,53,72,
2,87360, Note_on_c, 0,50,76,
2,88320, Note_off_c, 0,50,0,
2,88320, Note_on_c, 0,50,82,
2,88320, Note_off_c, 0,50,0,
2,88320, Note_off_c, 0,53,0,
2,88320, Note_off_c, 0,40,0,
2,88320, Note_on_c, 0,52,79,
2,89280, Note_on_c, 0,46,75,
2,89280, Note_off_c, 0,46,0,
2,89280, Note_off_c, 0,52,0,
2,89280, Note_on_c, 0,50,77,
2,89280, Note_off_c, 0,45,0,
2,89280, Note_on_c, 0,69,81,
2,90240, Note_off_c, 0,50,0,
2,90240, Note_off_c, 0,62,0,
2,90240, Note_off_c, 0,43,0,
2,90240, Note_off_c, 0,64,0,
2,90240, Note_off_c, 0,47,0,
2,90240, Note_on_c, 0,56,79,
2,91200, Note_on_c, 0,45,76,
2,91200, Note_off_c, 0,45,0,
2,91200, Note_on_c, 0,45,79,
2,91200, Note_off_c, 0,58,0,
2,91200, Note_off_c, 0,71,0,
2,91200, Note_on_c, 0,52,75,
2,92160, Note_off_c, 0,52,0,
2,92160, Note_on_c, 0,52,71,
2,92160, Note_on_c, 0,53,85,
2,92160, Note_off_c, 0,57,0,
2,92160, Note_on_c, 0,43,77,
2,92160, Note_off_c, 0,72,0,
2,93120, Note_on_c, 0,64,74,
2,93120, Note_on_c, 0,50,77,
2,93120, Note_off_c, 0,45,0,
2,93120, Note_off_c, 0,53,0,
2,93120, Note_on_c, 0,46,68,
2,93120, Note_on_c, 0,45,80,
2,94080, Note_off_c, 0,31,0,
2,94080, Note_on_c, 0,62,77,
2,94080, Note_on_c, 0,58,72,
2,94080, Note_on_c, 0,47,81,
2,94080, Note_off_c, 0,47,0,
2,94080, Note_off_c, 0,62,0,
2,94080, Note_on_c, 0,74,69,
2,94080, Note_off_c, 0,45,0,
2,95040, Note_on_c, 0,45,78,
2,95040, Note_off_c, 0,45,0,
2,95040, Note_off_c, 0,69,0,
2,95040, Note_on_c, 0,70,77,
2,95040, Note_off_c, 0,50,0,
2,95040, Note_on_c, 0,45,67,
2,96000, Note_on_c, 0,60,76,
2,96000, Note_off_c, 0,74,0,
2,96000, Note_off_c, 0,52,0,
2,96000, Note_on_c, 0,69,68,
2,96000, Note_off_c, 0,45,0,
2,96000, Note_on_c, 0,50,77,
2,96960, Note_on_c, 0,45,80,
2,96960, Note_off_c, 0,77,0,
2,96960, Note_off_c, 0,64,0,
2,96960, Note_off_c, 0,50,0,
2,96960, Note_off_c, 0,65,0,
2,96960, Note_on_c, 0,76,80,
2,96960, Note_off_c, 0,45,0,
2,96960, Note_off_c, 0,46,0,
2,97920, Note_on_c, 0,57,67,
2,97920, Note_on_c, 0,50,70,
2,97920, Note_on_c, 0,45,83,
2,97920, Note_off_c, 0,45,0,
2,97920, Note_on_c, 0,41,86,
2,97920, Note_off_c, 0,50,0,
2,97920, Note_off_c, 0,76,0,
2,97920, Note_on_c, 0,50,86,
2,98880, Note_off_c, 0,50,0,
2,98880, Note_off_c, 0,69,0,
2,98880, Note_on_c, 0,77,81,
2,98880, Note_on_c, 0,50,56,
2,98880, Note_off_c, 0,50,0,
2,98880, Note_on_c, 0,50,73,
2,98880, Note_on_c, 0,40,74,
2,98880, Note_off_c, 0,41,0,
2,98880, Note_on_c, 0,41,78,
2,98880, Note_off_c, 0,41,0,
2,99840, Note_on_c, 0,33,83,
2,99840, Note_off_c, 0,55,0,
2,99840, Note_on_c, 0,65,85,
2,99840, Note_off_c, 0,57,0,
2,99840, Note_on_c, 0,55,80,
2,99840, Note_off_c, 0,65,0,
2,99840, Note_on_c, 0,64,57,
2,99840, Note_on_c, 0,45,71,
2,100800, Note_off_c, 0,45,0,
2,100800, Note_on_c, 0,52,73,
2,100800, Note_off_c, 0,43,0,
2,100800, Note_on_c, 0,41,81,
2,100800, Note_off_c, 0,33,0,
2,100800, Note_off_c, 0,29,0,
2,100800, Note_on_c, 0,45,75,
2,100800, Note_off_c, 0,67,0,
2,100800, Note_on_c, 0,68,81,
2,100800, Note_off_c, 0,64,0,
2,101760, Note_on_c, 0,57,83,
2,101760, Note_on_c, 0,67,63,
2,101760, Note_off_c, 0,41,0,
2,101760, Note_off_c, 0,50,0,
2,101760, Note_off_c, 0,45,0,
2,101760, Note_off_c, 0,60,0,
2,101760, Note_on_c, 0,33,73,
2,101760, Note_on_c, 0,41,76,
2,101760, Note_on_c, 0,43,83,
2,101760, Note_on_c, 0,62,80,
2,102720, Note_off_c, 0,40,0,
2,102720, Note_off_c, 0,68,0,
2,102720, Note_on_c, 0,64,83,
2,102720, Note_off_c, 0,77,0,
2,102720, Note_off_c, 0,64,0,
2,102720, Note_off_c, 0,57,0,
2,102720, Note_on_c, 0,65,81,
2,102720, Note_on_c, 0,69,73,
2,102720, Note_off_c, 0,33,0,
2,102720, Note_on_c, 0,45,73,
2,102720, Note_off_c, 0,95,0,
2,102720, Note_off_c, 0,45,0,
2,103680, Note_on_c, 0,29,61,
2,103680, Note_off_c, 0,41,0,
2,103680, Note_on_c, 0,41,73,
2,103680, Note_on_c, 0,93,82,
2,103680, Note_off_c, 0,41,0,
2,103680, Note_on_c, 0,45,82,
2,103680, Note_off_c, 0,45,0,
2,103680, Note_on_c, 0,68,85,
2,103680, Note_on_c, 0,64,90,
2,103680, Note_off_c, 0,55,0,
2,104640, Note_off_c, 0,64,0,
2,104640, Note_on_c, 0,50,71,
2,104640, Note_on_c, 0,72,68,
2,104640, Note_on_c, 0,33,77,
2,104640, Note_on_c, 0,41,83,
2,104640, Note_off_c, 0,33,0,
2,104640, Note_off_c, 0,62,0,
2,104640, Note_on_c, 0,45,87,
2,105600, Note_on_c, 0,33,85,
2,105600, Note_off_c, 0,68,0,
2,105600, Note_on_c, 0,64,70,
2,105600, Note_on_c, 0,57,68,
2,105600, Note_on_c, 0,77,81,
2,105600, Note_off_c, 0,69,0,
2,106560, Note_off_c, 0,50,0,
2,106560, Note_on_c, 0,40,81,
2,106560, Note_off_c, 0,29,0,
2,106560, Note_off_c, 0,64,0,
2,106560, Note_off_c, 0,45,0,
2,106560, Note_on_c, 0,45,86,
2,106560, Note_off_c, 0,93,0,
2,106560, Note_on_c, 0,64,87,
2,106560, Note_off_c, 0,65,0,
2,106560, Note_off_c, 0,57,0,
2,107520, Note_off_c, 0,67,0,
2,107520, Note_on_c, 0,60,73,
2,107520, Note_on_c, 0,69,67,
2,107520, Note_off_c, 0,43,0,
2,107520, Note_off_c, 0,45,0,
2,107520, Note_on_c, 0,45,77,
2,107520, Note_off_c, 0,45,0,
2,107520, Note_on_c, 0,45,75,
2,108480, Note_on_c, 0,43,79,
2,108480, Note_on_c, 0,65,85,
2,108480, Note_off_c, 0,65,0,
2,108480, Note_on_c, 0,57,74,
2,108480, Note_on_c, 0,67,66,
2,108480, Note_off_c, 0,45,0,
2,109440, Note_on_c, 0,45,81,
2,109440, Note_off_c, 0,40,0,
2,109440, Note_on_c, 0,29,81,
2,109440, Note_off_c, 0,41,0,
2,109440, Note_on_c, 0,40,86,
2,109440, Note_off_c, 0,40,0,
2,109440, Note_on_c, 0,105,79,
2,109440, Note_on_c, 0,55,80,
2,109440, Note_off_c, 0,77,0,
2,109440, Note_off_c, 0,64,0,
2,110400, Note_on_c, 0,68,80,
2,110400, Note_on_c, 0,64,64,
2,110400, Note_on_c, 0,74,78,
2,110400, Note_off_c, 0,67,0,
2,110400, Note_off_c, 0,60,0,
2,110400, Note_off_c, 0,43,0,
2,110400, Note_off_c, 0,33,0,
2,110400, Note_off_c, 0,45,0,
2,110400, Note_on_c, 0,43,78,
2,110400, Note_on_c, 0,45,83,
2,111360, Note_off_c, 0,43,0,
2,111360, Note_on_c, 0,77,80,
2,111360, Note_on_c, 0,62,83,
2,111360, Note_off_c, 0,55,0,
2,111360, Note_on_c, 0,76,72,
2,111360, Note_off_c, 0,64,0,
2,111360, Note_on_c, 0,64,58,
2,111360, Note_off_c, 0,69,0,
2,112320, Note_on_c, 0,50,77,
2,112320, Note_on_c, 0,69,77,
2,112320, Note_on_c, 0,33,86,
2,112320, Note_on_c, 0,40,84,
2,112320, Note_off_c, 0,45,0,
2,112320, Note_on_c, 0,45,80,
2,112320, Note_off_c, 0,33,0,
2,112320, Note_off_c, 0,74,0,
2,112320, Note_off_c, 0,62,0,
2,112320, Note_on_c, 0,65,79,
2,113280, Note_off_c, 0,64,0,
2,113280, Note_off_c, 0,68,0,
2,113280, Note_off_c, 0,76,0,
2,113280, Note_off_c, 0,69,0,
2,113280, Note_on_c, 0,67,61,
2,113280, Note_on_c, 0,60,76,
2,113280, Note_on_c, 0,64,80,
2,113280, Note_on_c, 0,41,80,
2,113280, Note_off_c, 0,45,0,
2,113280, Note_off_c, 0,41,0,
2,114240, Note_on_c, 0,41,83,
2,114240, Note_off_c, 0,64,0,
2,114240, Note_on_c, 0,55,84,
2,114240, Note_on_c, 0,64,81,
2,114240, Note_off_c, 0,55,0,
2,114240, Note_on_c, 0,68,78,
2,114240, Note_off_c, 0,77,0,
2,114240, Note_on_c, 0,74,80,
2,114240, Note_on_c, 0,43,90,
2,114240, Note_on_c, 0,45,94,
2,114240, Note_off_c, 0,29,0,
2,114240, Note_off_c, 0,60,0,
2,115200, Note_off_c, 0,50,0,
2,115200, Note_off_c, 0,41,0,
2,115200, Note_off_c, 0,57,0,
2,115200, Note_on_c, 0,60,76,
2,115200, Note_off_c, 0,60,0,
2,115200, Note_on_c, 0,50,80,
2,115200, Note_off_c, 0,45,0,
2,115200, Note_off_c, 0,70,0,
2,116160, Note_off_c, 0,65,0,
2,116160, Note_on_c, 0,77,87,
2,116160, Note_off_c, 0,68,0,
2,116160, Note_off_c, 0,64,0,
2,116160, Note_on_c, 0,79,87,
2,116160, Note_on_c, 0,65,81,
2,116160, Note_on_c, 0,76,74,
2,116160, Note_off_c, 0,74,0,
2,116160, Note_off_c, 0,67,0,
2,116160, Note_on_c, 0,64,74,
2,116160, Note_off_c, 0,50,0,
2,116160, Note_on_c, 0,50,71,
2,117120, Note_off_c, 0,43,0,
2,117120, Note_on_c, 0,67,80,
2,117120, Note_on_c, 0,57,84,
2,117120, Note_off_c, 0,50,0,
2,117120, Note_off_c, 0,64,0,
2,117120, Note_off_c, 0,67,0,
2,117120, Note_off_c, 0,57,0,
2,117120, Note_on_c, 0,57,84,
2,118080, Note_off_c, 0,77,0,
2,118080, Note_on_c, 0,64,74,
2,118080, Note_off_c, 0,65,0,
2,118080, Note_off_c, 0,79,0,
2,118080, Note_on_c, 0,50,75,
2,118080, Note_on_c, 0,60,79,
2,118080, Note_on_c, 0,34,74,
2,118080, Note_off_c, 0,57,0,
2,118080, Note_on_c, 0,47,70,
2,118080, Note_on_c, 0,43,69,
2,118080, Note_on_c, 0,70,78,
2,118080, Note_off_c, 0,50,0,
2,119040, Note_off_c, 0,40,0,
2,119040, Note_off_c, 0,34,0,
2,119040, Note_on_c, 0,50,77,
2,119040, Note_on_c, 0,45,68,
2,119040, Note_off_c, 0,72,0,
2,119040, Note_off_c, 0,43,0,
2,119040, Note_on_c, 0,69,79,
2,119040, Note_on_c, 0,38,75,
2,120000, Note_off_c, 0,69,0,
2,120000, Note_off_c, 0,50,0,
2,120000, Note_off_c, 0,60,0,
2,120000, Note_on_c, 0,43,76,
2,120960, Note_off_c, 0,45,0,
2,120960, Note_on_c, 0,72,76,
2,120960, Note_on_c, 0,57,72,
2,120960, Note_on_c, 0,74,88,
2,120960, Note_on_c, 0,50,80,
2,120960, Note_off_c, 0,50,0,
2,120960, Note_on_c, 0,69,74,
2,120960, Note_off_c, 0,74,0,
2,121920, Note_off_c, 0,47,0,
2,121920, Note_on_c, 0,74,79,
2,121920, Note_on_c, 0,48,80,
2,121920, Note_on_c, 0,46,82,
2,121920, Note_on_c, 0,62,78,
2,121920, Note_off_c, 0,46,0,
2,121920, Note_on_c, 0,47,69,
2,121920, Note_off_c, 0,43,0,
2,121920, Note_on_c, 0,53,70,
2,121920, Note_off_c, 0,53,0,
2,121920, Note_off_c, 0,52,0,
2,121920, Note_off_c, 0,74,0,
2,122880, Note_off_c, 0,84,0,
2,122880, Note_on_c, 0,52,77,
2,122880, Note_off_c, 0,47,0,
2,122880, Note_on_c, 0,74,83,
2,122880, Note_on_c, 0,46,77,
2,122880, Note_off_c, 0,62,0,
2,122880, Note_on_c, 0,40,76,
2,122880, Note_off_c, 0,52,0,
2,123840, Note_on_c, 0,52,73,
2,123840, Note_off_c, 0,74,0,
2,123840, Note_off_c, 0,72,0,
2,123840, Note_off_c, 0,64,0,
2,123840, Note_off_c, 0,48,0,
2,123840, Note_on_c, 0,43,70,
2,123840, Note_off_c, 0,52,0,
2,123840, Note_off_c, 0,46,0,
2,123840, Note_on_c, 0,64,70,
2,123840, Note_on_c, 0,60,73,
2,123840, Note_off_c, 0,60,0,
2,123840, Note_on_c, 0,45,72,
2,124800, Note_off_c, 0,45,0,
2,124800, Note_off_c, 0,69,0,
2,124800, Note_off_c, 0,76,0,
2,124800, Note_on_c, 0,45,74,
2,124800, Note_on_c, 0,76,82,
2,124800, Note_off_c, 0,43,0,
2,124800, Note_on_c, 0,52,59,
2,124800, Note_on_c, 0,46,63,
2,125760, Note_off_c, 0,58,0,
2,125760, Note_on_c, 0,43,79,
2,125760, Note_off_c, 0,52,0,
2,125760, Note_on_c, 0,58,75,
2,126720, Note_off_c, 0,45,0,
2,126720, Note_on_c, 0,45,77,
2,126720, Note_off_c, 0,43,0,
2,126720, Note_on_c, 0,84,75,
2,126720, Note_off_c, 0,57,0,
2,126720, Note_on_c, 0,57,96,
2,126720, Note_on_c, 0,48,94,
2,126720, Note_off_c, 0,64,0,
2,127680, Note_on_c, 0,74,70,
2,127680, Note_off_c, 0,57,0,
2,127680, Note_on_c, 0,62,84,
2,127680, Note_on_c, 0,53,81,
2,127680, Note_on_c, 0,47,81,
2,127680, Note_off_c, 0,48,0,
2,127680, Note_off_c, 0,46,0,
2,127680, Note_on_c, 0,46,84,
2,127680, Note_off_c, 0,62,0,
2,127680, Note_on_c, 0,62,74,
2,127680, Note_off_c, 0,58,0,
2,127680, Note_on_c, 0,48,73,
2,128640, Note_off_c, 0,74,0,
2,128640, Note_off_c, 0,53,0,
2,128640, Note_off_c, 0,46,0,
2,128640, Note_off_c, 0,47,0,
2,128640, Note_on_c, 0,46,69,
2,128640, Note_on_c, 0,74,76,
2,128640, Note_on_c, 0,53,84,
2,128640, Note_on_c, 0,34,84,
2,129600, Note_off_c, 0,48,0,
2,129600, Note_off_c, 0,46,0,
2,129600, Note_on_c, 0,47,74,
2,129600, Note_off_c, 0,53,0,
2,129600, Note_off_c, 0,47,0,
2,129600, Note_off_c, 0,62,0,
2,129600, Note_off_c, 0,40,0,
2,129600, Note_on_c, 0,47,69,
2,129600, Note_on_c, 0,43,68,
2,129600, Note_on_c, 0,46,69,
2,129600, Note_on_c, 0,48,75,
2,129600, Note_on_c, 0,62,78,
2,130560, Note_on_c, 0,65,79,
2,130560, Note_on_c, 0,68,79,
2,130560, Note_on_c, 0,55,80,
2,130560, Note_on_c, 0,69,80,
2,130560, Note_on_c, 0,57,79,
2,130560, Note_off_c, 0,62,0,
2,130560, Note_on_c, 0,40,76,
2,130560, Note_off_c, 0,74,0,
2,131520, Note_off_c, 0,46,0,
2,131520, Note_on_c, 0,62,72,
2,131520, Note_on_c, 0,50,70,
2,131520, Note_off_c, 0,65,0,
2,131520, Note_off_c, 0,57,0,
2,131520, Note_on_c, 0,52,70,
2,131520, Note_off_c, 0,62,0,
2,131520, Note_off_c, 0,68,0,
2,132480, Note_on_c, 0,77,72,
2,132480, Note_on_c, 0,41,71,
2,132480, Note_off_c, 0,77,0,
2,132480, Note_off_c, 0,69,0,
2,132480, Note_on_c, 0,46,73,
2,132480, Note_off_c, 0,52,0,
2,132480, Note_off_c, 0,40,0,
2,132480, Note_on_c, 0,83,83,
2,133440, Note_on_c, 0,74,84,
2,133440, Note_off_c, 0,83,0,
2,133440, Note_off_c, 0,46,0,
2,133440, Note_off_c, 0,48,0,
2,134400, Note_off_c, 0,74,0,
2,134400, Note_on_c, 0,48,73,
2,134400, Note_on_c, 0,53,76,
2,134400, Note_off_c, 0,43,0,
2,135360, Note_off_c, 0,53,0,
2,135360, Note_on_c, 0,69,77,
2,135360, Note_off_c, 0,69,0,
2,135360, Note_on_c, 0,57,66,
2,136320, Note_on_c, 0,64,74,
2,136320, Note_off_c, 0,84,0,
2,136320, Note_on_c, 0,43,83,
2,136320, Note_on_c, 0,52,73,
2,136320, Note_on_c, 0,53,73,
2,136320, Note_off_c, 0,43,0,
2,137280, Note_on_c, 0,71,75,
2,137280, Note_on_c, 0,46,68,
2,137280, Note_off_c, 0,64,0,
2,137280, Note_on_c, 0,62,71,
2,138240, Note_off_c, 0,76,0,
2,138240, Note_on_c, 0,72,68,
2,138240, Note_off_c, 0,52,0,
2,138240, Note_off_c, 0,55,0,
2,138240, Note_on_c, 0,65,73,
2,138240, Note_on_c, 0,68,85,
2,139200, Note_on_c, 0,77,77,
2,139200, Note_off_c, 0,50,0,
2,139200, Note_off_c, 0,68,0,
2,139200, Note_off_c, 0,65,0,
2,139200, Note_on_c, 0,64,82,
2,139200, Note_off_c, 0,64,0,
2,139200, Note_on_c, 0,50,80,
2,139200, Note_on_c, 0,55,71,
2,139200, Note_on_c, 0,76,69,
2,139200, Note_off_c, 0,50,0,
2,139200, Note_off_c, 0,57,0,
2,139200, Note_on_c, 0,67,71,
2,140160, Note_off_c, 0,77,0,
2,140160, Note_on_c, 0,68,86,
2,140160, Note_off_c, 0,41,0,
2,140160, Note_on_c, 0,57,79,
2,140160, Note_on_c, 0,65,76,
2,140160, Note_off_c, 0,76,0,
2,140160, Note_on_c, 0,74,67,
2,140160, Note_on_c, 0,50,77,
2,141120, Note_off_c, 0,50,0,
2,141120, Note_on_c, 0,69,75,
2,141120, Note_on_c, 0,77,70,
2,141120, Note_on_c, 0,41,78,
2,141120, Note_on_c, 0,50,80,
2,141120, Note_on_c, 0,64,80,
2,141120, Note_off_c, 0,55,0,
2,141120, Note_off_c, 0,65,0,
2,141120, Note_off_c, 0,57,0,
2,141120, Note_off_c, 0,77,0,
2,141120, Note_off_c, 0,50,0,
2,141120, Note_off_c, 0,62,0,
2,142080, Note_off_c, 0,68,0,
2,142080, Note_on_c, 0,57,83,
2,142080, Note_off_c, 0,45,0,
2,142080, Note_on_c, 0,50,83,
2,142080, Note_off_c, 0,50,0,
2,142080, Note_off_c, 0,41,0,
2,142080, Note_off_c, 0,69,0,
2,142080, Note_on_c, 0,68,84,
2,143040, Note_on_c, 0,50,74,
2,143040, Note_off_c, 0,68,0,
2,143040, Note_on_c, 0,65,81,
2,143040, Note_on_c, 0,62,69,
2,144000, Note_on_c, 0,69,81,
2,144000, Note_on_c, 0,45,81,
2,144000, Note_off_c, 0,70,0,
2,144000, Note_off_c, 0,45,0,
2,144000, Note_off_c, 0,50,0,
2,144000, Note_off_c, 0,72,0,
2,144000, Note_on_c, 0,45,69,
2,144000, Note_off_c, 0,48,0,
2,144960, Note_off_c, 0,53,0,
2,144960, Note_off_c, 0,47,0,
2,144960, Note_on_c, 0,53,83,
2,144960, Note_on_c, 0,52,79,
2,144960, Note_off_c, 0,62,0,
2,144960, Note_off_c, 0,46,0,
2,144960, Note_off_c, 0,52,0,
2,144960, Note_on_c, 0,52,78,
2,145920, Note_on_c, 0,58,79,
2,145920, Note_on_c, 0,62,74,
2,145920, Note_on_c, 0,46,83,
2,145920, Note_off_c, 0,74,0,
2,145920, Note_on_c, 0,74,84,
2,145920, Note_off_c, 0,46,0,
2,145920, Note_off_c, 0,52,0,
2,145920, Note_on_c, 0,46,86,
2,145920, Note_on_c, 0,48,72,
2,145920, Note_off_c, 0,64,0,
2,145920, Note_off_c, 0,57,0,
2,145920, Note_on_c, 0,47,70,
2,146880, Note_on_c, 0,52,74,
2,146880, Note_on_c, 0,43,76,
2,146880, Note_off_c, 0,45,0,
2,146880, Note_on_c, 0,60,75,
2,146880, Note_off_c, 0,43,0,
2,146880, Note_off_c, 0,60,0,
2,146880, Note_on_c, 0,45,71,
2,146880, Note_off_c, 0,45,0,
2,146880, Note_off_c, 0,65,0,
2,146880, Note_on_c, 0,50,65,
2,146880, Note_on_c, 0,81,65,
2,146880, Note_off_c, 0,48,0,
2,147840, Note_off_c, 0,46,0,
2,147840, Note_off_c, 0,52,0,
2,147840, Note_off_c, 0,47,0,
2,147840, Note_on_c, 0,52,77,
2,147840, Note_off_c, 0,52,0,
2,147840, Note_off_c, 0,74,0,
2,148800, Note_on_c, 0,46,87,
2,148800, Note_on_c, 0,65,74,
2,148800, Note_on_c, 0,64,76,
2,148800, Note_on_c, 0,76,76,
2,149760, Note_on_c, 0,52,75,
2,149760, Note_off_c, 0,34,0,
2,149760, Note_on_c, 0,72,90,
2,149760, Note_off_c, 0,46,0,
2,149760, Note_on_c, 0,45,77,
2,149760, Note_off_c, 0,45,0,
2,150720, Note_off_c, 0,72,0,
2,150720, Note_on_c, 0,72,73,
2,150720, Note_off_c, 0,50,0,
2,150720, Note_off_c, 0,52,0,
2,150720, Note_off_c, 0,53,0,
2,150720, Note_off_c, 0,64,0,
2,151680, Note_on_c, 0,74,85,
2,151680, Note_off_c, 0,74,0,
2,151680, Note_off_c, 0,69,0,
2,151680, Note_on_c, 0,45,74,
2,151680, Note_on_c, 0,50,85,
2,151680, Note_on_c, 0,60,79,
2,151680, Note_on_c, 0,64,68,
2,151680, Note_off_c, 0,50,0,
2,152640, Note_off_c, 0,72,0,
2,152640, Note_on_c, 0,50,81,
2,152640, Note_off_c, 0,45,0,
2,152640, Note_off_c, 0,65,0,
2,152640, Note_on_c, 0,77,72,
2,152640, Note_on_c, 0,74,76,
2,153600, Note_on_c, 0,65,76,
2,153600, Note_on_c, 0,69,70,
2,153600, Note_on_c, 0,45,89,
2,153600, Note_off_c, 0,50,0,
2,153600, Note_off_c, 0,38,0,
2,153600, Note_on_c, 0,57,76,
2,154560, Note_off_c, 0,77,0,
2,154560, Note_on_c, 0,77,75,
2,154560, Note_off_c, 0,62,0,
2,154560, Note_off_c, 0,64,0,
2,154560, Note_on_c, 0,64,84,
2,154560, Note_on_c, 0,62,71,
2,154560, Note_on_c, 0,50,86,
2,154560, Note_off_c, 0,60,0,
2,155520, Note_off_c, 0,50,0,
2,155520, Note_on_c, 0,43,78,
2,155520, Note_on_c, 0,41,60,
2,158400, Note_off_c, 0,41,0,
2,158400, Note_off_c, 0,45,0,
2,158400, Note_on_c, 0,60,77,
2,158400, Note_on_c, 0,45,92,
2,159360, Note_on_c, 0,41,58,
2,159360, Note_off_c, 0,41,0,
2,161280, Note_off_c, 0,105,0,
2,161280, Note_off_c, 0,45,0,
2,161280, Note_on_c, 0,41,66,
2,161280, Note_on_c, 0,45,75,
2,164160, Note_off_c, 0,45,0,
2,164160, Note_on_c, 0,95,76,
2,164160, Note_off_c, 0,43,0,
2,164160, Note_on_c, 0,40,69,
2,165120, Note_off_c, 0,41,0,
2,165120, Note_on_c, 0,41,55,
2,167040, Note_on_c, 0,93,60,
2,167040, Note_off_c, 0,41,0,
2,167040, Note_on_c, 0,41,79,
2,167040, Note_off_c, 0,28,0,
2,169920, Note_off_c, 0,40,0,
2,169920, Note_off_c, 0,41,0,
2,169920, Note_on_c, 0,33,77,
2,169920, Note_on_c, 0,40,63,
2,170880, Note_on_c, 0,45,52,
2,170880, Note_off_c, 0,45,0,
2,172800, Note_off_c, 0,33,0,
2,172800, Note_on_c, 0,45,56,
2,172800, Note_off_c, 0,64,0,
2,172800, Note_on_c, 0,41,74,
2,175680, Note_off_c, 0,41,0,
2,175680, Note_on_c, 0,31,74,
2,175680, Note_off_c, 0,45,0,
2,175680, Note_on_c, 0,41,69,
2,176640, Note_off_c, 0,93,0,
2,176640, Note_on_c, 0,45,55,
2,177600, Note_on_c, 0,33,55,
2,177600, Note_on_c, 0,29,105,
2, 178561, End_track,,,,
0, 0, End_of_file,,,,
